<svg xmlns="http://www.w3.org/2000/svg" width="1250" height="1678" viewBox="0 0 1250 1678">
  <g id="Ebene_2" data-name="Ebene 2">
    <g>
      <g>
        <path d="M397.6,1209.63H331.24v44.93h77.88v27.77H296.68V1114.58H408.89v28H331.24v40H397.6Z"/>
        <path d="M535.26,1238.32q0-9.79-6.92-15t-24.88-11.06q-18-5.81-28.46-11.46-28.58-15.43-28.57-41.59a40.48,40.48,0,0,1,7.66-24.25q7.67-10.65,22-16.65a82.86,82.86,0,0,1,32.2-6q18,0,32,6.51a51,51,0,0,1,21.84,18.38,48.09,48.09,0,0,1,7.77,26.95H535.37q0-11.52-7.26-17.91t-20.39-6.4q-12.68,0-19.7,5.36a16.89,16.89,0,0,0-7,14.11q0,8.19,8.24,13.71t24.25,10.37q29.49,8.88,43,22t13.48,32.72q0,21.77-16.47,34.16t-44.36,12.38a85.55,85.55,0,0,1-35.25-7.09q-15.9-7.08-24.25-19.41t-8.35-28.57h34.67q0,27.76,33.18,27.77,12.33,0,19.24-5A16.32,16.32,0,0,0,535.26,1238.32Z"/>
        <path d="M657.36,1114.58l43.08,121.66,42.86-121.66h45.39v167.75H754v-45.86l3.45-79.14-45.27,125H688.46L643.3,1157.44l3.46,79v45.86H612.19V1114.58Z"/>
        <path d="M938.68,1213.78H872.32v68.55H837.75V1114.58H947v28H872.32v43.32h66.36Z"/>
      </g>
      <g>
        <g>
          <path d="M166.1,741.32H390.74a325.64,325.64,0,0,1-94-184.5H112.22A504.34,504.34,0,0,0,166.1,741.32Z"/>
          <path d="M1130.75,556.82H946.2a325.71,325.71,0,0,1-94,184.5h224.65A504.34,504.34,0,0,0,1130.75,556.82Z"/>
          <path d="M229.78,836.64a512.91,512.91,0,0,0,783.4,0Z"/>
          <path d="M296.77,461.5c23.24-157.68,160-279.14,324.71-279.14S923,303.82,946.2,461.5h184.55C1106.61,202.59,887.84-.11,621.48-.11S136.36,202.59,112.22,461.5Z"/>
        </g>
        <ellipse cx="621.48" cy="509.16" rx="232.51" ry="231.48"/>
      </g>
      <g>
        <path d="M159.5,1429.43H123.29V1459h42.07v9H112.28V1384.5h52.5v9H123.29v26.92H159.5Z"/>
        <path d="M210.62,1460.53a15.32,15.32,0,0,0,9.93-3.44,12.16,12.16,0,0,0,4.71-8.61h10a19.32,19.32,0,0,1-3.67,10.16,24.3,24.3,0,0,1-9,7.69,26.13,26.13,0,0,1-12,2.86q-12.68,0-20.17-8.46T183,1437.58v-1.78a37.38,37.38,0,0,1,3.33-16.13,25.4,25.4,0,0,1,9.56-11,27.13,27.13,0,0,1,14.72-3.9q10.44,0,17.35,6.25a22.35,22.35,0,0,1,7.38,16.24h-10a14.67,14.67,0,0,0-4.57-9.9,14.18,14.18,0,0,0-10.12-3.87q-8.1,0-12.54,5.83t-4.45,16.84v2q0,10.72,4.42,16.52T210.62,1460.53Z"/>
        <path d="M268.17,1468.05H257.55V1379.9h10.62Z"/>
        <path d="M294.62,1389.49a6.33,6.33,0,0,1,1.57-4.36,5.91,5.91,0,0,1,4.68-1.78,6,6,0,0,1,4.71,1.78,6.26,6.26,0,0,1,1.6,4.36,6.06,6.06,0,0,1-1.6,4.3,6.13,6.13,0,0,1-4.71,1.72,6,6,0,0,1-4.68-1.72A6.13,6.13,0,0,1,294.62,1389.49Zm11.47,78.56H295.48V1406h10.61Z"/>
        <path d="M384.93,1437.69q0,14.18-6.49,22.84a20.76,20.76,0,0,1-17.56,8.66q-11.29,0-17.78-7.17v29.9H332.48v-86h9.7l.51,6.88q6.49-8,18-8,11.19,0,17.7,8.43t6.52,23.48Zm-10.62-1.2q0-10.52-4.48-16.59a14.41,14.41,0,0,0-12.27-6.08q-9.65,0-14.46,8.55V1452a15.63,15.63,0,0,0,14.57,8.49,14.37,14.37,0,0,0,12.14-6Q374.31,1448.42,374.31,1436.49Z"/>
        <path d="M444,1451.58a7.81,7.81,0,0,0-3.25-6.69q-3.24-2.37-11.3-4.1a54,54,0,0,1-12.8-4.13,18.26,18.26,0,0,1-7-5.74,13.74,13.74,0,0,1-2.26-7.92q0-7.63,6.45-12.91t16.5-5.28q10.56,0,17.13,5.45a17.32,17.32,0,0,1,6.57,14H443.34a9.6,9.6,0,0,0-3.7-7.52,13.86,13.86,0,0,0-9.33-3.16c-3.86,0-6.89.84-9.07,2.53a7.94,7.94,0,0,0-3.27,6.6,6.45,6.45,0,0,0,3,5.79q3,2,11,3.73a57.24,57.24,0,0,1,12.89,4.25,18.7,18.7,0,0,1,7.31,5.94,14.56,14.56,0,0,1,2.38,8.46,15.89,15.89,0,0,1-6.65,13.34q-6.66,5-17.28,5a31.22,31.22,0,0,1-13.19-2.64,21.41,21.41,0,0,1-9-7.37,17.76,17.76,0,0,1-3.24-10.24h10.62a11,11,0,0,0,4.27,8.46q4,3.13,10.53,3.13,6,0,9.67-2.44A7.49,7.49,0,0,0,444,1451.58Z"/>
        <path d="M503.58,1469.19q-12.63,0-20.54-8.29t-7.92-22.18v-2a37.17,37.17,0,0,1,3.53-16.5,27.57,27.57,0,0,1,9.87-11.36,24.84,24.84,0,0,1,13.74-4.1q12.11,0,18.82,8t6.72,22.83V1440H485.73q.24,9.18,5.37,14.84a16.84,16.84,0,0,0,13,5.65,18.5,18.5,0,0,0,9.53-2.3,23.85,23.85,0,0,0,6.83-6.08l6.48,5Q519.19,1469.2,503.58,1469.19Zm-1.32-55.66a14.17,14.17,0,0,0-10.79,4.68q-4.37,4.68-5.39,13.11h31.1v-.8q-.46-8.1-4.36-12.54A13.31,13.31,0,0,0,502.26,1413.53Z"/>
        <path d="M614.26,1430.8q-14.18-4.07-20.63-10a19.12,19.12,0,0,1-6.46-14.66,20.23,20.23,0,0,1,7.89-16.33q7.89-6.45,20.52-6.45a34.25,34.25,0,0,1,15.35,3.33,25.23,25.23,0,0,1,10.44,9.18,23.45,23.45,0,0,1,3.7,12.79H634q0-7.59-4.82-12t-13.6-4.34c-5.44,0-9.67,1.2-12.72,3.59a12,12,0,0,0-4.56,10,10.79,10.79,0,0,0,4.34,8.66q4.32,3.53,14.74,6.46t16.3,6.46a24.75,24.75,0,0,1,8.72,8.24,21,21,0,0,1,2.84,11.07,19.51,19.51,0,0,1-7.92,16.27q-7.92,6.12-21.17,6.11a39.42,39.42,0,0,1-16.07-3.29,27,27,0,0,1-11.5-9,22.06,22.06,0,0,1-4.05-13h11.08a14.4,14.4,0,0,0,5.59,12q5.59,4.38,14.95,4.39,8.72,0,13.37-3.56a11.56,11.56,0,0,0,4.65-9.7,11.36,11.36,0,0,0-4.31-9.5Q625.57,1434.07,614.26,1430.8Z"/>
        <path d="M692.86,1469.19q-12.61,0-20.54-8.29t-7.92-22.18v-2a37.31,37.31,0,0,1,3.53-16.5,27.57,27.57,0,0,1,9.87-11.36,24.86,24.86,0,0,1,13.74-4.1q12.11,0,18.82,8t6.72,22.83V1440H675q.22,9.18,5.36,14.84a16.86,16.86,0,0,0,13.06,5.65,18.49,18.49,0,0,0,9.52-2.3,23.85,23.85,0,0,0,6.83-6.08l6.49,5Q708.47,1469.2,692.86,1469.19Zm-1.32-55.66a14.17,14.17,0,0,0-10.79,4.68q-4.35,4.68-5.39,13.11h31.1v-.8q-.45-8.1-4.36-12.54A13.31,13.31,0,0,0,691.54,1413.53Z"/>
        <path d="M748.75,1406l.28,6.88q6.83-8,18.42-8,13,0,17.74,10a23.53,23.53,0,0,1,8.06-7.23,23.87,23.87,0,0,1,11.73-2.75q20.43,0,20.78,21.63v41.61H815.14v-41q0-6.64-3-10t-10.22-3.3a14,14,0,0,0-9.81,3.53,14.31,14.31,0,0,0-4.53,9.49v41.21H776.86v-40.69q0-13.54-13.25-13.54-10.46,0-14.29,8.89v45.34H738.7V1406Z"/>
        <path d="M889.5,1468.05a22.4,22.4,0,0,1-1.49-6.55,23.69,23.69,0,0,1-17.68,7.69q-9.18,0-15.06-5.19a16.8,16.8,0,0,1-5.88-13.17q0-9.69,7.37-15.06t20.75-5.37h10.32v-4.87a12,12,0,0,0-3.32-8.87q-3.33-3.3-9.82-3.3a15.49,15.49,0,0,0-9.52,2.87c-2.56,1.91-3.85,4.23-3.85,6.94H850.65a14.65,14.65,0,0,1,3.3-9,22.55,22.55,0,0,1,8.95-6.86,30.18,30.18,0,0,1,12.43-2.52q10.73,0,16.81,5.36t6.31,14.78v28.58q0,8.55,2.18,13.6v.92ZM871.88,1460a18.67,18.67,0,0,0,9.47-2.59,15.59,15.59,0,0,0,6.48-6.71v-12.74h-8.32q-19.5,0-19.51,11.42a9.64,9.64,0,0,0,3.33,7.8A12.77,12.77,0,0,0,871.88,1460Z"/>
        <path d="M934.54,1406l.34,7.8a22.63,22.63,0,0,1,18.6-9q19.68,0,19.85,22.21v41H962.71V1427c0-4.48-1.06-7.78-3.07-9.93s-5.13-3.21-9.38-3.21a15.4,15.4,0,0,0-9.07,2.75,18.73,18.73,0,0,0-6.08,7.23v44.25H924.5V1406Z"/>
        <path d="M1013.14,1390.92v15h11.6v8.2h-11.6v38.56a8.64,8.64,0,0,0,1.55,5.6c1,1.24,2.8,1.87,5.28,1.87a25.58,25.58,0,0,0,5-.69v8.55a31,31,0,0,1-8.15,1.14q-7.11,0-10.73-4.3t-3.61-12.22v-38.51H991.22V1406h11.31v-15Z"/>
        <path d="M1046.59,1389.49a6.34,6.34,0,0,1,1.58-4.36,5.9,5.9,0,0,1,4.67-1.78,6,6,0,0,1,4.71,1.78,6.27,6.27,0,0,1,1.61,4.36,6.57,6.57,0,0,1-11,4.3A6.13,6.13,0,0,1,1046.59,1389.49Zm11.48,78.56h-10.62V1406h10.62Z"/>
        <path d="M1109.36,1460.53a15.32,15.32,0,0,0,9.93-3.44,12.11,12.11,0,0,0,4.7-8.61h10a19.33,19.33,0,0,1-3.68,10.16,24.22,24.22,0,0,1-9,7.69,26.06,26.06,0,0,1-12,2.86q-12.67,0-20.17-8.46t-7.49-23.15v-1.78a37.38,37.38,0,0,1,3.33-16.13,25.37,25.37,0,0,1,9.55-11,27.16,27.16,0,0,1,14.72-3.9q10.44,0,17.36,6.25a22.39,22.39,0,0,1,7.38,16.24h-10a14.61,14.61,0,0,0-4.56-9.9,14.19,14.19,0,0,0-10.13-3.87q-8.08,0-12.54,5.83t-4.44,16.84v2q0,10.72,4.42,16.52T1109.36,1460.53Z"/>
        <path d="M14.33,1569.4l27.32,68.17L69,1569.4H83.25V1653h-11v-32.54l1-35.12L45.83,1653H37.4L10,1585.47l1.09,34.94V1653H.1V1569.4Z"/>
        <path d="M107.63,1621.33a36.69,36.69,0,0,1,3.58-16.41,26.8,26.8,0,0,1,10-11.25,27.15,27.15,0,0,1,14.6-4q12.69,0,20.52,8.78t7.83,23.36v.74a37,37,0,0,1-3.47,16.27,26.38,26.38,0,0,1-9.93,11.22,27.47,27.47,0,0,1-14.83,4q-12.63,0-20.46-8.78t-7.83-23.24Zm10.67,1.26q0,10.34,4.79,16.59a16.24,16.24,0,0,0,25.68-.09q4.77-6.35,4.76-17.76,0-10.21-4.84-16.55a15.43,15.43,0,0,0-12.89-6.35,15.25,15.25,0,0,0-12.68,6.26Q118.31,1610.94,118.3,1622.59Z"/>
        <path d="M184.28,1621.39q0-14.3,6.78-23a21.39,21.39,0,0,1,17.73-8.7q10.91,0,17.27,7.46v-32.36h10.62V1653h-9.76l-.52-6.66q-6.36,7.82-17.73,7.81-10.78,0-17.59-8.84t-6.8-23.07Zm10.62,1.2q0,10.56,4.36,16.53a14.11,14.11,0,0,0,12.05,6q10.11,0,14.75-9.07V1607.5q-4.77-8.77-14.63-8.78a14.16,14.16,0,0,0-12.17,6Q194.9,1610.77,194.9,1622.59Z"/>
        <path d="M288.31,1654.1q-12.63,0-20.54-8.3t-7.92-22.17v-2a37.29,37.29,0,0,1,3.53-16.49,27.54,27.54,0,0,1,9.87-11.37,24.86,24.86,0,0,1,13.74-4.1q12.11,0,18.82,8t6.72,22.84V1625H270.47q.22,9.18,5.36,14.83a16.85,16.85,0,0,0,13.05,5.65,18.5,18.5,0,0,0,9.53-2.29,23.89,23.89,0,0,0,6.83-6.09l6.49,5Q303.91,1654.1,288.31,1654.1ZM287,1598.43a14.17,14.17,0,0,0-10.79,4.68q-4.35,4.68-5.39,13.11h31.1v-.8q-.45-8.09-4.36-12.54A13.35,13.35,0,0,0,287,1598.43Z"/>
        <path d="M345.75,1653H335.13v-88.14h10.62Z"/>
        <path d="M372.19,1574.39a6.34,6.34,0,0,1,1.58-4.36,5.91,5.91,0,0,1,4.68-1.78,6,6,0,0,1,4.7,1.78,6.27,6.27,0,0,1,1.61,4.36,6.05,6.05,0,0,1-1.61,4.3,6.12,6.12,0,0,1-4.7,1.73,6,6,0,0,1-4.68-1.73A6.12,6.12,0,0,1,372.19,1574.39ZM383.67,1653H373.05v-62.09h10.62Z"/>
        <path d="M420.1,1590.86l.34,7.8a22.64,22.64,0,0,1,18.59-9q19.68,0,19.86,22.21v41H448.27v-41.09q-.06-6.7-3.07-9.93t-9.38-3.21a15.31,15.31,0,0,0-9.07,2.76,18.59,18.59,0,0,0-6.08,7.23V1653H410.05v-62.09Z"/>
        <path d="M481.77,1621.39q0-14.52,6.72-23.1a21.46,21.46,0,0,1,17.79-8.58q11.36,0,17.73,8l.52-6.89h9.69v60.6q0,12-7.14,19t-19.2,6.94a32,32,0,0,1-13.14-2.86,22.71,22.71,0,0,1-9.81-7.87l5.51-6.37q6.82,8.45,16.7,8.44,7.74,0,12.08-4.36t4.33-12.28v-5.34q-6.37,7.35-17.39,7.35a21.2,21.2,0,0,1-17.64-8.78Q481.77,1636.53,481.77,1621.39Zm10.68,1.2q0,10.5,4.3,16.5a14,14,0,0,0,12.05,6q10.05,0,14.75-9.13v-28.34q-4.87-8.89-14.63-8.9a14.11,14.11,0,0,0-12.11,6Q492.44,1610.77,492.45,1622.59Z"/>
        <path d="M645.88,1616.05H610.81V1653h-11V1569.4h51.76v9H610.81V1607h35.07Z"/>
        <path d="M701,1600.39a31.58,31.58,0,0,0-5.22-.41q-10.44,0-14.17,8.9V1653H671v-62.09h10.33l.17,7.17q5.22-8.31,14.81-8.32a10.75,10.75,0,0,1,4.7.81Z"/>
        <path d="M756.21,1653a22.32,22.32,0,0,1-1.5-6.54A23.69,23.69,0,0,1,737,1654.1q-9.18,0-15.06-5.2a16.77,16.77,0,0,1-5.88-13.17q0-9.69,7.37-15.06t20.74-5.36h10.33v-4.88a11.93,11.93,0,0,0-3.33-8.87q-3.33-3.3-9.81-3.3a15.52,15.52,0,0,0-9.53,2.87,8.46,8.46,0,0,0-3.84,6.94H717.36a14.67,14.67,0,0,1,3.3-9,22.53,22.53,0,0,1,9-6.85,30,30,0,0,1,12.42-2.53q10.74,0,16.82,5.37t6.31,14.77v28.58q0,8.55,2.18,13.6v.92Zm-17.62-8.09a18.69,18.69,0,0,0,9.47-2.58,15.67,15.67,0,0,0,6.48-6.72v-12.74h-8.32q-19.51,0-19.51,11.42a9.68,9.68,0,0,0,3.33,7.81A12.82,12.82,0,0,0,738.59,1644.86Z"/>
        <path d="M801.19,1590.86l.28,6.89q6.84-8,18.42-8,13,0,17.74,10a23.33,23.33,0,0,1,8.06-7.23,23.77,23.77,0,0,1,11.73-2.76q20.43,0,20.78,21.64V1653H867.58v-41q0-6.66-3-10t-10.22-3.3a14.08,14.08,0,0,0-9.81,3.53,14.31,14.31,0,0,0-4.53,9.5V1653H829.31v-40.69q0-13.53-13.26-13.54-10.44,0-14.29,8.9V1653H791.14v-62.09Z"/>
        <path d="M929.37,1654.1q-12.61,0-20.54-8.3t-7.92-22.17v-2a37.29,37.29,0,0,1,3.53-16.49,27.54,27.54,0,0,1,9.87-11.37,24.86,24.86,0,0,1,13.74-4.1q12.12,0,18.83,8t6.71,22.84V1625H911.53q.22,9.18,5.36,14.83a16.88,16.88,0,0,0,13.06,5.65,18.46,18.46,0,0,0,9.52-2.29,23.89,23.89,0,0,0,6.83-6.09l6.49,5Q945,1654.1,929.37,1654.1Zm-1.32-55.67a14.13,14.13,0,0,0-10.78,4.68q-4.37,4.68-5.4,13.11H943v-.8q-.45-8.09-4.36-12.54A13.35,13.35,0,0,0,928.05,1598.43Z"/>
        <path d="M1030.25,1638.32l11.93-47.46h10.62L1034.72,1653h-8.61L1011,1605.89,996.33,1653h-8.6l-18-62.09h10.55l12.23,46.48,14.46-46.48h8.55Z"/>
        <path d="M1070.17,1621.33a36.69,36.69,0,0,1,3.59-16.41,26.73,26.73,0,0,1,10-11.25,27.15,27.15,0,0,1,14.6-4q12.69,0,20.52,8.78t7.83,23.36v.74a37,37,0,0,1-3.47,16.27,26.45,26.45,0,0,1-9.93,11.22,27.47,27.47,0,0,1-14.83,4q-12.63,0-20.46-8.78t-7.84-23.24Zm10.68,1.26q0,10.34,4.79,16.59a16.24,16.24,0,0,0,25.68-.09q4.77-6.35,4.76-17.76,0-10.21-4.85-16.55a15.4,15.4,0,0,0-12.88-6.35,15.24,15.24,0,0,0-12.68,6.26Q1080.86,1610.94,1080.85,1622.59Z"/>
        <path d="M1179.43,1600.39a31.62,31.62,0,0,0-5.23-.41q-10.44,0-14.17,8.9V1653h-10.62v-62.09h10.33l.17,7.17q5.23-8.31,14.81-8.32a10.8,10.8,0,0,1,4.71.81Z"/>
        <path d="M1215.91,1624.2l-6.65,6.94V1653h-10.62v-88.14h10.62v53.31l5.68-6.83,19.34-20.43h12.91L1223,1616.8l27,36.15h-12.45Z"/>
      </g>
    </g>
  </g>
</svg>
