<svg xmlns="http://www.w3.org/2000/svg" width="1250" height="1678" viewBox="0 0 1250 1678">
  <defs>
    <style>
      .cls-1 {
        fill: #fff;
      }
    </style>
  </defs>
  <g id="Ebene_2" data-name="Ebene 2">
    <g>
      <g>
        <path class="cls-1" d="M397.71,1209.48H331.36v44.92h77.87v27.77H296.8V1114.44H409v28H331.36v40h66.35Z"/>
        <path class="cls-1" d="M535.35,1238.16q0-9.79-6.92-15t-24.88-11.06q-18-5.82-28.45-11.46-28.58-15.43-28.57-41.59a40.45,40.45,0,0,1,7.66-24.24q7.67-10.66,22-16.65a82.9,82.9,0,0,1,32.2-6q18,0,32,6.51A51,51,0,0,1,562.24,1137a48,48,0,0,1,7.78,27H535.46q0-11.52-7.26-17.92t-20.39-6.39q-12.66,0-19.69,5.36a16.88,16.88,0,0,0-7,14.11q0,8.17,8.24,13.71t24.24,10.36q29.49,8.88,43,22T570,1237.93q0,21.78-16.47,34.16t-44.35,12.38a85.48,85.48,0,0,1-35.25-7.09q-15.9-7.08-24.25-19.4t-8.35-28.57H476q0,27.77,33.18,27.76,12.31,0,19.23-5T535.35,1238.16Z"/>
        <path class="cls-1" d="M657.43,1114.44l43.08,121.65,42.85-121.65h45.39v167.73H754.08v-45.85l3.45-79.14-45.27,125H688.53L643.38,1157.3l3.45,79v45.85H612.27V1114.44Z"/>
        <path class="cls-1" d="M938.71,1213.63H872.36v68.54H837.81V1114.44H947v28H872.36v43.31h66.35Z"/>
      </g>
      <g>
        <g>
          <path class="cls-1" d="M166.24,741.23H390.85a325.6,325.6,0,0,1-94-184.48H112.36A504.3,504.3,0,0,0,166.24,741.23Z"/>
          <path class="cls-1" d="M1130.76,556.75H946.24a325.68,325.68,0,0,1-94,184.48h224.62A504.29,504.29,0,0,0,1130.76,556.75Z"/>
          <path class="cls-1" d="M229.91,836.54a512.84,512.84,0,0,0,783.3,0Z"/>
          <path class="cls-1" d="M296.89,461.44c23.24-157.66,160-279.1,324.67-279.1S923,303.78,946.24,461.44h184.52C1106.63,202.57,887.88-.11,621.56-.11S136.5,202.57,112.36,461.44Z"/>
        </g>
        <ellipse class="cls-1" cx="621.56" cy="509.1" rx="232.48" ry="231.46"/>
      </g>
      <g>
        <path class="cls-1" d="M159.64,1429.25H123.43v29.6h42.06v9H112.42v-83.54h52.5v9H123.43v26.91h36.21Z"/>
        <path class="cls-1" d="M210.75,1460.35a15.27,15.27,0,0,0,9.93-3.45,12.12,12.12,0,0,0,4.71-8.6h10a19.3,19.3,0,0,1-3.68,10.15,24.09,24.09,0,0,1-9,7.69,26.14,26.14,0,0,1-12,2.87q-12.67,0-20.16-8.46t-7.49-23.15v-1.78a37.38,37.38,0,0,1,3.33-16.13,25.37,25.37,0,0,1,9.55-11,27.13,27.13,0,0,1,14.72-3.9q10.44,0,17.35,6.26a22.36,22.36,0,0,1,7.38,16.23h-10a14.62,14.62,0,0,0-4.57-9.89,14.19,14.19,0,0,0-10.12-3.88q-8.1,0-12.54,5.83T193.71,1436v2q0,10.73,4.42,16.52T210.75,1460.35Z"/>
        <path class="cls-1" d="M268.29,1467.86H257.68v-88.13h10.61Z"/>
        <path class="cls-1" d="M294.74,1389.31a6.35,6.35,0,0,1,1.57-4.36,5.94,5.94,0,0,1,4.68-1.78,6,6,0,0,1,4.7,1.78,6.28,6.28,0,0,1,1.61,4.36,6.28,6.28,0,1,1-12.56,0Zm11.47,78.55H295.6v-62.08h10.61Z"/>
        <path class="cls-1" d="M385,1437.51q0,14.17-6.49,22.84A20.78,20.78,0,0,1,361,1469q-11.3,0-17.78-7.17v29.89H332.59v-86h9.7l.52,6.89q6.48-8,18-8,11.19,0,17.7,8.44t6.52,23.46Zm-10.62-1.2q0-10.5-4.47-16.59a14.44,14.44,0,0,0-12.28-6.08q-9.65,0-14.46,8.55v29.66a15.62,15.62,0,0,0,14.57,8.5,14.36,14.36,0,0,0,12.14-6.06Q374.42,1448.25,374.42,1436.31Z"/>
        <path class="cls-1" d="M444.07,1451.4a7.83,7.83,0,0,0-3.24-6.69q-3.24-2.39-11.31-4.1a53.78,53.78,0,0,1-12.79-4.13,18.19,18.19,0,0,1-7-5.74,13.74,13.74,0,0,1-2.27-7.92q0-7.63,6.46-12.91t16.49-5.28q10.56,0,17.13,5.45a17.34,17.34,0,0,1,6.57,14H443.44a9.6,9.6,0,0,0-3.7-7.52,13.91,13.91,0,0,0-9.33-3.16c-3.86,0-6.88.85-9.06,2.53a7.94,7.94,0,0,0-3.27,6.6,6.43,6.43,0,0,0,3,5.79c2,1.3,5.69,2.55,11,3.73a57.24,57.24,0,0,1,12.89,4.25,18.7,18.7,0,0,1,7.31,5.94,14.56,14.56,0,0,1,2.38,8.46A15.9,15.9,0,0,1,448,1464q-6.66,5-17.27,5a31.26,31.26,0,0,1-13.2-2.64,21.53,21.53,0,0,1-9-7.37,17.79,17.79,0,0,1-3.24-10.24H416a11,11,0,0,0,4.28,8.46q4,3.12,10.53,3.13,6,0,9.67-2.44A7.52,7.52,0,0,0,444.07,1451.4Z"/>
        <path class="cls-1" d="M503.67,1469q-12.62,0-20.54-8.29t-7.91-22.18v-2a37.26,37.26,0,0,1,3.52-16.49,27.59,27.59,0,0,1,9.87-11.36,24.79,24.79,0,0,1,13.74-4.11q12.12,0,18.82,8t6.72,22.83v4.42H485.83q.23,9.18,5.36,14.83a16.88,16.88,0,0,0,13.06,5.66,18.47,18.47,0,0,0,9.52-2.3,24,24,0,0,0,6.83-6.08l6.48,5Q519.28,1469,503.67,1469Zm-1.32-55.66a14.13,14.13,0,0,0-10.78,4.68q-4.36,4.68-5.4,13.11h31.1v-.8c-.3-5.4-1.76-9.57-4.36-12.54A13.35,13.35,0,0,0,502.35,1413.35Z"/>
        <path class="cls-1" d="M614.34,1430.62q-14.18-4.06-20.63-10a19.1,19.1,0,0,1-6.46-14.66,20.19,20.19,0,0,1,7.89-16.32q7.89-6.45,20.52-6.46A34.18,34.18,0,0,1,631,1386.5a25.26,25.26,0,0,1,10.45,9.18,23.54,23.54,0,0,1,3.7,12.8H634.07q0-7.61-4.82-12t-13.59-4.35q-8.16,0-12.71,3.6a12,12,0,0,0-4.57,10,10.79,10.79,0,0,0,4.34,8.65q4.34,3.54,14.74,6.47t16.3,6.46a24.64,24.64,0,0,1,8.72,8.23,21.06,21.06,0,0,1,2.84,11.07,19.52,19.52,0,0,1-7.92,16.27q-7.92,6.11-21.17,6.11a39.3,39.3,0,0,1-16.07-3.3,27,27,0,0,1-11.5-9,22,22,0,0,1-4-13h11.08a14.37,14.37,0,0,0,5.59,12q5.6,4.4,15,4.39,8.71,0,13.37-3.56a11.54,11.54,0,0,0,4.65-9.69,11.35,11.35,0,0,0-4.31-9.5Q625.64,1433.89,614.34,1430.62Z"/>
        <path class="cls-1" d="M692.93,1469q-12.61,0-20.54-8.29t-7.92-22.18v-2A37.26,37.26,0,0,1,668,1420.1a27.45,27.45,0,0,1,9.87-11.36,24.79,24.79,0,0,1,13.74-4.11q12.1,0,18.82,8t6.71,22.83v4.42h-42q.23,9.18,5.36,14.83a16.87,16.87,0,0,0,13.06,5.66,18.49,18.49,0,0,0,9.52-2.3,24,24,0,0,0,6.83-6.08l6.48,5Q708.54,1469,692.93,1469Zm-1.32-55.66a14.13,14.13,0,0,0-10.78,4.68q-4.37,4.68-5.4,13.11h31.1v-.8c-.31-5.4-1.76-9.57-4.36-12.54A13.35,13.35,0,0,0,691.61,1413.35Z"/>
        <path class="cls-1" d="M748.81,1405.78l.28,6.89q6.84-8,18.42-8,13,0,17.73,10a23.51,23.51,0,0,1,8.06-7.23,23.78,23.78,0,0,1,11.74-2.76q20.43,0,20.77,21.63v41.6H815.19v-41q0-6.66-3-10t-10.21-3.3a14.08,14.08,0,0,0-9.81,3.53,14.31,14.31,0,0,0-4.53,9.5v41.19H776.92v-40.68q0-13.54-13.25-13.54-10.44,0-14.29,8.89v45.33H738.77v-62.08Z"/>
        <path class="cls-1" d="M889.54,1467.86a22.55,22.55,0,0,1-1.49-6.54,23.65,23.65,0,0,1-17.67,7.69q-9.18,0-15.06-5.19a16.8,16.8,0,0,1-5.88-13.17q0-9.69,7.37-15.06t20.74-5.37h10.33v-4.87a11.93,11.93,0,0,0-3.33-8.87q-3.33-3.3-9.81-3.3a15.47,15.47,0,0,0-9.52,2.87c-2.57,1.91-3.85,4.23-3.85,6.94H850.7a14.67,14.67,0,0,1,3.3-9,22.53,22.53,0,0,1,9-6.85,30,30,0,0,1,12.42-2.53q10.73,0,16.81,5.37t6.32,14.77v28.58q0,8.55,2.18,13.59v.92Zm-17.61-8.09a18.69,18.69,0,0,0,9.47-2.58,15.64,15.64,0,0,0,6.48-6.71v-12.74h-8.32q-19.5,0-19.51,11.42a9.64,9.64,0,0,0,3.33,7.8A12.77,12.77,0,0,0,871.93,1459.77Z"/>
        <path class="cls-1" d="M934.58,1405.78l.34,7.8a22.64,22.64,0,0,1,18.59-8.95q19.68,0,19.85,22.21v41H962.75v-41.08q-.06-6.71-3.07-9.93t-9.38-3.21a15.31,15.31,0,0,0-9.07,2.76,18.63,18.63,0,0,0-6.08,7.22v44.24H924.54v-62.08Z"/>
        <path class="cls-1" d="M1013.17,1390.75v15h11.59V1414h-11.59v38.54a8.67,8.67,0,0,0,1.55,5.61c1,1.24,2.79,1.86,5.28,1.86a25.58,25.58,0,0,0,5-.69v8.56a31,31,0,0,1-8.15,1.14q-7.11,0-10.73-4.3t-3.61-12.22V1414h-11.3v-8.21h11.3v-15Z"/>
        <path class="cls-1" d="M1046.62,1389.31a6.35,6.35,0,0,1,1.57-4.36,7.07,7.07,0,0,1,9.38,0,6.24,6.24,0,0,1,1.61,4.36,6,6,0,0,1-1.61,4.31,6.13,6.13,0,0,1-4.7,1.72,6.07,6.07,0,0,1-4.68-1.72A6.15,6.15,0,0,1,1046.62,1389.31Zm11.47,78.55h-10.61v-62.08h10.61Z"/>
        <path class="cls-1" d="M1109.38,1460.35a15.26,15.26,0,0,0,9.92-3.45,12.12,12.12,0,0,0,4.71-8.6h10a19.29,19.29,0,0,1-3.67,10.15,24.12,24.12,0,0,1-9,7.69,26.1,26.1,0,0,1-12,2.87q-12.69,0-20.17-8.46t-7.49-23.15v-1.78a37.38,37.38,0,0,1,3.33-16.13,25.43,25.43,0,0,1,9.55-11,27.16,27.16,0,0,1,14.72-3.9q10.44,0,17.36,6.26a22.35,22.35,0,0,1,7.37,16.23h-10a14.66,14.66,0,0,0-4.56-9.89,14.21,14.21,0,0,0-10.13-3.88q-8.08,0-12.54,5.83t-4.44,16.84v2q0,10.73,4.41,16.52T1109.38,1460.35Z"/>
        <path class="cls-1" d="M14.49,1569.2l27.31,68.16,27.31-68.16H83.4v83.54h-11v-32.53l1-35.12L46,1652.74H37.55l-27.37-67.47,1.09,34.94v32.53H.26V1569.2Z"/>
        <path class="cls-1" d="M107.77,1621.13a36.69,36.69,0,0,1,3.59-16.41,26.78,26.78,0,0,1,10-11.25,27.18,27.18,0,0,1,14.6-4q12.69,0,20.52,8.78t7.83,23.35v.75a37.07,37.07,0,0,1-3.47,16.27,26.36,26.36,0,0,1-9.93,11.21,27.47,27.47,0,0,1-14.83,4q-12.63,0-20.46-8.78t-7.83-23.24Zm10.67,1.26q0,10.32,4.8,16.58a16.22,16.22,0,0,0,25.67-.08q4.77-6.35,4.76-17.76,0-10.22-4.84-16.56a15.45,15.45,0,0,0-12.89-6.34,15.25,15.25,0,0,0-12.68,6.26Q118.45,1610.75,118.44,1622.39Z"/>
        <path class="cls-1" d="M184.42,1621.18q0-14.28,6.77-23a21.41,21.41,0,0,1,17.73-8.69q10.91,0,17.27,7.46v-32.36H236.8v88.13h-9.75l-.52-6.65q-6.36,7.8-17.73,7.8-10.78,0-17.58-8.84t-6.8-23.06Zm10.61,1.21q0,10.56,4.36,16.52a14.11,14.11,0,0,0,12.05,6q10.09,0,14.75-9.06V1607.3q-4.77-8.77-14.63-8.78a14.18,14.18,0,0,0-12.17,6Q195,1610.57,195,1622.39Z"/>
        <path class="cls-1" d="M288.43,1653.89q-12.62,0-20.54-8.29T260,1623.42v-2A37.23,37.23,0,0,1,263.5,1605a27.54,27.54,0,0,1,9.87-11.37,24.86,24.86,0,0,1,13.74-4.1q12.11,0,18.82,8t6.71,22.83v4.42H270.59q.23,9.18,5.36,14.83a16.88,16.88,0,0,0,13.06,5.66,18.49,18.49,0,0,0,9.52-2.3,24,24,0,0,0,6.83-6.08l6.48,5.05Q304,1653.89,288.43,1653.89Zm-1.32-55.66a14.13,14.13,0,0,0-10.78,4.68q-4.36,4.68-5.4,13.11H302v-.8c-.31-5.4-1.76-9.57-4.36-12.54A13.35,13.35,0,0,0,287.11,1598.23Z"/>
        <path class="cls-1" d="M345.86,1652.74H335.24v-88.13h10.62Z"/>
        <path class="cls-1" d="M372.3,1574.19a6.35,6.35,0,0,1,1.58-4.36,5.94,5.94,0,0,1,4.67-1.78,6,6,0,0,1,4.71,1.78,6.28,6.28,0,0,1,1.61,4.36,6.09,6.09,0,0,1-1.61,4.31,6.16,6.16,0,0,1-4.71,1.72,6,6,0,0,1-4.67-1.72A6.16,6.16,0,0,1,372.3,1574.19Zm11.48,78.55H373.16v-62.08h10.62Z"/>
        <path class="cls-1" d="M420.2,1590.66l.35,7.8a22.62,22.62,0,0,1,18.59-9q19.67,0,19.85,22.21v41H448.37v-41.08c0-4.48-1.06-7.78-3.07-9.93s-5.13-3.21-9.38-3.21a15.35,15.35,0,0,0-9.06,2.75,18.76,18.76,0,0,0-6.09,7.23v44.24H410.16v-62.08Z"/>
        <path class="cls-1" d="M481.87,1621.18q0-14.51,6.72-23.09a21.45,21.45,0,0,1,17.78-8.58q11.36,0,17.73,8l.52-6.89h9.69v60.59q0,12-7.14,19T508,1677.18a31.93,31.93,0,0,1-13.14-2.86,22.59,22.59,0,0,1-9.81-7.87l5.5-6.36q6.84,8.43,16.7,8.43,7.75,0,12.08-4.36t4.33-12.28v-5.34q-6.36,7.35-17.38,7.35a21.23,21.23,0,0,1-17.65-8.78Q481.88,1636.34,481.87,1621.18Zm10.67,1.21q0,10.5,4.31,16.5a14,14,0,0,0,12,6q10,0,14.74-9.12v-28.35q-4.87-8.9-14.63-8.89a14.12,14.12,0,0,0-12.11,6Q492.55,1610.57,492.54,1622.39Z"/>
        <path class="cls-1" d="M646,1615.85H610.89v36.89h-11V1569.2h51.75v9H610.89v28.63H646Z"/>
        <path class="cls-1" d="M701.08,1600.18a32.75,32.75,0,0,0-5.22-.4q-10.44,0-14.17,8.9v44.06H671.07v-62.08H681.4l.17,7.17q5.22-8.31,14.81-8.32a10.75,10.75,0,0,1,4.7.81Z"/>
        <path class="cls-1" d="M756.27,1652.74a22.22,22.22,0,0,1-1.49-6.54,23.69,23.69,0,0,1-17.68,7.69q-9.18,0-15.06-5.19a16.8,16.8,0,0,1-5.88-13.17q0-9.71,7.37-15.06t20.75-5.37H754.6v-4.87a12,12,0,0,0-3.32-8.87q-3.33-3.3-9.82-3.3a15.49,15.49,0,0,0-9.52,2.87,8.46,8.46,0,0,0-3.84,6.94H717.42a14.65,14.65,0,0,1,3.3-9,22.6,22.6,0,0,1,8.95-6.85,30,30,0,0,1,12.43-2.53q10.73,0,16.81,5.37t6.31,14.77v28.58q0,8.55,2.18,13.59v.92Zm-17.62-8.09a18.66,18.66,0,0,0,9.47-2.58,15.64,15.64,0,0,0,6.48-6.71v-12.74h-8.32q-19.5,0-19.5,11.42a9.68,9.68,0,0,0,3.32,7.8A12.82,12.82,0,0,0,738.65,1644.65Z"/>
        <path class="cls-1" d="M801.24,1590.66l.29,6.89q6.83-8,18.42-8,13,0,17.73,10a23.33,23.33,0,0,1,8.06-7.23,23.77,23.77,0,0,1,11.73-2.76q20.43,0,20.77,21.63v41.6H867.63v-41q0-6.64-3-10t-10.22-3.3a14.08,14.08,0,0,0-9.81,3.53,14.31,14.31,0,0,0-4.53,9.5v41.19H829.36v-40.68q0-13.55-13.26-13.54-10.44,0-14.28,8.89v45.33H791.2v-62.08Z"/>
        <path class="cls-1" d="M929.41,1653.89q-12.61,0-20.54-8.29T901,1623.42v-2a37.23,37.23,0,0,1,3.52-16.49,27.68,27.68,0,0,1,9.87-11.37,24.86,24.86,0,0,1,13.74-4.1q12.12,0,18.82,8t6.72,22.83v4.42H911.57q.23,9.18,5.36,14.83a16.88,16.88,0,0,0,13.06,5.66,18.47,18.47,0,0,0,9.52-2.3,24,24,0,0,0,6.83-6.08l6.48,5.05Q945,1653.89,929.41,1653.89Zm-1.32-55.66a14.13,14.13,0,0,0-10.78,4.68q-4.37,4.68-5.4,13.11H943v-.8c-.3-5.4-1.76-9.57-4.36-12.54A13.35,13.35,0,0,0,928.09,1598.23Z"/>
        <path class="cls-1" d="M1030.27,1638.11l11.94-47.45h10.61l-18.07,62.08h-8.61l-15.09-47-14.69,47h-8.6l-18-62.08H980.3l12.22,46.48,14.46-46.48h8.55Z"/>
        <path class="cls-1" d="M1070.2,1621.13a36.69,36.69,0,0,1,3.58-16.41,26.73,26.73,0,0,1,10-11.25,27.15,27.15,0,0,1,14.6-4q12.68,0,20.51,8.78t7.83,23.35v.75a36.93,36.93,0,0,1-3.47,16.27,26.28,26.28,0,0,1-9.92,11.21,27.49,27.49,0,0,1-14.83,4q-12.63,0-20.46-8.78t-7.83-23.24Zm10.67,1.26q0,10.32,4.79,16.58a16.23,16.23,0,0,0,25.68-.08q4.76-6.35,4.76-17.76,0-10.22-4.85-16.56a15.42,15.42,0,0,0-12.88-6.34,15.24,15.24,0,0,0-12.68,6.26Q1080.88,1610.75,1080.87,1622.39Z"/>
        <path class="cls-1" d="M1179.43,1600.18a32.56,32.56,0,0,0-5.22-.4q-10.44,0-14.17,8.9v44.06h-10.61v-62.08h10.32l.18,7.17q5.22-8.31,14.8-8.32a10.72,10.72,0,0,1,4.7.81Z"/>
        <path class="cls-1" d="M1215.92,1624l-6.66,6.94v21.8h-10.61v-88.13h10.61v53.3l5.68-6.82,19.34-20.43h12.91L1223,1616.59l27,36.15h-12.45Z"/>
      </g>
    </g>
  </g>
</svg>
