<svg xmlns="http://www.w3.org/2000/svg" width="1024" height="1024" viewBox="0 0 1024 1024">
  <defs>
    <style>
      .cls-1 {
        fill: #fff;
      }
    </style>
  </defs>
  <g id="Ebene_2" data-name="Ebene 2">
    <g>
      <g>
        <path class="cls-1" d="M58,742.5h225a326.08,326.08,0,0,1-94.11-184.77H4A505,505,0,0,0,58,742.5Z"/>
        <path class="cls-1" d="M1024,557.73H839.18A326.08,326.08,0,0,1,745.07,742.5H970A505,505,0,0,0,1024,557.73Z"/>
        <path class="cls-1" d="M121.73,838a513.64,513.64,0,0,0,784.54,0Z"/>
        <path class="cls-1" d="M188.82,462.27C212.1,304.36,349,182.73,514,182.73S815.9,304.36,839.18,462.27H1024C999.83,203,780.74,0,514,0S28.17,203,4,462.27Z"/>
      </g>
      <ellipse class="cls-1" cx="514" cy="510" rx="232.84" ry="231.82"/>
    </g>
  </g>
</svg>
