<svg xmlns="http://www.w3.org/2000/svg" width="1024" height="1024" viewBox="0 0 1024 1024">
  <defs>
    <style>
      .cls-1 {
        fill: #8298e0;
      }

      .cls-2 {
        fill: #8da5bf;
      }

      .cls-3 {
        fill: #995fab;
      }

      .cls-4 {
        fill: #f88d2b;
      }
    </style>
  </defs>
  <g id="Ebene_2" data-name="Ebene 2">
    <g>
      <g>
        <path class="cls-1" d="M56,744.48H280.94a326.16,326.16,0,0,1-94.1-184.76H2A504.87,504.87,0,0,0,56,744.48Z"/>
        <path class="cls-1" d="M1022,559.72H837.16a326.16,326.16,0,0,1-94.1,184.76H968A504.87,504.87,0,0,0,1022,559.72Z"/>
        <path class="cls-2" d="M119.76,839.93a513.62,513.62,0,0,0,784.48,0Z"/>
        <path class="cls-3" d="M186.84,464.28C210.12,306.38,347,184.75,512,184.75S813.88,306.38,837.16,464.28H1022C997.79,205,778.72,2,512,2S26.21,205,2,464.28Z"/>
      </g>
      <ellipse class="cls-4" cx="512" cy="512" rx="232.82" ry="231.8"/>
    </g>
  </g>
</svg>
