<svg xmlns="http://www.w3.org/2000/svg" width="2477" height="1024.78" viewBox="0 0 2477 1024.78">
  <defs>
    <style>
      .cls-1 {
        fill: #ccc;
      }
    </style>
  </defs>
  <g id="Ebene_2" data-name="Ebene 2">
    <g>
      <path class="cls-1" d="M1362.62,344.87H1255.81v72.31h125.35v44.69h-181v-270h180.6V237h-125v64.34h106.81Z"/>
      <path class="cls-1" d="M1585.31,391q0-15.77-11.13-24.2t-40-17.8q-28.92-9.36-45.8-18.45-46-24.85-46-66.94a65.2,65.2,0,0,1,12.33-39q12.33-17.16,35.41-26.8t51.83-9.64q28.92,0,51.55,10.48t35.14,29.57q12.51,19.11,12.51,43.39h-55.63q0-18.54-11.68-28.83T1541,232.5q-20.4,0-31.7,8.62A27.19,27.19,0,0,0,1498,263.84q0,13.16,13.26,22.06t39,16.69q47.48,14.28,69.17,35.42t21.69,52.66q0,35-26.51,55t-71.39,19.94q-31.15,0-56.74-11.41t-39-31.24q-13.46-19.85-13.45-46h55.82q0,44.7,53.4,44.69,19.83,0,31-8.06T1585.31,391Z"/>
      <path class="cls-1" d="M1776.85,191.89l69.34,195.81,69-195.81h73.06v270h-55.81v-73.8L1938,260.68l-72.87,201.19h-38.2l-72.69-201,5.57,127.2v73.8h-55.63v-270Z"/>
      <path class="cls-1" d="M2235.66,351.54h-106.8V461.87h-55.63v-270H2249V237H2128.86v69.72h106.8Z"/>
      <g>
        <path class="cls-1" d="M1251.75,606.91h-36.87v30.16h42.83v9.17h-54V561.16h53.47v9.17h-42.25v27.41h36.87Z"/>
        <path class="cls-1" d="M1303.81,638.58a15.58,15.58,0,0,0,10.11-3.5,12.38,12.38,0,0,0,4.79-8.77h10.22a19.57,19.57,0,0,1-3.74,10.35,24.65,24.65,0,0,1-9.2,7.83,26.66,26.66,0,0,1-12.18,2.92q-12.91,0-20.54-8.62t-7.63-23.58V613.4A38.07,38.07,0,0,1,1279,597a25.81,25.81,0,0,1,9.73-11.16,27.63,27.63,0,0,1,15-4q10.63,0,17.67,6.37a22.71,22.71,0,0,1,7.51,16.53h-10.22a14.92,14.92,0,0,0-4.65-10.08,14.43,14.43,0,0,0-10.31-3.94q-8.24,0-12.77,5.93t-4.53,17.15v2q0,10.93,4.5,16.83T1303.81,638.58Z"/>
        <path class="cls-1" d="M1362.41,646.24H1351.6V556.49h10.81Z"/>
        <path class="cls-1" d="M1389.34,566.24a6.46,6.46,0,0,1,1.6-4.44,6.06,6.06,0,0,1,4.76-1.81,6.18,6.18,0,0,1,4.8,1.81,6.44,6.44,0,0,1,1.63,4.44,5.84,5.84,0,0,1-6.43,6.14,6.13,6.13,0,0,1-4.76-1.75A6.25,6.25,0,0,1,1389.34,566.24Zm11.68,80h-10.81V583H1401Z"/>
        <path class="cls-1" d="M1481.3,615.33q0,14.43-6.6,23.25a21.17,21.17,0,0,1-17.88,8.83q-11.52,0-18.12-7.31v30.45h-10.81V583h9.88l.52,7q6.6-8.19,18.35-8.18,11.4,0,18,8.59t6.63,23.89Zm-10.81-1.23q0-10.7-4.56-16.89a14.7,14.7,0,0,0-12.5-6.19q-9.83,0-14.73,8.71v30.21q4.85,8.64,14.84,8.64a14.61,14.61,0,0,0,12.36-6.16Q1470.49,626.25,1470.49,614.1Z"/>
        <path class="cls-1" d="M1541.42,629.47a8,8,0,0,0-3.3-6.81q-3.3-2.42-11.51-4.18a54.42,54.42,0,0,1-13-4.2,18.7,18.7,0,0,1-7.13-5.85,14,14,0,0,1-2.3-8.06q0-7.77,6.57-13.15t16.8-5.37q10.76,0,17.45,5.55a17.65,17.65,0,0,1,6.68,14.2h-10.86a9.79,9.79,0,0,0-3.77-7.66,14.15,14.15,0,0,0-9.5-3.21c-3.94,0-7,.86-9.23,2.57A8.1,8.1,0,0,0,1515,600a6.54,6.54,0,0,0,3.1,5.9q3.09,2,11.18,3.8a58.63,58.63,0,0,1,13.12,4.32,19.11,19.11,0,0,1,7.45,6.05,14.86,14.86,0,0,1,2.43,8.62,16.19,16.19,0,0,1-6.78,13.59q-6.78,5.1-17.59,5.11a31.9,31.9,0,0,1-13.44-2.69,21.81,21.81,0,0,1-9.14-7.51,18.09,18.09,0,0,1-3.3-10.43h10.81a11.17,11.17,0,0,0,4.35,8.62q4.06,3.18,10.72,3.18,6.14,0,9.85-2.48A7.62,7.62,0,0,0,1541.42,629.47Z"/>
        <path class="cls-1" d="M1602.12,647.41q-12.86,0-20.92-8.45t-8.06-22.58v-2a37.89,37.89,0,0,1,3.59-16.8,28.17,28.17,0,0,1,10-11.57,25.32,25.32,0,0,1,14-4.17q12.32,0,19.16,8.12t6.84,23.25v4.5H1584q.22,9.36,5.46,15.11a17.17,17.17,0,0,0,13.3,5.75,18.86,18.86,0,0,0,9.7-2.33,24.59,24.59,0,0,0,6.95-6.2l6.6,5.15Q1618,647.41,1602.12,647.41Zm-1.34-56.68a14.4,14.4,0,0,0-11,4.76q-4.44,4.77-5.49,13.35H1616V608q-.46-8.24-4.44-12.77A13.59,13.59,0,0,0,1600.78,590.73Z"/>
        <path class="cls-1" d="M1714.82,608.32q-14.43-4.16-21-10.2a19.46,19.46,0,0,1-6.58-14.93,20.58,20.58,0,0,1,8-16.62q8-6.59,20.89-6.58a34.88,34.88,0,0,1,15.64,3.39,25.75,25.75,0,0,1,10.63,9.35,23.93,23.93,0,0,1,3.77,13h-11.28q0-7.74-4.91-12.17t-13.85-4.42q-8.29,0-12.94,3.66a12.2,12.2,0,0,0-4.64,10.15,11,11,0,0,0,4.41,8.81q4.41,3.6,15,6.59T1734.6,605a25.3,25.3,0,0,1,8.88,8.39,21.42,21.42,0,0,1,2.89,11.28,19.85,19.85,0,0,1-8.06,16.56q-8.07,6.24-21.56,6.23a40,40,0,0,1-16.36-3.36,27.51,27.51,0,0,1-11.72-9.21,22.4,22.4,0,0,1-4.12-13.26h11.28a14.68,14.68,0,0,0,5.7,12.19q5.68,4.46,15.22,4.46,8.88,0,13.61-3.62a11.74,11.74,0,0,0,4.74-9.87q0-6.25-4.39-9.67T1714.82,608.32Z"/>
        <path class="cls-1" d="M1794.86,647.41q-12.85,0-20.91-8.45t-8.07-22.58v-2a37.9,37.9,0,0,1,3.6-16.8,28,28,0,0,1,10-11.57,25.29,25.29,0,0,1,14-4.17q12.33,0,19.17,8.12t6.83,23.25v4.5h-42.83q.24,9.36,5.46,15.11a17.17,17.17,0,0,0,13.3,5.75,18.81,18.81,0,0,0,9.7-2.33,24.32,24.32,0,0,0,6.95-6.2l6.61,5.15Q1810.76,647.41,1794.86,647.41Zm-1.34-56.68a14.38,14.38,0,0,0-11,4.76q-4.45,4.77-5.5,13.35h31.67V608q-.46-8.24-4.44-12.77A13.59,13.59,0,0,0,1793.52,590.73Z"/>
        <path class="cls-1" d="M1851.77,583l.29,7q7-8.19,18.76-8.18,13.26,0,18,10.16A23.51,23.51,0,0,1,1909,581.85q20.81,0,21.16,22v42.36h-10.81V604.52q0-6.78-3.1-10.14t-10.4-3.36a14.3,14.3,0,0,0-10,3.6,14.55,14.55,0,0,0-4.62,9.66v42H1880.4V604.81q0-13.78-13.5-13.79-10.64,0-14.55,9.06v46.16h-10.81V583Z"/>
        <path class="cls-1" d="M1995.1,646.24a22.23,22.23,0,0,1-1.52-6.66,24.14,24.14,0,0,1-18,7.83q-9.35,0-15.34-5.29a17.12,17.12,0,0,1-6-13.41q0-9.87,7.51-15.34t21.12-5.46h10.52v-5a12.14,12.14,0,0,0-3.39-9q-3.39-3.36-10-3.36a15.81,15.81,0,0,0-9.7,2.92q-3.91,2.92-3.91,7.07h-10.87a14.91,14.91,0,0,1,3.36-9.14,22.93,22.93,0,0,1,9.11-7,30.6,30.6,0,0,1,12.65-2.57q10.93,0,17.12,5.46t6.43,15.05v29.1q0,8.7,2.22,13.84v.94ZM1977.16,638a19,19,0,0,0,9.64-2.63,15.83,15.83,0,0,0,6.6-6.84v-13h-8.47q-19.87,0-19.87,11.63a9.85,9.85,0,0,0,3.39,7.95A13,13,0,0,0,1977.16,638Z"/>
        <path class="cls-1" d="M2041,583l.35,8a23,23,0,0,1,18.93-9.11q20,0,20.22,22.61v41.78h-10.81V604.4c0-4.56-1.08-7.92-3.13-10.11S2061.29,591,2057,591a15.63,15.63,0,0,0-9.23,2.8,19,19,0,0,0-6.2,7.37v45h-10.81V583Z"/>
        <path class="cls-1" d="M2121,567.71V583h11.8v8.36H2121v39.26c0,2.53.52,4.44,1.58,5.7s2.84,1.9,5.37,1.9a25.9,25.9,0,0,0,5.14-.7v8.72a31.67,31.67,0,0,1-8.29,1.16q-7.25,0-10.93-4.38c-2.45-2.93-3.68-7.07-3.68-12.45V591.37h-11.51V583h11.51v-15.3Z"/>
        <path class="cls-1" d="M2155.06,566.24a6.46,6.46,0,0,1,1.6-4.44,6.06,6.06,0,0,1,4.77-1.81,6.17,6.17,0,0,1,4.79,1.81,6.39,6.39,0,0,1,1.63,4.44,6.18,6.18,0,0,1-1.63,4.39,6.25,6.25,0,0,1-4.79,1.75,6.14,6.14,0,0,1-4.77-1.75A6.25,6.25,0,0,1,2155.06,566.24Zm11.68,80h-10.81V583h10.81Z"/>
        <path class="cls-1" d="M2219,638.58a15.54,15.54,0,0,0,10.11-3.5,12.34,12.34,0,0,0,4.79-8.77h10.23a19.66,19.66,0,0,1-3.74,10.35,24.73,24.73,0,0,1-9.2,7.83,26.67,26.67,0,0,1-12.19,2.92q-12.91,0-20.54-8.62t-7.62-23.58V613.4A38.07,38.07,0,0,1,2194.2,597a25.75,25.75,0,0,1,9.73-11.16,27.6,27.6,0,0,1,15-4q10.64,0,17.68,6.37a22.74,22.74,0,0,1,7.51,16.53h-10.23a14.91,14.91,0,0,0-4.64-10.08,14.47,14.47,0,0,0-10.32-3.94q-8.23,0-12.76,5.93t-4.53,17.15v2q0,10.93,4.5,16.83T2219,638.58Z"/>
        <path class="cls-1" d="M1219.23,736.36,1247,805.78l27.81-69.42h14.55v85.08h-11.22V788.31l1.06-35.76-27.94,68.89h-8.58l-27.88-68.72,1.11,35.59v33.13h-11.22V736.36Z"/>
        <path class="cls-1" d="M1314.23,789.24a37.42,37.42,0,0,1,3.65-16.71,27.22,27.22,0,0,1,10.17-11.45,27.65,27.65,0,0,1,14.87-4q12.91,0,20.89,8.94t8,23.78v.76a37.63,37.63,0,0,1-3.53,16.57,26.94,26.94,0,0,1-10.11,11.42,28,28,0,0,1-15.1,4.09q-12.87,0-20.84-8.94t-8-23.67Zm10.87,1.29q0,10.51,4.88,16.89a16.52,16.52,0,0,0,26.14-.09q4.86-6.47,4.85-18.09,0-10.4-4.93-16.85a15.7,15.7,0,0,0-13.12-6.46A15.5,15.5,0,0,0,1330,772.3Q1325.09,778.68,1325.1,790.53Z"/>
        <path class="cls-1" d="M1392.29,789.3q0-14.55,6.89-23.4a21.81,21.81,0,0,1,18.06-8.85q11.1,0,17.59,7.59V731.69h10.81v89.75h-9.94l-.52-6.78q-6.5,8-18.06,8-11,0-17.91-9t-6.92-23.49Zm10.81,1.23q0,10.76,4.44,16.83a14.35,14.35,0,0,0,12.27,6.07q10.28,0,15-9.23v-29q-4.86-8.94-14.91-8.94a14.42,14.42,0,0,0-12.38,6.14Q1403.1,778.5,1403.1,790.53Z"/>
        <path class="cls-1" d="M1498.22,822.61q-12.87,0-20.92-8.45t-8.07-22.58v-2a37.9,37.9,0,0,1,3.6-16.8,28,28,0,0,1,10.05-11.57,25.29,25.29,0,0,1,14-4.17q12.33,0,19.17,8.12t6.83,23.26v4.49H1480q.24,9.36,5.47,15.11a17.14,17.14,0,0,0,13.29,5.76,18.81,18.81,0,0,0,9.7-2.34,24.17,24.17,0,0,0,7-6.2l6.61,5.15Q1514.11,822.61,1498.22,822.61Zm-1.35-56.68a14.43,14.43,0,0,0-11,4.76q-4.46,4.77-5.5,13.35h31.67v-.82q-.46-8.24-4.44-12.76A13.57,13.57,0,0,0,1496.87,765.93Z"/>
        <path class="cls-1" d="M1556.7,821.44h-10.81V731.69h10.81Z"/>
        <path class="cls-1" d="M1583.63,741.45a6.43,6.43,0,0,1,1.61-4.45,6,6,0,0,1,4.76-1.81,6.15,6.15,0,0,1,4.79,1.81,6.4,6.4,0,0,1,1.63,4.45,6.4,6.4,0,1,1-12.79,0Zm11.68,80H1584.5V758.22h10.81Z"/>
        <path class="cls-1" d="M1632.41,758.22l.35,7.94a23.05,23.05,0,0,1,18.93-9.11q20,0,20.22,22.61v41.78H1661.1V779.6c0-4.56-1.08-7.92-3.12-10.11s-5.24-3.27-9.56-3.27a15.59,15.59,0,0,0-9.23,2.81,19,19,0,0,0-6.2,7.36v45.05h-10.81V758.22Z"/>
        <path class="cls-1" d="M1695.22,789.3q0-14.77,6.83-23.52a21.88,21.88,0,0,1,18.12-8.73q11.57,0,18,8.18l.53-7h9.87v61.7q0,12.27-7.27,19.34t-19.55,7.07a32.49,32.49,0,0,1-13.38-2.92,23.13,23.13,0,0,1-10-8l5.61-6.49q6.95,8.6,17,8.59,7.89,0,12.3-4.44t4.42-12.51v-5.43q-6.49,7.49-17.71,7.48a21.61,21.61,0,0,1-18-8.94Q1695.21,804.73,1695.22,789.3Zm10.86,1.23q0,10.69,4.39,16.8a14.23,14.23,0,0,0,12.27,6.1q10.21,0,15-9.29V775.28q-5-9.06-14.91-9.06a14.35,14.35,0,0,0-12.32,6.14Q1706.07,778.5,1706.08,790.53Z"/>
        <path class="cls-1" d="M1862.32,783.87h-35.71v37.57h-11.22V736.36h52.71v9.18h-41.49v29.15h35.71Z"/>
        <path class="cls-1" d="M1918.46,767.92a31.58,31.58,0,0,0-5.32-.41q-10.64,0-14.43,9v44.88H1887.9V758.22h10.52l.17,7.3q5.33-8.47,15.08-8.47a11.14,11.14,0,0,1,4.79.81Z"/>
        <path class="cls-1" d="M1974.66,821.44a22.62,22.62,0,0,1-1.51-6.66,24.14,24.14,0,0,1-18,7.83q-9.36,0-15.34-5.29a17.12,17.12,0,0,1-6-13.41q0-9.87,7.51-15.34t21.12-5.46H1973v-5a12.14,12.14,0,0,0-3.39-9q-3.39-3.36-10-3.36a15.81,15.81,0,0,0-9.7,2.92q-3.92,2.93-3.92,7.08h-10.86a14.86,14.86,0,0,1,3.36-9.15,22.86,22.86,0,0,1,9.11-7,30.57,30.57,0,0,1,12.65-2.57q10.92,0,17.12,5.46t6.43,15v29.1q0,8.7,2.22,13.85v.93Zm-17.93-8.24a19.05,19.05,0,0,0,9.64-2.63,15.89,15.89,0,0,0,6.6-6.84v-13h-8.47q-19.87,0-19.87,11.63a9.85,9.85,0,0,0,3.39,8A13,13,0,0,0,1956.73,813.2Z"/>
        <path class="cls-1" d="M2020.47,758.22l.29,7q6.95-8.19,18.76-8.18,13.26,0,18.05,10.16a23.51,23.51,0,0,1,20.16-10.16q20.8,0,21.15,22v42.36h-10.81V779.72q0-6.78-3.09-10.14t-10.4-3.36a14.33,14.33,0,0,0-10,3.6,14.54,14.54,0,0,0-4.61,9.67v42H2049.1V780q0-13.78-13.5-13.79-10.63,0-14.55,9.06v46.16h-10.81V758.22Z"/>
        <path class="cls-1" d="M2151,822.61q-12.86,0-20.92-8.45T2122,791.58v-2a37.9,37.9,0,0,1,3.6-16.8,28,28,0,0,1,10-11.57,25.29,25.29,0,0,1,14-4.17q12.33,0,19.17,8.12t6.84,23.26v4.49h-42.84q.24,9.36,5.47,15.11a17.16,17.16,0,0,0,13.29,5.76,18.81,18.81,0,0,0,9.7-2.34,24.34,24.34,0,0,0,7-6.2l6.6,5.15Q2166.89,822.61,2151,822.61Zm-1.35-56.68a14.43,14.43,0,0,0-11,4.76q-4.44,4.77-5.49,13.35h31.67v-.82q-.48-8.24-4.44-12.76A13.6,13.6,0,0,0,2149.65,765.93Z"/>
        <path class="cls-1" d="M2253.71,806.54l12.16-48.32h10.81l-18.41,63.22h-8.76l-15.37-47.92-15,47.92h-8.77l-18.34-63.22h10.75l12.44,47.33L2230,758.22h8.71Z"/>
        <path class="cls-1" d="M2294.37,789.24a37.42,37.42,0,0,1,3.65-16.71,27.36,27.36,0,0,1,10.17-11.45,27.67,27.67,0,0,1,14.87-4q12.92,0,20.89,8.94t8,23.78v.76a37.63,37.63,0,0,1-3.54,16.57,26.86,26.86,0,0,1-10.1,11.42,28,28,0,0,1-15.11,4.09q-12.85,0-20.83-8.94t-8-23.67Zm10.87,1.29q0,10.51,4.88,16.89a16.53,16.53,0,0,0,26.15-.09q4.84-6.47,4.85-18.09,0-10.4-4.94-16.85a15.68,15.68,0,0,0-13.12-6.46,15.51,15.51,0,0,0-12.91,6.37Q2305.25,778.68,2305.24,790.53Z"/>
        <path class="cls-1" d="M2405.62,767.92a31.58,31.58,0,0,0-5.32-.41q-10.64,0-14.43,9v44.88h-10.81V758.22h10.52l.17,7.3q5.33-8.47,15.08-8.47a11.14,11.14,0,0,1,4.79.81Z"/>
        <path class="cls-1" d="M2442.78,792.17l-6.78,7.07v22.2h-10.81V731.69H2436V786l5.78-7,19.69-20.8h13.15L2450,784.63l27.47,36.81h-12.68Z"/>
      </g>
      <g>
        <g>
          <path class="cls-1" d="M54.17,746.19H280a327.42,327.42,0,0,1-94.48-185.5H0A507,507,0,0,0,54.17,746.19Z"/>
          <path class="cls-1" d="M1024,560.69H838.46A327.42,327.42,0,0,1,744,746.19H969.83A507,507,0,0,0,1024,560.69Z"/>
          <path class="cls-1" d="M118.2,842a515.65,515.65,0,0,0,787.6,0Z"/>
          <path class="cls-1" d="M185.54,464.86C208.91,306.33,346.38,184.22,512,184.22S815.09,306.33,838.46,464.86H1024C999.73,204.56,779.79.78,512,.78S24.27,204.56,0,464.86Z"/>
        </g>
        <ellipse class="cls-1" cx="512" cy="512.78" rx="233.75" ry="232.73"/>
      </g>
    </g>
  </g>
</svg>
