<svg xmlns="http://www.w3.org/2000/svg" width="1250" height="1678" viewBox="0 0 1250 1678">
  <defs>
    <style>
      .cls-1 {
        fill: #ccc;
      }
    </style>
  </defs>
  <g id="Ebene_2" data-name="Ebene 2">
    <g>
      <g>
        <path class="cls-1" d="M397.65,1209.55H331.3v44.93h77.87v27.77H296.74V1114.51h112.2v28H331.3v40h66.35Z"/>
        <path class="cls-1" d="M535.3,1238.24q0-9.79-6.91-15t-24.88-11.06q-18-5.82-28.46-11.47-28.57-15.43-28.57-41.58a40.48,40.48,0,0,1,7.66-24.25q7.67-10.66,22-16.65a82.85,82.85,0,0,1,32.19-6q18,0,32,6.51a51,51,0,0,1,21.83,18.37,48.15,48.15,0,0,1,7.78,27H535.42q0-11.52-7.26-17.91t-20.39-6.4q-12.67,0-19.7,5.36a16.89,16.89,0,0,0-7,14.11q0,8.19,8.24,13.71t24.25,10.37q29.49,8.87,43,22T570,1238q0,21.77-16.48,34.16t-44.35,12.38a85.55,85.55,0,0,1-35.25-7.09q-15.9-7.08-24.25-19.41t-8.35-28.57H476q0,27.76,33.18,27.77,12.33,0,19.24-5T535.3,1238.24Z"/>
        <path class="cls-1" d="M657.39,1114.51l43.09,121.66,42.85-121.66h45.39v167.74H754.05V1236.4l3.45-79.15-45.27,125H688.5l-45.16-124.88,3.45,79v45.85H612.23V1114.51Z"/>
        <path class="cls-1" d="M938.7,1213.7H872.34v68.55H837.78V1114.51H947v28H872.34v43.31H938.7Z"/>
      </g>
      <g>
        <g>
          <path class="cls-1" d="M166.17,741.28H390.79a325.69,325.69,0,0,1-94-184.5H112.29A504.4,504.4,0,0,0,166.17,741.28Z"/>
          <path class="cls-1" d="M1130.75,556.78H946.22a325.7,325.7,0,0,1-94,184.5h224.63A504.19,504.19,0,0,0,1130.75,556.78Z"/>
          <path class="cls-1" d="M229.85,836.59a512.87,512.87,0,0,0,783.35,0Z"/>
          <path class="cls-1" d="M296.83,461.47c23.24-157.67,160-279.12,324.69-279.12S923,303.8,946.22,461.47h184.53C1106.62,202.58,887.86-.11,621.52-.11S136.43,202.58,112.29,461.47Z"/>
        </g>
        <ellipse class="cls-1" cx="621.52" cy="509.13" rx="232.49" ry="231.47"/>
      </g>
      <g>
        <path class="cls-1" d="M159.57,1429.34H123.36V1459h42.06v9H112.35v-83.54h52.5v9H123.36v26.91h36.21Z"/>
        <path class="cls-1" d="M210.69,1460.44a15.25,15.25,0,0,0,9.92-3.45,12.08,12.08,0,0,0,4.71-8.6h10a19.17,19.17,0,0,1-3.67,10.15,24.12,24.12,0,0,1-9,7.69,26,26,0,0,1-12,2.87q-12.69,0-20.17-8.46T183,1437.49v-1.78a37.38,37.38,0,0,1,3.33-16.13,25.43,25.43,0,0,1,9.55-11,27.16,27.16,0,0,1,14.72-3.9q10.44,0,17.36,6.26a22.32,22.32,0,0,1,7.37,16.23h-10a14.66,14.66,0,0,0-4.56-9.89,14.17,14.17,0,0,0-10.13-3.88q-8.08,0-12.54,5.83t-4.44,16.84v2q0,10.73,4.42,16.52T210.69,1460.44Z"/>
        <path class="cls-1" d="M268.23,1468H257.62v-88.13h10.61Z"/>
        <path class="cls-1" d="M294.68,1389.4a6.35,6.35,0,0,1,1.57-4.36,5.91,5.91,0,0,1,4.68-1.78,6,6,0,0,1,4.7,1.78,6.24,6.24,0,0,1,1.61,4.36,6,6,0,0,1-1.61,4.3,6.12,6.12,0,0,1-4.7,1.73,6,6,0,0,1-4.68-1.73A6.11,6.11,0,0,1,294.68,1389.4ZM306.15,1468H295.54v-62.08h10.61Z"/>
        <path class="cls-1" d="M385,1437.6q0,14.18-6.48,22.84a20.81,20.81,0,0,1-17.56,8.66q-11.31,0-17.79-7.17v29.89H332.54v-86h9.69l.52,6.88q6.48-8,18-8,11.19,0,17.7,8.44t6.51,23.46Zm-10.61-1.2q0-10.51-4.48-16.59a14.43,14.43,0,0,0-12.28-6.08q-9.63,0-14.46,8.55V1452a15.65,15.65,0,0,0,14.58,8.49,14.34,14.34,0,0,0,12.13-6.06Q374.36,1448.33,374.37,1436.4Z"/>
        <path class="cls-1" d="M444,1451.49a7.83,7.83,0,0,0-3.24-6.69c-2.17-1.59-5.93-3-11.31-4.1a53.78,53.78,0,0,1-12.79-4.13,18.19,18.19,0,0,1-7-5.74,13.67,13.67,0,0,1-2.27-7.92q0-7.64,6.45-12.91t16.5-5.28q10.56,0,17.13,5.45a17.34,17.34,0,0,1,6.57,13.95H443.39a9.6,9.6,0,0,0-3.7-7.52,13.91,13.91,0,0,0-9.33-3.16q-5.79,0-9.06,2.53a7.91,7.91,0,0,0-3.27,6.6,6.43,6.43,0,0,0,3,5.79q3,2,11,3.73a57.24,57.24,0,0,1,12.89,4.25,18.7,18.7,0,0,1,7.31,5.94,14.56,14.56,0,0,1,2.38,8.46,15.9,15.9,0,0,1-6.65,13.34q-6.66,5-17.27,5a31.23,31.23,0,0,1-13.2-2.64,21.39,21.39,0,0,1-9-7.37,17.79,17.79,0,0,1-3.24-10.24H415.9a11,11,0,0,0,4.28,8.46q4,3.14,10.53,3.13,6,0,9.66-2.44A7.51,7.51,0,0,0,444,1451.49Z"/>
        <path class="cls-1" d="M503.63,1469.1q-12.63,0-20.55-8.29t-7.91-22.18v-2a37.17,37.17,0,0,1,3.53-16.5,27.57,27.57,0,0,1,9.87-11.36,24.81,24.81,0,0,1,13.74-4.1q12.1,0,18.82,8t6.71,22.83V1440H485.78q.23,9.18,5.37,14.84a16.87,16.87,0,0,0,13.05,5.65,18.53,18.53,0,0,0,9.53-2.3,24,24,0,0,0,6.82-6.08l6.49,5Q519.24,1469.11,503.63,1469.1Zm-1.32-55.66a14.16,14.16,0,0,0-10.79,4.68q-4.36,4.68-5.39,13.11h31.1v-.8c-.31-5.4-1.76-9.57-4.36-12.54A13.38,13.38,0,0,0,502.31,1413.44Z"/>
        <path class="cls-1" d="M614.3,1430.71q-14.17-4.07-20.63-10a19.1,19.1,0,0,1-6.46-14.66,20.19,20.19,0,0,1,7.89-16.32q7.89-6.46,20.52-6.46a34.25,34.25,0,0,1,15.35,3.33,25.3,25.3,0,0,1,10.44,9.18,23.54,23.54,0,0,1,3.7,12.8H634q0-7.6-4.82-12t-13.59-4.35q-8.16,0-12.71,3.59a12,12,0,0,0-4.57,10,10.79,10.79,0,0,0,4.34,8.65Q607,1418,617.42,1421t16.3,6.46a24.75,24.75,0,0,1,8.72,8.24,21.06,21.06,0,0,1,2.84,11.07,19.52,19.52,0,0,1-7.92,16.27q-7.92,6.12-21.17,6.11a39.26,39.26,0,0,1-16.07-3.3,27,27,0,0,1-11.5-9,22.06,22.06,0,0,1-4-13h11.08a14.37,14.37,0,0,0,5.59,12q5.6,4.4,15,4.39,8.71,0,13.37-3.55a11.57,11.57,0,0,0,4.65-9.7,11.36,11.36,0,0,0-4.31-9.5Q625.6,1434,614.3,1430.71Z"/>
        <path class="cls-1" d="M692.9,1469.1q-12.63,0-20.55-8.29t-7.91-22.18v-2a37.17,37.17,0,0,1,3.53-16.5,27.57,27.57,0,0,1,9.87-11.36,24.81,24.81,0,0,1,13.74-4.1q12.1,0,18.82,8t6.71,22.83V1440H675.05q.23,9.18,5.37,14.84a16.87,16.87,0,0,0,13.05,5.65,18.53,18.53,0,0,0,9.53-2.3,24,24,0,0,0,6.82-6.08l6.49,5Q708.51,1469.11,692.9,1469.1Zm-1.32-55.66a14.16,14.16,0,0,0-10.79,4.68q-4.37,4.68-5.39,13.11h31.1v-.8c-.31-5.4-1.76-9.57-4.36-12.54A13.38,13.38,0,0,0,691.58,1413.44Z"/>
        <path class="cls-1" d="M748.78,1405.87l.28,6.88q6.84-8,18.42-8,13,0,17.73,10a23.45,23.45,0,0,1,8.07-7.23,23.74,23.74,0,0,1,11.73-2.76q20.43,0,20.77,21.63V1468H815.17v-41q0-6.64-3-10t-10.22-3.3a14.08,14.08,0,0,0-9.81,3.53,14.31,14.31,0,0,0-4.53,9.5V1468H776.89v-40.68q0-13.55-13.25-13.54-10.44,0-14.29,8.89V1468H738.73v-62.08Z"/>
        <path class="cls-1" d="M889.52,1468a22.22,22.22,0,0,1-1.49-6.54,23.67,23.67,0,0,1-17.67,7.69q-9.18,0-15.07-5.19a16.8,16.8,0,0,1-5.88-13.17q0-9.69,7.38-15.06t20.74-5.37h10.33v-4.87a11.93,11.93,0,0,0-3.33-8.87q-3.33-3.3-9.81-3.3a15.52,15.52,0,0,0-9.53,2.87,8.46,8.46,0,0,0-3.84,6.94H850.67a14.65,14.65,0,0,1,3.3-9,22.57,22.57,0,0,1,9-6.85,30,30,0,0,1,12.42-2.53q10.73,0,16.81,5.37t6.31,14.77v28.58q0,8.55,2.18,13.6v.91Zm-17.61-8.09a18.65,18.65,0,0,0,9.46-2.58,15.61,15.61,0,0,0,6.49-6.71v-12.74h-8.32q-19.51,0-19.51,11.42a9.64,9.64,0,0,0,3.33,7.8A12.73,12.73,0,0,0,871.91,1459.86Z"/>
        <path class="cls-1" d="M934.56,1405.87l.34,7.8a22.64,22.64,0,0,1,18.59-9q19.68,0,19.86,22.21v41H962.73v-41.08c0-4.48-1.06-7.78-3.07-9.93s-5.13-3.21-9.38-3.21a15.38,15.38,0,0,0-9.07,2.75,18.73,18.73,0,0,0-6.08,7.23V1468H924.52v-62.08Z"/>
        <path class="cls-1" d="M1013.16,1390.84v15h11.59v8.2h-11.59v38.55c0,2.5.51,4.36,1.55,5.61s2.79,1.86,5.28,1.86a25.77,25.77,0,0,0,5-.69V1468a31,31,0,0,1-8.15,1.14q-7.12,0-10.73-4.3t-3.62-12.22v-38.51h-11.3v-8.2h11.3v-15Z"/>
        <path class="cls-1" d="M1046.6,1389.4a6.35,6.35,0,0,1,1.58-4.36,5.91,5.91,0,0,1,4.68-1.78,6,6,0,0,1,4.7,1.78,6.28,6.28,0,0,1,1.61,4.36,6.05,6.05,0,0,1-1.61,4.3,6.12,6.12,0,0,1-4.7,1.73,6,6,0,0,1-4.68-1.73A6.12,6.12,0,0,1,1046.6,1389.4Zm11.48,78.55h-10.62v-62.08h10.62Z"/>
        <path class="cls-1" d="M1109.37,1460.44a15.25,15.25,0,0,0,9.92-3.45,12.08,12.08,0,0,0,4.71-8.6h10a19.17,19.17,0,0,1-3.67,10.15,24.12,24.12,0,0,1-9,7.69,26,26,0,0,1-12,2.87q-12.69,0-20.17-8.46t-7.49-23.15v-1.78a37.38,37.38,0,0,1,3.33-16.13,25.43,25.43,0,0,1,9.55-11,27.16,27.16,0,0,1,14.72-3.9q10.44,0,17.36,6.26a22.32,22.32,0,0,1,7.37,16.23h-10a14.66,14.66,0,0,0-4.56-9.89,14.17,14.17,0,0,0-10.13-3.88q-8.08,0-12.54,5.83t-4.44,16.84v2q0,10.73,4.42,16.52T1109.37,1460.44Z"/>
        <path class="cls-1" d="M14.41,1569.3l27.31,68.17L69,1569.3H83.32v83.55h-11v-32.54l1-35.12-27.43,67.66H37.48L10.1,1585.37l1.1,34.94v32.54H.18V1569.3Z"/>
        <path class="cls-1" d="M107.7,1621.23a36.56,36.56,0,0,1,3.59-16.41,26.71,26.71,0,0,1,10-11.25,27.18,27.18,0,0,1,14.6-4q12.69,0,20.52,8.78t7.83,23.36v.74a37,37,0,0,1-3.47,16.27,26.45,26.45,0,0,1-9.93,11.22,27.55,27.55,0,0,1-14.83,4q-12.63,0-20.46-8.78T107.7,1622Zm10.67,1.26q0,10.34,4.79,16.58a16.23,16.23,0,0,0,25.68-.08q4.77-6.35,4.76-17.76,0-10.21-4.84-16.56a15.45,15.45,0,0,0-12.89-6.34,15.25,15.25,0,0,0-12.68,6.26Q118.38,1610.85,118.37,1622.49Z"/>
        <path class="cls-1" d="M184.35,1621.29q0-14.3,6.77-23a21.44,21.44,0,0,1,17.73-8.69q10.91,0,17.27,7.46v-32.36h10.62v88.14H227l-.51-6.66q-6.37,7.8-17.73,7.8a21.21,21.21,0,0,1-17.59-8.83q-6.79-8.84-6.8-23.07Zm10.62,1.2q0,10.56,4.36,16.53a14.07,14.07,0,0,0,12,6q10.1,0,14.74-9.06V1607.4q-4.76-8.78-14.63-8.78a14.15,14.15,0,0,0-12.16,6Q195,1610.67,195,1622.49Z"/>
        <path class="cls-1" d="M288.37,1654q-12.62,0-20.54-8.29t-7.92-22.18v-2a37.26,37.26,0,0,1,3.53-16.49,27.54,27.54,0,0,1,9.87-11.37,24.86,24.86,0,0,1,13.74-4.1q12.1,0,18.82,8t6.72,22.84v4.41H270.53q.23,9.18,5.36,14.84a16.89,16.89,0,0,0,13.06,5.65,18.49,18.49,0,0,0,9.52-2.3,23.85,23.85,0,0,0,6.83-6.08l6.48,5Q304,1654,288.37,1654Zm-1.32-55.66a14.17,14.17,0,0,0-10.79,4.68q-4.35,4.68-5.39,13.11H302v-.8c-.3-5.4-1.76-9.57-4.36-12.54A13.35,13.35,0,0,0,287.05,1598.33Z"/>
        <path class="cls-1" d="M345.8,1652.85H335.19v-88.14H345.8Z"/>
        <path class="cls-1" d="M372.25,1574.29a6.35,6.35,0,0,1,1.57-4.36,6,6,0,0,1,4.68-1.78,6.06,6.06,0,0,1,4.71,1.78,6.28,6.28,0,0,1,1.6,4.36,6,6,0,0,1-1.6,4.3,6.14,6.14,0,0,1-4.71,1.73,6,6,0,0,1-4.68-1.73A6.11,6.11,0,0,1,372.25,1574.29Zm11.47,78.56H373.11v-62.09h10.61Z"/>
        <path class="cls-1" d="M420.15,1590.76l.34,7.8a22.65,22.65,0,0,1,18.59-9q19.68,0,19.86,22.21v41H448.32v-41.09q-.06-6.71-3.07-9.93t-9.38-3.21a15.31,15.31,0,0,0-9.07,2.76,18.59,18.59,0,0,0-6.08,7.23v44.24H410.11v-62.09Z"/>
        <path class="cls-1" d="M481.82,1621.29q0-14.52,6.72-23.1a21.45,21.45,0,0,1,17.78-8.58q11.37,0,17.74,8l.51-6.89h9.7v60.59q0,12.06-7.15,19t-19.19,6.94a32,32,0,0,1-13.14-2.87,22.62,22.62,0,0,1-9.81-7.86l5.51-6.37q6.83,8.43,16.7,8.44,7.74,0,12.07-4.37T523.6,1652v-5.33q-6.37,7.35-17.39,7.34a21.17,21.17,0,0,1-17.64-8.78Q481.82,1636.44,481.82,1621.29Zm10.68,1.2q0,10.5,4.3,16.5a14,14,0,0,0,12.05,6q10,0,14.75-9.12v-28.35q-4.89-8.88-14.64-8.89a14.09,14.09,0,0,0-12.1,6Q492.5,1610.67,492.5,1622.49Z"/>
        <path class="cls-1" d="M645.91,1616H610.85v36.9h-11V1569.3h51.75v9H610.85v28.63h35.06Z"/>
        <path class="cls-1" d="M701.05,1600.28a32.75,32.75,0,0,0-5.22-.4q-10.46,0-14.18,8.9v44.07H671v-62.09h10.33l.17,7.17q5.22-8.31,14.8-8.32a10.8,10.8,0,0,1,4.71.81Z"/>
        <path class="cls-1" d="M756.24,1652.85a22.32,22.32,0,0,1-1.5-6.55,23.65,23.65,0,0,1-17.67,7.69q-9.18,0-15.06-5.19a16.8,16.8,0,0,1-5.88-13.17q0-9.69,7.37-15.06t20.74-5.37h10.33v-4.87a12,12,0,0,0-3.32-8.87q-3.33-3.3-9.82-3.3a15.49,15.49,0,0,0-9.52,2.87c-2.57,1.91-3.85,4.23-3.85,6.94H717.39a14.67,14.67,0,0,1,3.3-9,22.53,22.53,0,0,1,8.95-6.85,30,30,0,0,1,12.42-2.53q10.74,0,16.82,5.37t6.31,14.77v28.58q0,8.55,2.18,13.6v.92Zm-17.62-8.1a18.69,18.69,0,0,0,9.47-2.58,15.64,15.64,0,0,0,6.48-6.71v-12.74h-8.32q-19.5,0-19.51,11.42a9.64,9.64,0,0,0,3.33,7.8A12.77,12.77,0,0,0,738.62,1644.75Z"/>
        <path class="cls-1" d="M801.22,1590.76l.28,6.89q6.82-8,18.42-8,13,0,17.73,10a23.51,23.51,0,0,1,8.06-7.23,23.78,23.78,0,0,1,11.74-2.76q20.43,0,20.77,21.63v41.61H867.6v-41q0-6.66-3-10t-10.21-3.3a14.08,14.08,0,0,0-9.81,3.53,14.37,14.37,0,0,0-4.54,9.5v41.2H829.33v-40.69q0-13.54-13.25-13.54-10.46,0-14.29,8.89v45.34H791.17v-62.09Z"/>
        <path class="cls-1" d="M929.39,1654q-12.61,0-20.54-8.29t-7.92-22.18v-2a37.26,37.26,0,0,1,3.53-16.49,27.54,27.54,0,0,1,9.87-11.37,24.86,24.86,0,0,1,13.74-4.1q12.12,0,18.82,8t6.72,22.84v4.41H911.55q.23,9.18,5.36,14.84a16.91,16.91,0,0,0,13.06,5.65,18.47,18.47,0,0,0,9.52-2.3,23.85,23.85,0,0,0,6.83-6.08l6.49,5Q945,1654,929.39,1654Zm-1.32-55.66a14.13,14.13,0,0,0-10.78,4.68q-4.37,4.68-5.4,13.11H943v-.8c-.3-5.4-1.76-9.57-4.36-12.54A13.35,13.35,0,0,0,928.07,1598.33Z"/>
        <path class="cls-1" d="M1030.26,1638.21l11.94-47.45h10.61l-18.07,62.09h-8.61L1011,1605.79l-14.69,47.06h-8.61l-18-62.09h10.56l12.22,46.48,14.46-46.48h8.55Z"/>
        <path class="cls-1" d="M1070.19,1621.23a36.69,36.69,0,0,1,3.58-16.41,26.73,26.73,0,0,1,10-11.25,27.15,27.15,0,0,1,14.6-4q12.67,0,20.51,8.78t7.84,23.36v.74a36.91,36.91,0,0,1-3.48,16.27,26.36,26.36,0,0,1-9.92,11.22,27.57,27.57,0,0,1-14.83,4q-12.63,0-20.46-8.78t-7.83-23.24Zm10.67,1.26q0,10.34,4.79,16.58a16.23,16.23,0,0,0,25.68-.08q4.76-6.35,4.76-17.76,0-10.21-4.85-16.56a15.42,15.42,0,0,0-12.88-6.34,15.24,15.24,0,0,0-12.68,6.26Q1080.87,1610.85,1080.86,1622.49Z"/>
        <path class="cls-1" d="M1179.43,1600.28a32.75,32.75,0,0,0-5.22-.4q-10.44,0-14.17,8.9v44.07h-10.62v-62.09h10.33l.17,7.17q5.22-8.31,14.81-8.32a10.75,10.75,0,0,1,4.7.81Z"/>
        <path class="cls-1" d="M1215.92,1624.1l-6.66,6.94v21.81h-10.61v-88.14h10.61V1618l5.68-6.83,19.34-20.43h12.91L1223,1616.7l27,36.15h-12.45Z"/>
      </g>
    </g>
  </g>
</svg>
