<svg xmlns="http://www.w3.org/2000/svg" width="1024" height="1024" viewBox="0 0 1024 1024">
        <path d="M53.85,743H278.36a325.54,325.54,0,0,1-93.92-184.4H0A504,504,0,0,0,53.85,743Z"/>
        <path d="M1017.92,558.59H833.48A325.54,325.54,0,0,1,739.56,743H964.07A504,504,0,0,0,1017.92,558.59Z"/>
        <path d="M117.49,838.25a512.61,512.61,0,0,0,782.94,0Z"/>
        <path d="M184.44,463.33c23.23-157.59,159.89-279,324.52-279s301.29,121.39,324.52,279h184.44C993.79,204.58,775.16,2,509,2S24.13,204.58,0,463.33Z"/>
      <ellipse cx="508.96" cy="510.96" rx="232.37" ry="231.35"/>
</svg>
