<svg xmlns="http://www.w3.org/2000/svg" width="1024" height="1024" viewBox="0 0 1024 1024">
  <defs>
    <style>
      .cls-1 {
        fill: #ccc;
      }
    </style>
  </defs>
  <g id="Ebene_2" data-name="Ebene 2">
    <g>
      <g>
        <path class="cls-1" d="M53.77,743H278.3a325.46,325.46,0,0,1-93.93-184.41H-.08A504.24,504.24,0,0,0,53.77,743Z"/>
        <path class="cls-1" d="M1017.92,558.63H833.47A325.46,325.46,0,0,1,739.54,743H964.07A504.24,504.24,0,0,0,1017.92,558.63Z"/>
        <path class="cls-1" d="M117.42,838.31a512.64,512.64,0,0,0,783,0Z"/>
        <path class="cls-1" d="M184.37,463.37c23.24-157.61,159.9-279,324.55-279s301.31,121.39,324.55,279h184.45C993.79,204.59,775.14,2,508.92,2S24.05,204.59-.08,463.37Z"/>
      </g>
      <ellipse class="cls-1" cx="508.92" cy="511" rx="232.38" ry="231.36"/>
    </g>
  </g>
</svg>
