<svg xmlns="http://www.w3.org/2000/svg" width="1250" height="1678" viewBox="0 0 1250 1678">
  <defs>
    <style>
      .cls-1 {
        fill: #8da5bf;
      }

      .cls-2 {
        fill: #8298e0;
      }

      .cls-3 {
        fill: #995fab;
      }

      .cls-4 {
        fill: #f88d2b;
      }
    </style>
  </defs>
  <g id="Ebene_2" data-name="Ebene 2">
    <g>
      <g>
        <path class="cls-1" d="M397.35,1210H331v44.94h77.9v27.77H296.4V1114.91H408.64v28H331v40h66.38Z"/>
        <path class="cls-1" d="M535,1238.68q0-9.79-6.91-15t-24.89-11.06q-18-5.82-28.47-11.47-28.57-15.43-28.58-41.6a40.54,40.54,0,0,1,7.67-24.26q7.67-10.65,22-16.65a82.92,82.92,0,0,1,32.21-6q18,0,32,6.51A51,51,0,0,1,562,1137.5a48.06,48.06,0,0,1,7.78,27H535.16q0-11.54-7.26-17.92t-20.4-6.4q-12.67,0-19.7,5.36a16.89,16.89,0,0,0-7,14.12q0,8.17,8.24,13.71t24.25,10.37q29.5,8.88,43,22t13.48,32.73q0,21.78-16.48,34.17T508.88,1285a85.59,85.59,0,0,1-35.26-7.09q-15.9-7.08-24.26-19.42T441,1229.92H475.7q0,27.78,33.18,27.78,12.33,0,19.25-5T535,1238.68Z"/>
        <path class="cls-1" d="M657.18,1114.91l43.1,121.7,42.87-121.7h45.41V1282.7H753.87v-45.86l3.46-79.17L712,1282.7H688.3l-45.18-124.92,3.46,79.06v45.86H612V1114.91Z"/>
        <path class="cls-1" d="M938.58,1214.14H872.2v68.56H837.63V1114.91H946.88v28H872.2v43.33h66.38Z"/>
      </g>
      <g>
        <g>
          <path class="cls-2" d="M165.78,741.54H390.49a325.66,325.66,0,0,1-94-184.56H111.88A504.42,504.42,0,0,0,165.78,741.54Z"/>
          <path class="cls-2" d="M1130.71,557H946.11a325.78,325.78,0,0,1-94,184.56h224.7A504.23,504.23,0,0,0,1130.71,557Z"/>
          <path class="cls-1" d="M229.48,836.89a513,513,0,0,0,783.63,0Z"/>
          <path class="cls-3" d="M296.49,461.64c23.25-157.73,160-279.23,324.81-279.23s301.55,121.5,324.81,279.23h184.6C1106.56,202.65,887.73-.11,621.3-.11S136,202.65,111.88,461.64Z"/>
        </g>
        <ellipse class="cls-4" cx="621.3" cy="509.31" rx="232.57" ry="231.55"/>
      </g>
      <g>
        <path class="cls-1" d="M159.18,1429.85H123v29.62H165v9h-53.1V1384.9h52.52v9H123v26.92h36.22Z"/>
        <path class="cls-1" d="M210.32,1461a15.34,15.34,0,0,0,9.93-3.44,12.16,12.16,0,0,0,4.71-8.61h10a19.35,19.35,0,0,1-3.67,10.16,24.38,24.38,0,0,1-9,7.69,26.14,26.14,0,0,1-12,2.87q-12.69,0-20.18-8.47T182.65,1438v-1.78a37.38,37.38,0,0,1,3.33-16.13,25.28,25.28,0,0,1,9.56-11,27.08,27.08,0,0,1,14.72-3.91q10.44,0,17.36,6.26a22.35,22.35,0,0,1,7.38,16.24H225a14.67,14.67,0,0,0-4.57-9.9,14.19,14.19,0,0,0-10.13-3.87q-8.1,0-12.54,5.82t-4.45,16.85v2q0,10.74,4.42,16.53T210.32,1461Z"/>
        <path class="cls-1" d="M267.88,1468.48H257.26v-88.17h10.62Z"/>
        <path class="cls-1" d="M294.33,1389.9a6.34,6.34,0,0,1,1.58-4.36,5.91,5.91,0,0,1,4.68-1.78,6,6,0,0,1,4.71,1.78,6.26,6.26,0,0,1,1.6,4.36,6.57,6.57,0,0,1-11,4.3A6.13,6.13,0,0,1,294.33,1389.9Zm11.48,78.58H295.19v-62.11h10.62Z"/>
        <path class="cls-1" d="M384.67,1438.11q0,14.19-6.48,22.85a20.8,20.8,0,0,1-17.57,8.67q-11.31,0-17.79-7.18v29.91H332.21v-86h9.7l.52,6.89q6.48-8,18-8,11.19,0,17.71,8.44t6.51,23.48Zm-10.62-1.2q0-10.5-4.47-16.59a14.42,14.42,0,0,0-12.29-6.08q-9.65,0-14.46,8.55v29.67q4.76,8.51,14.58,8.5a14.36,14.36,0,0,0,12.14-6.06Q374.05,1448.85,374.05,1436.91Z"/>
        <path class="cls-1" d="M443.73,1452a7.83,7.83,0,0,0-3.24-6.69q-3.25-2.38-11.31-4.11a53,53,0,0,1-12.8-4.13,18.3,18.3,0,0,1-7-5.74,13.74,13.74,0,0,1-2.26-7.92q0-7.64,6.46-12.92t16.5-5.28q10.56,0,17.13,5.46a17.32,17.32,0,0,1,6.58,14H443.1a9.6,9.6,0,0,0-3.7-7.52,13.86,13.86,0,0,0-9.33-3.16q-5.81,0-9.07,2.52a8,8,0,0,0-3.27,6.61,6.43,6.43,0,0,0,3,5.79q3,2,11,3.73a57.75,57.75,0,0,1,12.89,4.25,18.91,18.91,0,0,1,7.32,5.94,14.69,14.69,0,0,1,2.38,8.47,15.9,15.9,0,0,1-6.66,13.35q-6.66,5-17.28,5a31.3,31.3,0,0,1-13.2-2.64,21.41,21.41,0,0,1-9-7.38,17.8,17.8,0,0,1-3.25-10.24H415.6a11,11,0,0,0,4.28,8.46q4,3.14,10.53,3.13,6,0,9.68-2.44A7.52,7.52,0,0,0,443.73,1452Z"/>
        <path class="cls-1" d="M503.36,1469.63q-12.63,0-20.55-8.3t-7.92-22.18v-2a37.35,37.35,0,0,1,3.53-16.51,27.45,27.45,0,0,1,9.87-11.36,24.8,24.8,0,0,1,13.75-4.11q12.1,0,18.83,8t6.71,22.85v4.42H485.51q.23,9.18,5.36,14.84a16.88,16.88,0,0,0,13.06,5.65,18.5,18.5,0,0,0,9.53-2.3,23.85,23.85,0,0,0,6.83-6.08l6.49,5.05Q519,1469.63,503.36,1469.63ZM502,1414a14.16,14.16,0,0,0-10.79,4.68q-4.37,4.68-5.4,13.11H517v-.8q-.45-8.1-4.36-12.54A13.31,13.31,0,0,0,502,1414Z"/>
        <path class="cls-1" d="M614.07,1431.23q-14.18-4.08-20.64-10a19.15,19.15,0,0,1-6.45-14.67,20.23,20.23,0,0,1,7.89-16.33q7.89-6.45,20.52-6.45a34.32,34.32,0,0,1,15.35,3.32,25.28,25.28,0,0,1,10.45,9.19,23.46,23.46,0,0,1,3.7,12.8H633.81q0-7.6-4.82-12t-13.6-4.35c-5.44,0-9.67,1.2-12.72,3.59a12,12,0,0,0-4.56,10,10.76,10.76,0,0,0,4.33,8.65q4.34,3.54,14.76,6.47t16.3,6.47a24.73,24.73,0,0,1,8.72,8.23,21,21,0,0,1,2.84,11.08,19.52,19.52,0,0,1-7.92,16.27q-7.92,6.12-21.18,6.12a39.26,39.26,0,0,1-16.07-3.3,27.08,27.08,0,0,1-11.51-9,22.06,22.06,0,0,1-4-13h11.08a14.38,14.38,0,0,0,5.6,12q5.6,4.4,15,4.4,8.73,0,13.38-3.56a11.57,11.57,0,0,0,4.65-9.7q0-6.15-4.31-9.5T614.07,1431.23Z"/>
        <path class="cls-1" d="M692.7,1469.63q-12.63,0-20.55-8.3t-7.92-22.18v-2a37.21,37.21,0,0,1,3.53-16.51,27.45,27.45,0,0,1,9.87-11.36,24.8,24.8,0,0,1,13.75-4.11q12.11,0,18.83,8t6.71,22.85v4.42H674.85q.23,9.18,5.36,14.84a16.88,16.88,0,0,0,13.06,5.65,18.5,18.5,0,0,0,9.53-2.3,23.85,23.85,0,0,0,6.83-6.08l6.49,5.05Q708.31,1469.63,692.7,1469.63ZM691.38,1414a14.14,14.14,0,0,0-10.79,4.68q-4.37,4.68-5.4,13.11H706.3v-.8q-.45-8.1-4.36-12.54A13.31,13.31,0,0,0,691.38,1414Z"/>
        <path class="cls-1" d="M748.6,1406.37l.28,6.89q6.84-8,18.43-8,13,0,17.74,10a23.53,23.53,0,0,1,8.06-7.23,23.81,23.81,0,0,1,11.74-2.76q20.43,0,20.78,21.64v41.62H815v-41q0-6.66-3-10t-10.22-3.3a14,14,0,0,0-9.81,3.53,14.28,14.28,0,0,0-4.54,9.5v41.21H776.72v-40.7q0-13.54-13.25-13.54-10.46,0-14.3,8.89v45.35H738.55v-62.11Z"/>
        <path class="cls-1" d="M889.39,1468.48a22.31,22.31,0,0,1-1.49-6.54,23.73,23.73,0,0,1-17.68,7.69q-9.18,0-15.07-5.2a16.8,16.8,0,0,1-5.88-13.17q0-9.71,7.38-15.07t20.75-5.37h10.33V1426a11.92,11.92,0,0,0-3.33-8.87q-3.33-3.3-9.82-3.3a15.46,15.46,0,0,0-9.53,2.87,8.46,8.46,0,0,0-3.84,6.94H850.53a14.65,14.65,0,0,1,3.3-9,22.5,22.5,0,0,1,9-6.86,30.19,30.19,0,0,1,12.43-2.53q10.72,0,16.81,5.37t6.32,14.78V1454q0,8.55,2.18,13.6v.92Zm-17.62-8.09a18.57,18.57,0,0,0,9.47-2.59,15.61,15.61,0,0,0,6.49-6.71v-12.75h-8.32q-19.53,0-19.52,11.43a9.64,9.64,0,0,0,3.33,7.8A12.77,12.77,0,0,0,871.77,1460.39Z"/>
        <path class="cls-1" d="M934.44,1406.37l.35,7.81a22.63,22.63,0,0,1,18.6-9q19.68,0,19.86,22.22v41H962.63v-41.1q-.06-6.72-3.07-9.93t-9.39-3.21a15.31,15.31,0,0,0-9.07,2.75,18.73,18.73,0,0,0-6.08,7.23v44.26H924.4v-62.11Z"/>
        <path class="cls-1" d="M1013.07,1391.33v15h11.6v8.21h-11.6v38.56a8.65,8.65,0,0,0,1.55,5.61c1,1.24,2.8,1.87,5.28,1.87a25.75,25.75,0,0,0,5.06-.69v8.56a31,31,0,0,1-8.16,1.14q-7.11,0-10.73-4.31t-3.62-12.22v-38.52h-11.3v-8.21h11.3v-15Z"/>
        <path class="cls-1" d="M1046.53,1389.9a6.34,6.34,0,0,1,1.58-4.36,5.91,5.91,0,0,1,4.68-1.78,6,6,0,0,1,4.7,1.78,6.22,6.22,0,0,1,1.61,4.36,6,6,0,0,1-1.61,4.3,6.11,6.11,0,0,1-4.7,1.72,6,6,0,0,1-4.68-1.72A6.13,6.13,0,0,1,1046.53,1389.9Zm11.48,78.58h-10.62v-62.11H1058Z"/>
        <path class="cls-1" d="M1109.32,1461a15.32,15.32,0,0,0,9.93-3.44,12.16,12.16,0,0,0,4.71-8.61h10a19.26,19.26,0,0,1-3.67,10.16,24.3,24.3,0,0,1-9,7.69,26.14,26.14,0,0,1-12,2.87q-12.69,0-20.18-8.47t-7.49-23.16v-1.78a37.38,37.38,0,0,1,3.33-16.13,25.34,25.34,0,0,1,9.56-11,27.08,27.08,0,0,1,14.72-3.91q10.44,0,17.36,6.26a22.35,22.35,0,0,1,7.38,16.24h-10a14.67,14.67,0,0,0-4.57-9.9,14.19,14.19,0,0,0-10.13-3.87q-8.1,0-12.54,5.82t-4.45,16.85v2q0,10.74,4.42,16.53T1109.32,1461Z"/>
        <path class="cls-1" d="M14,1569.86l27.32,68.19,27.32-68.19h14.3v83.58h-11v-32.55l1-35.13-27.44,67.68H37L9.66,1585.93l1.09,35v32.55h-11v-83.58Z"/>
        <path class="cls-1" d="M107.29,1621.81a36.71,36.71,0,0,1,3.59-16.42,26.73,26.73,0,0,1,10-11.25,27.16,27.16,0,0,1,14.61-4q12.68,0,20.52,8.78t7.83,23.37v.74a37,37,0,0,1-3.47,16.27,26.42,26.42,0,0,1-9.93,11.23,27.5,27.5,0,0,1-14.84,4q-12.63,0-20.46-8.78t-7.84-23.25Zm10.68,1.26q0,10.34,4.79,16.59a16.24,16.24,0,0,0,25.69-.09q4.76-6.33,4.76-17.76,0-10.21-4.85-16.56a15.41,15.41,0,0,0-12.88-6.34,15.24,15.24,0,0,0-12.69,6.25Q118,1611.42,118,1623.07Z"/>
        <path class="cls-1" d="M184,1621.87q0-14.3,6.77-23a21.43,21.43,0,0,1,17.74-8.7q10.91,0,17.28,7.46v-32.37h10.62v88.17h-9.76l-.52-6.66q-6.37,7.8-17.73,7.8-10.8,0-17.6-8.84t-6.8-23.07Zm10.62,1.2q0,10.56,4.36,16.53a14.11,14.11,0,0,0,12.06,6q10.1,0,14.75-9.07V1608q-4.77-8.78-14.64-8.78a14.18,14.18,0,0,0-12.17,6Q194.58,1611.25,194.59,1623.07Z"/>
        <path class="cls-1" d="M288,1654.58q-12.63,0-20.55-8.29t-7.92-22.19v-1.95a37.17,37.17,0,0,1,3.53-16.5,27.54,27.54,0,0,1,9.87-11.37,24.87,24.87,0,0,1,13.75-4.1q12.1,0,18.83,8t6.71,22.84v4.42H270.18q.22,9.19,5.36,14.84a16.88,16.88,0,0,0,13.06,5.66,18.5,18.5,0,0,0,9.53-2.3,24,24,0,0,0,6.83-6.08l6.49,5Q303.64,1654.59,288,1654.58Zm-1.32-55.67a14.17,14.17,0,0,0-10.79,4.67q-4.37,4.68-5.4,13.12h31.11v-.8q-.45-8.1-4.36-12.55A13.34,13.34,0,0,0,286.71,1598.91Z"/>
        <path class="cls-1" d="M345.48,1653.44H334.86v-88.17h10.62Z"/>
        <path class="cls-1" d="M371.93,1574.85a6.35,6.35,0,0,1,1.58-4.36,5.94,5.94,0,0,1,4.68-1.78,6.07,6.07,0,0,1,4.71,1.78,6.28,6.28,0,0,1,1.6,4.36,6.07,6.07,0,0,1-1.6,4.31,6.15,6.15,0,0,1-4.71,1.72,6,6,0,0,1-4.68-1.72A6.14,6.14,0,0,1,371.93,1574.85Zm11.48,78.59H372.79v-62.11h10.62Z"/>
        <path class="cls-1" d="M419.85,1591.33l.35,7.81a22.62,22.62,0,0,1,18.59-9q19.69,0,19.86,22.21v41H448v-41.1q-.06-6.72-3.08-9.93t-9.38-3.22a15.31,15.31,0,0,0-9.07,2.76,18.66,18.66,0,0,0-6.08,7.23v44.26H409.81v-62.11Z"/>
        <path class="cls-1" d="M481.55,1621.87q0-14.52,6.72-23.11a21.46,21.46,0,0,1,17.79-8.58q11.35,0,17.74,8l.51-6.89H534v60.61q0,12.06-7.14,19t-19.2,7a32,32,0,0,1-13.15-2.87,22.72,22.72,0,0,1-9.82-7.86l5.52-6.38q6.82,8.45,16.7,8.44,7.76,0,12.08-4.36t4.34-12.28v-5.34q-6.37,7.35-17.4,7.34a21.2,21.2,0,0,1-17.65-8.78Q481.56,1637,481.55,1621.87Zm10.68,1.2q0,10.5,4.3,16.5a14,14,0,0,0,12.05,6q10.05,0,14.76-9.12v-28.36q-4.89-8.89-14.64-8.9a14.11,14.11,0,0,0-12.11,6Q492.23,1611.25,492.23,1623.07Z"/>
        <path class="cls-1" d="M645.7,1616.53H610.63v36.91h-11v-83.58h51.78v9H610.63v28.65H645.7Z"/>
        <path class="cls-1" d="M700.85,1600.86a31.62,31.62,0,0,0-5.22-.4q-10.46,0-14.18,8.89v44.09H670.83v-62.11h10.33l.17,7.17q5.24-8.31,14.81-8.32a10.94,10.94,0,0,1,4.71.8Z"/>
        <path class="cls-1" d="M756.06,1653.44a22.4,22.4,0,0,1-1.49-6.55,23.69,23.69,0,0,1-17.68,7.69q-9.18,0-15.07-5.19a16.8,16.8,0,0,1-5.88-13.17q0-9.71,7.37-15.07t20.75-5.37h10.33v-4.88a11.93,11.93,0,0,0-3.32-8.87q-3.33-3.3-9.82-3.3a15.52,15.52,0,0,0-9.53,2.87c-2.56,1.92-3.84,4.23-3.84,7H717.2a14.65,14.65,0,0,1,3.3-9,22.5,22.5,0,0,1,9-6.86,30,30,0,0,1,12.42-2.53q10.74,0,16.82,5.37t6.31,14.78v28.58q0,8.56,2.19,13.61v.92Zm-17.62-8.1a18.69,18.69,0,0,0,9.47-2.58,15.56,15.56,0,0,0,6.48-6.72V1623.3h-8.32q-19.52,0-19.51,11.42a9.67,9.67,0,0,0,3.33,7.81A12.73,12.73,0,0,0,738.44,1645.34Z"/>
        <path class="cls-1" d="M801.05,1591.33l.29,6.89q6.82-8,18.43-8,13,0,17.74,10a23.33,23.33,0,0,1,8.06-7.23,23.78,23.78,0,0,1,11.74-2.76q20.43,0,20.78,21.64v41.62H867.47v-41q0-6.66-3-10t-10.22-3.3a14.11,14.11,0,0,0-9.82,3.53,14.34,14.34,0,0,0-4.53,9.5v41.22H829.18v-40.7q0-13.54-13.26-13.55-10.44,0-14.29,8.9v45.35H791v-62.11Z"/>
        <path class="cls-1" d="M929.28,1654.58q-12.63,0-20.55-8.29t-7.92-22.19v-1.95a37.17,37.17,0,0,1,3.53-16.5,27.54,27.54,0,0,1,9.87-11.37,24.87,24.87,0,0,1,13.75-4.1q12.1,0,18.83,8T953.5,1621v4.42H911.43q.23,9.19,5.36,14.84a16.88,16.88,0,0,0,13.06,5.66,18.5,18.5,0,0,0,9.53-2.3,24,24,0,0,0,6.83-6.08l6.49,5Q944.89,1654.59,929.28,1654.58ZM928,1598.91a14.18,14.18,0,0,0-10.79,4.67q-4.36,4.68-5.4,13.12h31.11v-.8q-.45-8.1-4.36-12.55A13.34,13.34,0,0,0,928,1598.91Z"/>
        <path class="cls-1" d="M1030.18,1638.8l11.94-47.47h10.62l-18.08,62.11h-8.61l-15.1-47.07-14.69,47.07h-8.61l-18-62.11h10.56l12.23,46.49,14.47-46.49h8.55Z"/>
        <path class="cls-1" d="M1070.12,1621.81a36.71,36.71,0,0,1,3.59-16.42,26.73,26.73,0,0,1,10-11.25,27.19,27.19,0,0,1,14.61-4q12.68,0,20.52,8.78t7.83,23.37v.74a36.9,36.9,0,0,1-3.47,16.27,26.42,26.42,0,0,1-9.93,11.23,27.5,27.5,0,0,1-14.84,4q-12.63,0-20.46-8.78t-7.84-23.25Zm10.68,1.26q0,10.34,4.79,16.59a16.24,16.24,0,0,0,25.69-.09q4.77-6.33,4.76-17.76,0-10.21-4.85-16.56a15.41,15.41,0,0,0-12.88-6.34,15.25,15.25,0,0,0-12.69,6.25Q1080.81,1611.42,1080.8,1623.07Z"/>
        <path class="cls-1" d="M1179.4,1600.86a31.45,31.45,0,0,0-5.22-.4q-10.44,0-14.18,8.89v44.09h-10.62v-62.11h10.34l.17,7.17q5.22-8.31,14.81-8.32a10.89,10.89,0,0,1,4.7.8Z"/>
        <path class="cls-1" d="M1215.9,1624.68l-6.65,6.94v21.82h-10.62v-88.17h10.62v53.32l5.68-6.83,19.34-20.43h12.92L1223,1617.27l27,36.17h-12.46Z"/>
      </g>
    </g>
  </g>
</svg>
