<svg xmlns="http://www.w3.org/2000/svg" width="1125" height="1125" viewBox="0 0 1125 1125">
<style type="text/css">
	.st0{fill:#FFFFFF;}
</style>
<g id="QR_code">
	<circle class="st0" cx="262.5" cy="62.4" r="7.5"/>
	<circle class="st0" cx="312.5" cy="62.4" r="7.5"/>
	<circle class="st0" cx="337.5" cy="62.4" r="7.5"/>
	<circle class="st0" cx="362.5" cy="62.4" r="7.5"/>
	<circle class="st0" cx="412.5" cy="62.4" r="7.5"/>
	<circle class="st0" cx="462.5" cy="62.4" r="7.5"/>
	<circle class="st0" cx="487.5" cy="62.4" r="7.5"/>
	<circle class="st0" cx="512.5" cy="62.4" r="7.5"/>
	<circle class="st0" cx="537.5" cy="62.4" r="7.5"/>
	<circle class="st0" cx="612.5" cy="62.4" r="7.5"/>
	<circle class="st0" cx="687.5" cy="62.4" r="7.5"/>
	<circle class="st0" cx="712.5" cy="62.4" r="7.5"/>
	<circle class="st0" cx="737.5" cy="62.4" r="7.5"/>
	<circle class="st0" cx="812.5" cy="62.4" r="7.5"/>
	<circle class="st0" cx="837.5" cy="62.4" r="7.5"/>
	<circle class="st0" cx="262.5" cy="87.4" r="7.5"/>
	<circle class="st0" cx="362.5" cy="87.4" r="7.5"/>
	<circle class="st0" cx="387.5" cy="87.4" r="7.5"/>
	<circle class="st0" cx="412.5" cy="87.4" r="7.5"/>
	<circle class="st0" cx="512.5" cy="87.4" r="7.5"/>
	<circle class="st0" cx="562.5" cy="87.4" r="7.5"/>
	<circle class="st0" cx="587.5" cy="87.4" r="7.5"/>
	<circle class="st0" cx="637.5" cy="87.4" r="7.5"/>
	<circle class="st0" cx="662.5" cy="87.4" r="7.5"/>
	<circle class="st0" cx="687.5" cy="87.4" r="7.5"/>
	<circle class="st0" cx="712.5" cy="87.4" r="7.5"/>
	<circle class="st0" cx="737.5" cy="87.4" r="7.5"/>
	<circle class="st0" cx="787.5" cy="87.4" r="7.5"/>
	<circle class="st0" cx="862.5" cy="87.4" r="7.5"/>
	<circle class="st0" cx="387.5" cy="112.4" r="7.5"/>
	<circle class="st0" cx="412.5" cy="112.4" r="7.5"/>
	<circle class="st0" cx="562.5" cy="112.4" r="7.5"/>
	<circle class="st0" cx="587.5" cy="112.4" r="7.5"/>
	<circle class="st0" cx="687.5" cy="112.4" r="7.5"/>
	<circle class="st0" cx="737.5" cy="112.4" r="7.5"/>
	<circle class="st0" cx="762.5" cy="112.4" r="7.5"/>
	<circle class="st0" cx="787.5" cy="112.4" r="7.5"/>
	<circle class="st0" cx="837.5" cy="112.4" r="7.5"/>
	<circle class="st0" cx="862.5" cy="112.4" r="7.5"/>
	<circle class="st0" cx="262.5" cy="137.4" r="7.5"/>
	<circle class="st0" cx="337.5" cy="137.4" r="7.5"/>
	<circle class="st0" cx="412.5" cy="137.4" r="7.5"/>
	<circle class="st0" cx="462.5" cy="137.4" r="7.5"/>
	<circle class="st0" cx="512.5" cy="137.4" r="7.5"/>
	<circle class="st0" cx="587.5" cy="137.4" r="7.5"/>
	<circle class="st0" cx="612.5" cy="137.4" r="7.5"/>
	<circle class="st0" cx="662.5" cy="137.4" r="7.5"/>
	<circle class="st0" cx="687.5" cy="137.4" r="7.5"/>
	<circle class="st0" cx="712.5" cy="137.4" r="7.5"/>
	<circle class="st0" cx="737.5" cy="137.4" r="7.5"/>
	<circle class="st0" cx="787.5" cy="137.4" r="7.5"/>
	<circle class="st0" cx="262.5" cy="162.4" r="7.5"/>
	<circle class="st0" cx="312.5" cy="162.4" r="7.5"/>
	<circle class="st0" cx="337.5" cy="162.4" r="7.5"/>
	<circle class="st0" cx="412.5" cy="162.4" r="7.5"/>
	<circle class="st0" cx="437.5" cy="162.4" r="7.5"/>
	<circle class="st0" cx="462.5" cy="162.4" r="7.5"/>
	<circle class="st0" cx="537.5" cy="162.4" r="7.5"/>
	<circle class="st0" cx="637.5" cy="162.4" r="7.5"/>
	<circle class="st0" cx="662.5" cy="162.4" r="7.5"/>
	<circle class="st0" cx="712.5" cy="162.4" r="7.5"/>
	<circle class="st0" cx="737.5" cy="162.4" r="7.5"/>
	<circle class="st0" cx="262.5" cy="187.4" r="7.5"/>
	<circle class="st0" cx="287.5" cy="187.4" r="7.5"/>
	<circle class="st0" cx="312.5" cy="187.4" r="7.5"/>
	<circle class="st0" cx="337.5" cy="187.4" r="7.5"/>
	<circle class="st0" cx="387.5" cy="187.4" r="7.5"/>
	<circle class="st0" cx="412.5" cy="187.4" r="7.5"/>
	<circle class="st0" cx="437.5" cy="187.4" r="7.5"/>
	<circle class="st0" cx="462.5" cy="187.4" r="7.5"/>
	<circle class="st0" cx="487.5" cy="187.4" r="7.5"/>
	<circle class="st0" cx="562.5" cy="187.4" r="7.5"/>
	<circle class="st0" cx="587.5" cy="187.4" r="7.5"/>
	<circle class="st0" cx="612.5" cy="187.4" r="7.5"/>
	<circle class="st0" cx="637.5" cy="187.4" r="7.5"/>
	<circle class="st0" cx="737.5" cy="187.4" r="7.5"/>
	<circle class="st0" cx="762.5" cy="187.4" r="7.5"/>
	<circle class="st0" cx="837.5" cy="187.4" r="7.5"/>
	<circle class="st0" cx="262.5" cy="212.4" r="7.5"/>
	<circle class="st0" cx="312.5" cy="212.4" r="7.5"/>
	<circle class="st0" cx="362.5" cy="212.4" r="7.5"/>
	<circle class="st0" cx="412.5" cy="212.4" r="7.5"/>
	<circle class="st0" cx="462.5" cy="212.4" r="7.5"/>
	<circle class="st0" cx="512.5" cy="212.4" r="7.5"/>
	<circle class="st0" cx="562.5" cy="212.4" r="7.5"/>
	<circle class="st0" cx="612.5" cy="212.4" r="7.5"/>
	<circle class="st0" cx="662.5" cy="212.4" r="7.5"/>
	<circle class="st0" cx="712.5" cy="212.4" r="7.5"/>
	<circle class="st0" cx="762.5" cy="212.4" r="7.5"/>
	<circle class="st0" cx="812.5" cy="212.4" r="7.5"/>
	<circle class="st0" cx="862.5" cy="212.4" r="7.5"/>
	<circle class="st0" cx="337.5" cy="237.4" r="7.5"/>
	<circle class="st0" cx="387.5" cy="237.4" r="7.5"/>
	<circle class="st0" cx="437.5" cy="237.4" r="7.5"/>
	<circle class="st0" cx="462.5" cy="237.4" r="7.5"/>
	<circle class="st0" cx="587.5" cy="237.4" r="7.5"/>
	<circle class="st0" cx="662.5" cy="237.4" r="7.5"/>
	<circle class="st0" cx="712.5" cy="237.4" r="7.5"/>
	<circle class="st0" cx="787.5" cy="237.4" r="7.5"/>
	<circle class="st0" cx="837.5" cy="237.4" r="7.5"/>
	<circle class="st0" cx="137.5" cy="262.4" r="7.5"/>
	<circle class="st0" cx="212.5" cy="262.4" r="7.5"/>
	<circle class="st0" cx="287.5" cy="262.4" r="7.5"/>
	<circle class="st0" cx="337.5" cy="262.4" r="7.5"/>
	<circle class="st0" cx="362.5" cy="262.4" r="7.5"/>
	<circle class="st0" cx="437.5" cy="262.4" r="7.5"/>
	<circle class="st0" cx="462.5" cy="262.4" r="7.5"/>
	<circle class="st0" cx="512.5" cy="262.4" r="7.5"/>
	<circle class="st0" cx="537.5" cy="262.4" r="7.5"/>
	<circle class="st0" cx="562.5" cy="262.4" r="7.5"/>
	<circle class="st0" cx="587.5" cy="262.4" r="7.5"/>
	<circle class="st0" cx="712.5" cy="262.4" r="7.5"/>
	<circle class="st0" cx="762.5" cy="262.4" r="7.5"/>
	<circle class="st0" cx="862.5" cy="262.4" r="7.5"/>
	<circle class="st0" cx="937.5" cy="262.4" r="7.5"/>
	<circle class="st0" cx="962.5" cy="262.4" r="7.5"/>
	<circle class="st0" cx="987.5" cy="262.4" r="7.5"/>
	<circle class="st0" cx="1037.5" cy="262.4" r="7.5"/>
	<circle class="st0" cx="1062.5" cy="262.4" r="7.5"/>
	<circle class="st0" cx="112.5" cy="287.4" r="7.5"/>
	<circle class="st0" cx="137.5" cy="287.4" r="7.5"/>
	<circle class="st0" cx="162.5" cy="287.4" r="7.5"/>
	<circle class="st0" cx="262.5" cy="287.4" r="7.5"/>
	<circle class="st0" cx="337.5" cy="287.4" r="7.5"/>
	<circle class="st0" cx="362.5" cy="287.4" r="7.5"/>
	<circle class="st0" cx="437.5" cy="287.4" r="7.5"/>
	<circle class="st0" cx="487.5" cy="287.4" r="7.5"/>
	<circle class="st0" cx="512.5" cy="287.4" r="7.5"/>
	<circle class="st0" cx="562.5" cy="287.4" r="7.5"/>
	<circle class="st0" cx="587.5" cy="287.4" r="7.5"/>
	<circle class="st0" cx="637.5" cy="287.4" r="7.5"/>
	<circle class="st0" cx="712.5" cy="287.4" r="7.5"/>
	<circle class="st0" cx="762.5" cy="287.4" r="7.5"/>
	<circle class="st0" cx="787.5" cy="287.4" r="7.5"/>
	<circle class="st0" cx="812.5" cy="287.4" r="7.5"/>
	<circle class="st0" cx="862.5" cy="287.4" r="7.5"/>
	<circle class="st0" cx="887.5" cy="287.4" r="7.5"/>
	<circle class="st0" cx="912.5" cy="287.4" r="7.5"/>
	<circle class="st0" cx="987.5" cy="287.4" r="7.5"/>
	<circle class="st0" cx="1012.5" cy="287.4" r="7.5"/>
	<circle class="st0" cx="1037.5" cy="287.4" r="7.5"/>
	<circle class="st0" cx="162.5" cy="312.4" r="7.5"/>
	<circle class="st0" cx="212.5" cy="312.4" r="7.5"/>
	<circle class="st0" cx="262.5" cy="312.4" r="7.5"/>
	<circle class="st0" cx="287.5" cy="312.4" r="7.5"/>
	<circle class="st0" cx="337.5" cy="312.4" r="7.5"/>
	<circle class="st0" cx="362.5" cy="312.4" r="7.5"/>
	<circle class="st0" cx="462.5" cy="312.4" r="7.5"/>
	<circle class="st0" cx="512.5" cy="312.4" r="7.5"/>
	<circle class="st0" cx="537.5" cy="312.4" r="7.5"/>
	<circle class="st0" cx="562.5" cy="312.4" r="7.5"/>
	<circle class="st0" cx="612.5" cy="312.4" r="7.5"/>
	<circle class="st0" cx="687.5" cy="312.4" r="7.5"/>
	<circle class="st0" cx="712.5" cy="312.4" r="7.5"/>
	<circle class="st0" cx="762.5" cy="312.4" r="7.5"/>
	<circle class="st0" cx="837.5" cy="312.4" r="7.5"/>
	<circle class="st0" cx="937.5" cy="312.4" r="7.5"/>
	<circle class="st0" cx="962.5" cy="312.4" r="7.5"/>
	<circle class="st0" cx="987.5" cy="312.4" r="7.5"/>
	<circle class="st0" cx="1012.5" cy="312.4" r="7.5"/>
	<circle class="st0" cx="62.5" cy="337.4" r="7.5"/>
	<circle class="st0" cx="137.5" cy="337.4" r="7.5"/>
	<circle class="st0" cx="162.5" cy="337.4" r="7.5"/>
	<circle class="st0" cx="187.5" cy="337.4" r="7.5"/>
	<circle class="st0" cx="237.5" cy="337.4" r="7.5"/>
	<circle class="st0" cx="287.5" cy="337.4" r="7.5"/>
	<circle class="st0" cx="312.5" cy="337.4" r="7.5"/>
	<circle class="st0" cx="412.5" cy="337.4" r="7.5"/>
	<circle class="st0" cx="487.5" cy="337.4" r="7.5"/>
	<circle class="st0" cx="537.5" cy="337.4" r="7.5"/>
	<circle class="st0" cx="562.5" cy="337.4" r="7.5"/>
	<circle class="st0" cx="587.5" cy="337.4" r="7.5"/>
	<circle class="st0" cx="612.5" cy="337.4" r="7.5"/>
	<circle class="st0" cx="687.5" cy="337.4" r="7.5"/>
	<circle class="st0" cx="737.5" cy="337.4" r="7.5"/>
	<circle class="st0" cx="762.5" cy="337.4" r="7.5"/>
	<circle class="st0" cx="812.5" cy="337.4" r="7.5"/>
	<circle class="st0" cx="937.5" cy="337.4" r="7.5"/>
	<circle class="st0" cx="1012.5" cy="337.4" r="7.5"/>
	<circle class="st0" cx="1037.5" cy="337.4" r="7.5"/>
	<circle class="st0" cx="1062.5" cy="337.4" r="7.5"/>
	<circle class="st0" cx="62.5" cy="362.4" r="7.5"/>
	<circle class="st0" cx="87.5" cy="362.4" r="7.5"/>
	<circle class="st0" cx="137.5" cy="362.4" r="7.5"/>
	<circle class="st0" cx="187.5" cy="362.4" r="7.5"/>
	<circle class="st0" cx="212.5" cy="362.4" r="7.5"/>
	<circle class="st0" cx="237.5" cy="362.4" r="7.5"/>
	<circle class="st0" cx="387.5" cy="362.4" r="7.5"/>
	<circle class="st0" cx="412.5" cy="362.4" r="7.5"/>
	<circle class="st0" cx="462.5" cy="362.4" r="7.5"/>
	<circle class="st0" cx="487.5" cy="362.4" r="7.5"/>
	<circle class="st0" cx="512.5" cy="362.4" r="7.5"/>
	<circle class="st0" cx="537.5" cy="362.4" r="7.5"/>
	<circle class="st0" cx="562.5" cy="362.4" r="7.5"/>
	<circle class="st0" cx="612.5" cy="362.4" r="7.5"/>
	<circle class="st0" cx="637.5" cy="362.4" r="7.5"/>
	<circle class="st0" cx="687.5" cy="362.4" r="7.5"/>
	<circle class="st0" cx="712.5" cy="362.4" r="7.5"/>
	<circle class="st0" cx="787.5" cy="362.4" r="7.5"/>
	<circle class="st0" cx="812.5" cy="362.4" r="7.5"/>
	<circle class="st0" cx="837.5" cy="362.4" r="7.5"/>
	<circle class="st0" cx="862.5" cy="362.4" r="7.5"/>
	<circle class="st0" cx="912.5" cy="362.4" r="7.5"/>
	<circle class="st0" cx="987.5" cy="362.4" r="7.5"/>
	<circle class="st0" cx="1037.5" cy="362.4" r="7.5"/>
	<circle class="st0" cx="1062.5" cy="362.4" r="7.5"/>
	<circle class="st0" cx="137.5" cy="387.4" r="7.5"/>
	<circle class="st0" cx="187.5" cy="387.4" r="7.5"/>
	<circle class="st0" cx="237.5" cy="387.4" r="7.5"/>
	<circle class="st0" cx="262.5" cy="387.4" r="7.5"/>
	<circle class="st0" cx="362.5" cy="387.4" r="7.5"/>
	<circle class="st0" cx="412.5" cy="387.4" r="7.5"/>
	<circle class="st0" cx="437.5" cy="387.4" r="7.5"/>
	<circle class="st0" cx="512.5" cy="387.4" r="7.5"/>
	<circle class="st0" cx="562.5" cy="387.4" r="7.5"/>
	<circle class="st0" cx="587.5" cy="387.4" r="7.5"/>
	<circle class="st0" cx="687.5" cy="387.4" r="7.5"/>
	<circle class="st0" cx="712.5" cy="387.4" r="7.5"/>
	<circle class="st0" cx="737.5" cy="387.4" r="7.5"/>
	<circle class="st0" cx="762.5" cy="387.4" r="7.5"/>
	<circle class="st0" cx="787.5" cy="387.4" r="7.5"/>
	<circle class="st0" cx="862.5" cy="387.4" r="7.5"/>
	<circle class="st0" cx="912.5" cy="387.4" r="7.5"/>
	<circle class="st0" cx="62.5" cy="412.4" r="7.5"/>
	<circle class="st0" cx="87.5" cy="412.4" r="7.5"/>
	<circle class="st0" cx="112.5" cy="412.4" r="7.5"/>
	<circle class="st0" cx="162.5" cy="412.4" r="7.5"/>
	<circle class="st0" cx="187.5" cy="412.4" r="7.5"/>
	<circle class="st0" cx="212.5" cy="412.4" r="7.5"/>
	<circle class="st0" cx="287.5" cy="412.4" r="7.5"/>
	<circle class="st0" cx="787.5" cy="412.4" r="7.5"/>
	<circle class="st0" cx="837.5" cy="412.4" r="7.5"/>
	<circle class="st0" cx="912.5" cy="412.4" r="7.5"/>
	<circle class="st0" cx="987.5" cy="412.4" r="7.5"/>
	<circle class="st0" cx="1012.5" cy="412.4" r="7.5"/>
	<circle class="st0" cx="1037.5" cy="412.4" r="7.5"/>
	<circle class="st0" cx="1062.5" cy="412.4" r="7.5"/>
	<circle class="st0" cx="62.5" cy="437.4" r="7.5"/>
	<circle class="st0" cx="87.5" cy="437.4" r="7.5"/>
	<circle class="st0" cx="112.5" cy="437.4" r="7.5"/>
	<circle class="st0" cx="162.5" cy="437.4" r="7.5"/>
	<circle class="st0" cx="262.5" cy="437.4" r="7.5"/>
	<circle class="st0" cx="287.5" cy="437.4" r="7.5"/>
	<circle class="st0" cx="337.5" cy="437.4" r="7.5"/>
	<circle class="st0" cx="387.5" cy="437.4" r="7.5"/>
	<circle class="st0" cx="737.5" cy="437.4" r="7.5"/>
	<circle class="st0" cx="787.5" cy="437.4" r="7.5"/>
	<circle class="st0" cx="862.5" cy="437.4" r="7.5"/>
	<circle class="st0" cx="912.5" cy="437.4" r="7.5"/>
	<circle class="st0" cx="937.5" cy="437.4" r="7.5"/>
	<circle class="st0" cx="987.5" cy="437.4" r="7.5"/>
	<circle class="st0" cx="1037.5" cy="437.4" r="7.5"/>
	<circle class="st0" cx="87.5" cy="462.4" r="7.5"/>
	<circle class="st0" cx="137.5" cy="462.4" r="7.5"/>
	<circle class="st0" cx="162.5" cy="462.4" r="7.5"/>
	<circle class="st0" cx="212.5" cy="462.4" r="7.5"/>
	<circle class="st0" cx="237.5" cy="462.4" r="7.5"/>
	<circle class="st0" cx="312.5" cy="462.4" r="7.5"/>
	<circle class="st0" cx="337.5" cy="462.4" r="7.5"/>
	<circle class="st0" cx="387.5" cy="462.4" r="7.5"/>
	<circle class="st0" cx="762.5" cy="462.4" r="7.5"/>
	<circle class="st0" cx="787.5" cy="462.4" r="7.5"/>
	<circle class="st0" cx="862.5" cy="462.4" r="7.5"/>
	<circle class="st0" cx="937.5" cy="462.4" r="7.5"/>
	<circle class="st0" cx="987.5" cy="462.4" r="7.5"/>
	<circle class="st0" cx="137.5" cy="487.4" r="7.5"/>
	<circle class="st0" cx="237.5" cy="487.4" r="7.5"/>
	<circle class="st0" cx="262.5" cy="487.4" r="7.5"/>
	<circle class="st0" cx="287.5" cy="487.4" r="7.5"/>
	<circle class="st0" cx="337.5" cy="487.4" r="7.5"/>
	<circle class="st0" cx="762.5" cy="487.4" r="7.5"/>
	<circle class="st0" cx="787.5" cy="487.4" r="7.5"/>
	<circle class="st0" cx="812.5" cy="487.4" r="7.5"/>
	<circle class="st0" cx="862.5" cy="487.4" r="7.5"/>
	<circle class="st0" cx="912.5" cy="487.4" r="7.5"/>
	<circle class="st0" cx="937.5" cy="487.4" r="7.5"/>
	<circle class="st0" cx="987.5" cy="487.4" r="7.5"/>
	<circle class="st0" cx="1012.5" cy="487.4" r="7.5"/>
	<circle class="st0" cx="1062.5" cy="487.4" r="7.5"/>
	<circle class="st0" cx="62.5" cy="512.4" r="7.5"/>
	<circle class="st0" cx="87.5" cy="512.4" r="7.5"/>
	<circle class="st0" cx="162.5" cy="512.4" r="7.5"/>
	<circle class="st0" cx="212.5" cy="512.4" r="7.5"/>
	<circle class="st0" cx="337.5" cy="512.4" r="7.5"/>
	<circle class="st0" cx="362.5" cy="512.4" r="7.5"/>
	<circle class="st0" cx="387.5" cy="512.4" r="7.5"/>
	<circle class="st0" cx="787.5" cy="512.4" r="7.5"/>
	<circle class="st0" cx="887.5" cy="512.4" r="7.5"/>
	<circle class="st0" cx="962.5" cy="512.4" r="7.5"/>
	<circle class="st0" cx="1037.5" cy="512.4" r="7.5"/>
	<circle class="st0" cx="1062.5" cy="512.4" r="7.5"/>
	<circle class="st0" cx="87.5" cy="537.4" r="7.5"/>
	<circle class="st0" cx="112.5" cy="537.4" r="7.5"/>
	<circle class="st0" cx="162.5" cy="537.4" r="7.5"/>
	<circle class="st0" cx="187.5" cy="537.4" r="7.5"/>
	<circle class="st0" cx="262.5" cy="537.4" r="7.5"/>
	<circle class="st0" cx="312.5" cy="537.4" r="7.5"/>
	<circle class="st0" cx="337.5" cy="537.4" r="7.5"/>
	<circle class="st0" cx="387.5" cy="537.4" r="7.5"/>
	<circle class="st0" cx="737.5" cy="537.4" r="7.5"/>
	<circle class="st0" cx="837.5" cy="537.4" r="7.5"/>
	<circle class="st0" cx="887.5" cy="537.4" r="7.5"/>
	<circle class="st0" cx="912.5" cy="537.4" r="7.5"/>
	<circle class="st0" cx="937.5" cy="537.4" r="7.5"/>
	<circle class="st0" cx="987.5" cy="537.4" r="7.5"/>
	<circle class="st0" cx="1037.5" cy="537.4" r="7.5"/>
	<circle class="st0" cx="1062.5" cy="537.4" r="7.5"/>
	<circle class="st0" cx="62.5" cy="562.4" r="7.5"/>
	<circle class="st0" cx="137.5" cy="562.4" r="7.5"/>
	<circle class="st0" cx="162.5" cy="562.4" r="7.5"/>
	<circle class="st0" cx="212.5" cy="562.4" r="7.5"/>
	<circle class="st0" cx="237.5" cy="562.4" r="7.5"/>
	<circle class="st0" cx="262.5" cy="562.4" r="7.5"/>
	<circle class="st0" cx="312.5" cy="562.4" r="7.5"/>
	<circle class="st0" cx="362.5" cy="562.4" r="7.5"/>
	<circle class="st0" cx="762.5" cy="562.4" r="7.5"/>
	<circle class="st0" cx="787.5" cy="562.4" r="7.5"/>
	<circle class="st0" cx="862.5" cy="562.4" r="7.5"/>
	<circle class="st0" cx="887.5" cy="562.4" r="7.5"/>
	<circle class="st0" cx="912.5" cy="562.4" r="7.5"/>
	<circle class="st0" cx="937.5" cy="562.4" r="7.5"/>
	<circle class="st0" cx="962.5" cy="562.4" r="7.5"/>
	<circle class="st0" cx="1012.5" cy="562.4" r="7.5"/>
	<circle class="st0" cx="1037.5" cy="562.4" r="7.5"/>
	<circle class="st0" cx="1062.5" cy="562.4" r="7.5"/>
	<circle class="st0" cx="62.5" cy="587.4" r="7.5"/>
	<circle class="st0" cx="87.5" cy="587.4" r="7.5"/>
	<circle class="st0" cx="112.5" cy="587.4" r="7.5"/>
	<circle class="st0" cx="162.5" cy="587.4" r="7.5"/>
	<circle class="st0" cx="187.5" cy="587.4" r="7.5"/>
	<circle class="st0" cx="287.5" cy="587.4" r="7.5"/>
	<circle class="st0" cx="337.5" cy="587.4" r="7.5"/>
	<circle class="st0" cx="387.5" cy="587.4" r="7.5"/>
	<circle class="st0" cx="762.5" cy="587.4" r="7.5"/>
	<circle class="st0" cx="787.5" cy="587.4" r="7.5"/>
	<circle class="st0" cx="862.5" cy="587.4" r="7.5"/>
	<circle class="st0" cx="887.5" cy="587.4" r="7.5"/>
	<circle class="st0" cx="912.5" cy="587.4" r="7.5"/>
	<circle class="st0" cx="962.5" cy="587.4" r="7.5"/>
	<circle class="st0" cx="1012.5" cy="587.4" r="7.5"/>
	<circle class="st0" cx="1037.5" cy="587.4" r="7.5"/>
	<circle class="st0" cx="1062.5" cy="587.4" r="7.5"/>
	<circle class="st0" cx="87.5" cy="612.4" r="7.5"/>
	<circle class="st0" cx="112.5" cy="612.4" r="7.5"/>
	<circle class="st0" cx="162.5" cy="612.4" r="7.5"/>
	<circle class="st0" cx="212.5" cy="612.4" r="7.5"/>
	<circle class="st0" cx="237.5" cy="612.4" r="7.5"/>
	<circle class="st0" cx="262.5" cy="612.4" r="7.5"/>
	<circle class="st0" cx="287.5" cy="612.4" r="7.5"/>
	<circle class="st0" cx="337.5" cy="612.4" r="7.5"/>
	<circle class="st0" cx="787.5" cy="612.4" r="7.5"/>
	<circle class="st0" cx="812.5" cy="612.4" r="7.5"/>
	<circle class="st0" cx="837.5" cy="612.4" r="7.5"/>
	<circle class="st0" cx="862.5" cy="612.4" r="7.5"/>
	<circle class="st0" cx="987.5" cy="612.4" r="7.5"/>
	<circle class="st0" cx="1037.5" cy="612.4" r="7.5"/>
	<circle class="st0" cx="62.5" cy="637.4" r="7.5"/>
	<circle class="st0" cx="112.5" cy="637.4" r="7.5"/>
	<circle class="st0" cx="262.5" cy="637.4" r="7.5"/>
	<circle class="st0" cx="287.5" cy="637.4" r="7.5"/>
	<circle class="st0" cx="337.5" cy="637.4" r="7.5"/>
	<circle class="st0" cx="362.5" cy="637.4" r="7.5"/>
	<circle class="st0" cx="837.5" cy="637.4" r="7.5"/>
	<circle class="st0" cx="862.5" cy="637.4" r="7.5"/>
	<circle class="st0" cx="912.5" cy="637.4" r="7.5"/>
	<circle class="st0" cx="937.5" cy="637.4" r="7.5"/>
	<circle class="st0" cx="962.5" cy="637.4" r="7.5"/>
	<circle class="st0" cx="212.5" cy="662.4" r="7.5"/>
	<circle class="st0" cx="262.5" cy="662.4" r="7.5"/>
	<circle class="st0" cx="287.5" cy="662.4" r="7.5"/>
	<circle class="st0" cx="337.5" cy="662.4" r="7.5"/>
	<circle class="st0" cx="362.5" cy="662.4" r="7.5"/>
	<circle class="st0" cx="387.5" cy="662.4" r="7.5"/>
	<circle class="st0" cx="762.5" cy="662.4" r="7.5"/>
	<circle class="st0" cx="787.5" cy="662.4" r="7.5"/>
	<circle class="st0" cx="862.5" cy="662.4" r="7.5"/>
	<circle class="st0" cx="887.5" cy="662.4" r="7.5"/>
	<circle class="st0" cx="912.5" cy="662.4" r="7.5"/>
	<circle class="st0" cx="1012.5" cy="662.4" r="7.5"/>
	<circle class="st0" cx="1037.5" cy="662.4" r="7.5"/>
	<circle class="st0" cx="62.5" cy="687.4" r="7.5"/>
	<circle class="st0" cx="87.5" cy="687.4" r="7.5"/>
	<circle class="st0" cx="112.5" cy="687.4" r="7.5"/>
	<circle class="st0" cx="162.5" cy="687.4" r="7.5"/>
	<circle class="st0" cx="237.5" cy="687.4" r="7.5"/>
	<circle class="st0" cx="262.5" cy="687.4" r="7.5"/>
	<circle class="st0" cx="287.5" cy="687.4" r="7.5"/>
	<circle class="st0" cx="312.5" cy="687.4" r="7.5"/>
	<circle class="st0" cx="337.5" cy="687.4" r="7.5"/>
	<circle class="st0" cx="837.5" cy="687.4" r="7.5"/>
	<circle class="st0" cx="987.5" cy="687.4" r="7.5"/>
	<circle class="st0" cx="1037.5" cy="687.4" r="7.5"/>
	<circle class="st0" cx="62.5" cy="712.4" r="7.5"/>
	<circle class="st0" cx="87.5" cy="712.4" r="7.5"/>
	<circle class="st0" cx="212.5" cy="712.4" r="7.5"/>
	<circle class="st0" cx="237.5" cy="712.4" r="7.5"/>
	<circle class="st0" cx="287.5" cy="712.4" r="7.5"/>
	<circle class="st0" cx="762.5" cy="712.4" r="7.5"/>
	<circle class="st0" cx="862.5" cy="712.4" r="7.5"/>
	<circle class="st0" cx="887.5" cy="712.4" r="7.5"/>
	<circle class="st0" cx="937.5" cy="712.4" r="7.5"/>
	<circle class="st0" cx="1037.5" cy="712.4" r="7.5"/>
	<circle class="st0" cx="1062.5" cy="712.4" r="7.5"/>
	<circle class="st0" cx="62.5" cy="737.4" r="7.5"/>
	<circle class="st0" cx="112.5" cy="737.4" r="7.5"/>
	<circle class="st0" cx="162.5" cy="737.4" r="7.5"/>
	<circle class="st0" cx="187.5" cy="737.4" r="7.5"/>
	<circle class="st0" cx="262.5" cy="737.4" r="7.5"/>
	<circle class="st0" cx="287.5" cy="737.4" r="7.5"/>
	<circle class="st0" cx="337.5" cy="737.4" r="7.5"/>
	<circle class="st0" cx="362.5" cy="737.4" r="7.5"/>
	<circle class="st0" cx="412.5" cy="737.4" r="7.5"/>
	<circle class="st0" cx="537.5" cy="737.4" r="7.5"/>
	<circle class="st0" cx="587.5" cy="737.4" r="7.5"/>
	<circle class="st0" cx="662.5" cy="737.4" r="7.5"/>
	<circle class="st0" cx="712.5" cy="737.4" r="7.5"/>
	<circle class="st0" cx="787.5" cy="737.4" r="7.5"/>
	<circle class="st0" cx="862.5" cy="737.4" r="7.5"/>
	<circle class="st0" cx="887.5" cy="737.4" r="7.5"/>
	<circle class="st0" cx="912.5" cy="737.4" r="7.5"/>
	<circle class="st0" cx="937.5" cy="737.4" r="7.5"/>
	<circle class="st0" cx="962.5" cy="737.4" r="7.5"/>
	<circle class="st0" cx="112.5" cy="762.4" r="7.5"/>
	<circle class="st0" cx="162.5" cy="762.4" r="7.5"/>
	<circle class="st0" cx="187.5" cy="762.4" r="7.5"/>
	<circle class="st0" cx="212.5" cy="762.4" r="7.5"/>
	<circle class="st0" cx="287.5" cy="762.4" r="7.5"/>
	<circle class="st0" cx="312.5" cy="762.4" r="7.5"/>
	<circle class="st0" cx="337.5" cy="762.4" r="7.5"/>
	<circle class="st0" cx="412.5" cy="762.4" r="7.5"/>
	<circle class="st0" cx="437.5" cy="762.4" r="7.5"/>
	<circle class="st0" cx="487.5" cy="762.4" r="7.5"/>
	<circle class="st0" cx="587.5" cy="762.4" r="7.5"/>
	<circle class="st0" cx="637.5" cy="762.4" r="7.5"/>
	<circle class="st0" cx="662.5" cy="762.4" r="7.5"/>
	<circle class="st0" cx="687.5" cy="762.4" r="7.5"/>
	<circle class="st0" cx="737.5" cy="762.4" r="7.5"/>
	<circle class="st0" cx="787.5" cy="762.4" r="7.5"/>
	<circle class="st0" cx="887.5" cy="762.4" r="7.5"/>
	<circle class="st0" cx="912.5" cy="762.4" r="7.5"/>
	<circle class="st0" cx="1037.5" cy="762.4" r="7.5"/>
	<circle class="st0" cx="1062.5" cy="762.4" r="7.5"/>
	<circle class="st0" cx="87.5" cy="787.4" r="7.5"/>
	<circle class="st0" cx="162.5" cy="787.4" r="7.5"/>
	<circle class="st0" cx="187.5" cy="787.4" r="7.5"/>
	<circle class="st0" cx="237.5" cy="787.4" r="7.5"/>
	<circle class="st0" cx="337.5" cy="787.4" r="7.5"/>
	<circle class="st0" cx="362.5" cy="787.4" r="7.5"/>
	<circle class="st0" cx="387.5" cy="787.4" r="7.5"/>
	<circle class="st0" cx="437.5" cy="787.4" r="7.5"/>
	<circle class="st0" cx="487.5" cy="787.4" r="7.5"/>
	<circle class="st0" cx="512.5" cy="787.4" r="7.5"/>
	<circle class="st0" cx="537.5" cy="787.4" r="7.5"/>
	<circle class="st0" cx="562.5" cy="787.4" r="7.5"/>
	<circle class="st0" cx="587.5" cy="787.4" r="7.5"/>
	<circle class="st0" cx="612.5" cy="787.4" r="7.5"/>
	<circle class="st0" cx="662.5" cy="787.4" r="7.5"/>
	<circle class="st0" cx="712.5" cy="787.4" r="7.5"/>
	<circle class="st0" cx="737.5" cy="787.4" r="7.5"/>
	<circle class="st0" cx="762.5" cy="787.4" r="7.5"/>
	<circle class="st0" cx="837.5" cy="787.4" r="7.5"/>
	<circle class="st0" cx="862.5" cy="787.4" r="7.5"/>
	<circle class="st0" cx="887.5" cy="787.4" r="7.5"/>
	<circle class="st0" cx="937.5" cy="787.4" r="7.5"/>
	<circle class="st0" cx="1062.5" cy="787.4" r="7.5"/>
	<circle class="st0" cx="62.5" cy="812.4" r="7.5"/>
	<circle class="st0" cx="112.5" cy="812.4" r="7.5"/>
	<circle class="st0" cx="137.5" cy="812.4" r="7.5"/>
	<circle class="st0" cx="187.5" cy="812.4" r="7.5"/>
	<circle class="st0" cx="212.5" cy="812.4" r="7.5"/>
	<circle class="st0" cx="237.5" cy="812.4" r="7.5"/>
	<circle class="st0" cx="262.5" cy="812.4" r="7.5"/>
	<circle class="st0" cx="287.5" cy="812.4" r="7.5"/>
	<circle class="st0" cx="312.5" cy="812.4" r="7.5"/>
	<circle class="st0" cx="387.5" cy="812.4" r="7.5"/>
	<circle class="st0" cx="437.5" cy="812.4" r="7.5"/>
	<circle class="st0" cx="462.5" cy="812.4" r="7.5"/>
	<circle class="st0" cx="562.5" cy="812.4" r="7.5"/>
	<circle class="st0" cx="637.5" cy="812.4" r="7.5"/>
	<circle class="st0" cx="687.5" cy="812.4" r="7.5"/>
	<circle class="st0" cx="737.5" cy="812.4" r="7.5"/>
	<circle class="st0" cx="762.5" cy="812.4" r="7.5"/>
	<circle class="st0" cx="937.5" cy="812.4" r="7.5"/>
	<circle class="st0" cx="962.5" cy="812.4" r="7.5"/>
	<circle class="st0" cx="1037.5" cy="812.4" r="7.5"/>
	<circle class="st0" cx="1062.5" cy="812.4" r="7.5"/>
	<circle class="st0" cx="137.5" cy="837.4" r="7.5"/>
	<circle class="st0" cx="162.5" cy="837.4" r="7.5"/>
	<circle class="st0" cx="262.5" cy="837.4" r="7.5"/>
	<circle class="st0" cx="337.5" cy="837.4" r="7.5"/>
	<circle class="st0" cx="537.5" cy="837.4" r="7.5"/>
	<circle class="st0" cx="637.5" cy="837.4" r="7.5"/>
	<circle class="st0" cx="687.5" cy="837.4" r="7.5"/>
	<circle class="st0" cx="787.5" cy="837.4" r="7.5"/>
	<circle class="st0" cx="887.5" cy="837.4" r="7.5"/>
	<circle class="st0" cx="987.5" cy="837.4" r="7.5"/>
	<circle class="st0" cx="62.5" cy="862.4" r="7.5"/>
	<circle class="st0" cx="137.5" cy="862.4" r="7.5"/>
	<circle class="st0" cx="187.5" cy="862.4" r="7.5"/>
	<circle class="st0" cx="212.5" cy="862.4" r="7.5"/>
	<circle class="st0" cx="237.5" cy="862.4" r="7.5"/>
	<circle class="st0" cx="362.5" cy="862.4" r="7.5"/>
	<circle class="st0" cx="387.5" cy="862.4" r="7.5"/>
	<circle class="st0" cx="437.5" cy="862.4" r="7.5"/>
	<circle class="st0" cx="462.5" cy="862.4" r="7.5"/>
	<circle class="st0" cx="487.5" cy="862.4" r="7.5"/>
	<circle class="st0" cx="512.5" cy="862.4" r="7.5"/>
	<circle class="st0" cx="537.5" cy="862.4" r="7.5"/>
	<circle class="st0" cx="612.5" cy="862.4" r="7.5"/>
	<circle class="st0" cx="662.5" cy="862.4" r="7.5"/>
	<circle class="st0" cx="737.5" cy="862.4" r="7.5"/>
	<circle class="st0" cx="762.5" cy="862.4" r="7.5"/>
	<circle class="st0" cx="812.5" cy="862.4" r="7.5"/>
	<circle class="st0" cx="862.5" cy="862.4" r="7.5"/>
	<circle class="st0" cx="887.5" cy="862.4" r="7.5"/>
	<circle class="st0" cx="912.5" cy="862.4" r="7.5"/>
	<circle class="st0" cx="937.5" cy="862.4" r="7.5"/>
	<circle class="st0" cx="962.5" cy="862.4" r="7.5"/>
	<circle class="st0" cx="1012.5" cy="862.4" r="7.5"/>
	<circle class="st0" cx="1037.5" cy="862.4" r="7.5"/>
	<circle class="st0" cx="262.5" cy="887.4" r="7.5"/>
	<circle class="st0" cx="337.5" cy="887.4" r="7.5"/>
	<circle class="st0" cx="387.5" cy="887.4" r="7.5"/>
	<circle class="st0" cx="412.5" cy="887.4" r="7.5"/>
	<circle class="st0" cx="437.5" cy="887.4" r="7.5"/>
	<circle class="st0" cx="462.5" cy="887.4" r="7.5"/>
	<circle class="st0" cx="512.5" cy="887.4" r="7.5"/>
	<circle class="st0" cx="562.5" cy="887.4" r="7.5"/>
	<circle class="st0" cx="587.5" cy="887.4" r="7.5"/>
	<circle class="st0" cx="612.5" cy="887.4" r="7.5"/>
	<circle class="st0" cx="762.5" cy="887.4" r="7.5"/>
	<circle class="st0" cx="787.5" cy="887.4" r="7.5"/>
	<circle class="st0" cx="862.5" cy="887.4" r="7.5"/>
	<circle class="st0" cx="962.5" cy="887.4" r="7.5"/>
	<circle class="st0" cx="1012.5" cy="887.4" r="7.5"/>
	<circle class="st0" cx="1062.5" cy="887.4" r="7.5"/>
	<circle class="st0" cx="287.5" cy="912.4" r="7.5"/>
	<circle class="st0" cx="312.5" cy="912.4" r="7.5"/>
	<circle class="st0" cx="387.5" cy="912.4" r="7.5"/>
	<circle class="st0" cx="412.5" cy="912.4" r="7.5"/>
	<circle class="st0" cx="437.5" cy="912.4" r="7.5"/>
	<circle class="st0" cx="512.5" cy="912.4" r="7.5"/>
	<circle class="st0" cx="587.5" cy="912.4" r="7.5"/>
	<circle class="st0" cx="612.5" cy="912.4" r="7.5"/>
	<circle class="st0" cx="712.5" cy="912.4" r="7.5"/>
	<circle class="st0" cx="812.5" cy="912.4" r="7.5"/>
	<circle class="st0" cx="862.5" cy="912.4" r="7.5"/>
	<circle class="st0" cx="912.5" cy="912.4" r="7.5"/>
	<circle class="st0" cx="962.5" cy="912.4" r="7.5"/>
	<circle class="st0" cx="1037.5" cy="912.4" r="7.5"/>
	<circle class="st0" cx="287.5" cy="937.4" r="7.5"/>
	<circle class="st0" cx="337.5" cy="937.4" r="7.5"/>
	<circle class="st0" cx="387.5" cy="937.4" r="7.5"/>
	<circle class="st0" cx="412.5" cy="937.4" r="7.5"/>
	<circle class="st0" cx="437.5" cy="937.4" r="7.5"/>
	<circle class="st0" cx="487.5" cy="937.4" r="7.5"/>
	<circle class="st0" cx="537.5" cy="937.4" r="7.5"/>
	<circle class="st0" cx="562.5" cy="937.4" r="7.5"/>
	<circle class="st0" cx="587.5" cy="937.4" r="7.5"/>
	<circle class="st0" cx="612.5" cy="937.4" r="7.5"/>
	<circle class="st0" cx="662.5" cy="937.4" r="7.5"/>
	<circle class="st0" cx="762.5" cy="937.4" r="7.5"/>
	<circle class="st0" cx="812.5" cy="937.4" r="7.5"/>
	<circle class="st0" cx="862.5" cy="937.4" r="7.5"/>
	<circle class="st0" cx="962.5" cy="937.4" r="7.5"/>
	<circle class="st0" cx="1012.5" cy="937.4" r="7.5"/>
	<circle class="st0" cx="1062.5" cy="937.4" r="7.5"/>
	<circle class="st0" cx="287.5" cy="962.4" r="7.5"/>
	<circle class="st0" cx="412.5" cy="962.4" r="7.5"/>
	<circle class="st0" cx="462.5" cy="962.4" r="7.5"/>
	<circle class="st0" cx="512.5" cy="962.4" r="7.5"/>
	<circle class="st0" cx="612.5" cy="962.4" r="7.5"/>
	<circle class="st0" cx="637.5" cy="962.4" r="7.5"/>
	<circle class="st0" cx="687.5" cy="962.4" r="7.5"/>
	<circle class="st0" cx="712.5" cy="962.4" r="7.5"/>
	<circle class="st0" cx="737.5" cy="962.4" r="7.5"/>
	<circle class="st0" cx="812.5" cy="962.4" r="7.5"/>
	<circle class="st0" cx="862.5" cy="962.4" r="7.5"/>
	<circle class="st0" cx="887.5" cy="962.4" r="7.5"/>
	<circle class="st0" cx="912.5" cy="962.4" r="7.5"/>
	<circle class="st0" cx="937.5" cy="962.4" r="7.5"/>
	<circle class="st0" cx="962.5" cy="962.4" r="7.5"/>
	<circle class="st0" cx="1062.5" cy="962.4" r="7.5"/>
	<circle class="st0" cx="262.5" cy="987.4" r="7.5"/>
	<circle class="st0" cx="287.5" cy="987.4" r="7.5"/>
	<circle class="st0" cx="312.5" cy="987.4" r="7.5"/>
	<circle class="st0" cx="362.5" cy="987.4" r="7.5"/>
	<circle class="st0" cx="387.5" cy="987.4" r="7.5"/>
	<circle class="st0" cx="537.5" cy="987.4" r="7.5"/>
	<circle class="st0" cx="562.5" cy="987.4" r="7.5"/>
	<circle class="st0" cx="587.5" cy="987.4" r="7.5"/>
	<circle class="st0" cx="612.5" cy="987.4" r="7.5"/>
	<circle class="st0" cx="637.5" cy="987.4" r="7.5"/>
	<circle class="st0" cx="662.5" cy="987.4" r="7.5"/>
	<circle class="st0" cx="687.5" cy="987.4" r="7.5"/>
	<circle class="st0" cx="812.5" cy="987.4" r="7.5"/>
	<circle class="st0" cx="887.5" cy="987.4" r="7.5"/>
	<circle class="st0" cx="912.5" cy="987.4" r="7.5"/>
	<circle class="st0" cx="962.5" cy="987.4" r="7.5"/>
	<circle class="st0" cx="1037.5" cy="987.4" r="7.5"/>
	<circle class="st0" cx="312.5" cy="1012.4" r="7.5"/>
	<circle class="st0" cx="337.5" cy="1012.4" r="7.5"/>
	<circle class="st0" cx="387.5" cy="1012.4" r="7.5"/>
	<circle class="st0" cx="437.5" cy="1012.4" r="7.5"/>
	<circle class="st0" cx="512.5" cy="1012.4" r="7.5"/>
	<circle class="st0" cx="537.5" cy="1012.4" r="7.5"/>
	<circle class="st0" cx="562.5" cy="1012.4" r="7.5"/>
	<circle class="st0" cx="587.5" cy="1012.4" r="7.5"/>
	<circle class="st0" cx="837.5" cy="1012.4" r="7.5"/>
	<circle class="st0" cx="962.5" cy="1012.4" r="7.5"/>
	<circle class="st0" cx="987.5" cy="1012.4" r="7.5"/>
	<circle class="st0" cx="1062.5" cy="1012.4" r="7.5"/>
	<circle class="st0" cx="287.5" cy="1037.4" r="7.5"/>
	<circle class="st0" cx="362.5" cy="1037.4" r="7.5"/>
	<circle class="st0" cx="412.5" cy="1037.4" r="7.5"/>
	<circle class="st0" cx="437.5" cy="1037.4" r="7.5"/>
	<circle class="st0" cx="462.5" cy="1037.4" r="7.5"/>
	<circle class="st0" cx="487.5" cy="1037.4" r="7.5"/>
	<circle class="st0" cx="512.5" cy="1037.4" r="7.5"/>
	<circle class="st0" cx="562.5" cy="1037.4" r="7.5"/>
	<circle class="st0" cx="612.5" cy="1037.4" r="7.5"/>
	<circle class="st0" cx="662.5" cy="1037.4" r="7.5"/>
	<circle class="st0" cx="712.5" cy="1037.4" r="7.5"/>
	<circle class="st0" cx="762.5" cy="1037.4" r="7.5"/>
	<circle class="st0" cx="787.5" cy="1037.4" r="7.5"/>
	<circle class="st0" cx="812.5" cy="1037.4" r="7.5"/>
	<circle class="st0" cx="862.5" cy="1037.4" r="7.5"/>
	<circle class="st0" cx="887.5" cy="1037.4" r="7.5"/>
	<circle class="st0" cx="912.5" cy="1037.4" r="7.5"/>
	<circle class="st0" cx="937.5" cy="1037.4" r="7.5"/>
	<circle class="st0" cx="987.5" cy="1037.4" r="7.5"/>
	<circle class="st0" cx="1037.5" cy="1037.4" r="7.5"/>
	<circle class="st0" cx="362.5" cy="1062.4" r="7.5"/>
	<circle class="st0" cx="387.5" cy="1062.4" r="7.5"/>
	<circle class="st0" cx="412.5" cy="1062.4" r="7.5"/>
	<circle class="st0" cx="437.5" cy="1062.4" r="7.5"/>
	<circle class="st0" cx="487.5" cy="1062.4" r="7.5"/>
	<circle class="st0" cx="512.5" cy="1062.4" r="7.5"/>
	<circle class="st0" cx="562.5" cy="1062.4" r="7.5"/>
	<circle class="st0" cx="587.5" cy="1062.4" r="7.5"/>
	<circle class="st0" cx="612.5" cy="1062.4" r="7.5"/>
	<circle class="st0" cx="662.5" cy="1062.4" r="7.5"/>
	<circle class="st0" cx="737.5" cy="1062.4" r="7.5"/>
	<circle class="st0" cx="787.5" cy="1062.4" r="7.5"/>
	<circle class="st0" cx="862.5" cy="1062.4" r="7.5"/>
	<circle class="st0" cx="887.5" cy="1062.4" r="7.5"/>
	<circle class="st0" cx="937.5" cy="1062.4" r="7.5"/>
	<circle class="st0" cx="962.5" cy="1062.4" r="7.5"/>
	<circle class="st0" cx="1012.5" cy="1062.4" r="7.5"/>
	<circle class="st0" cx="1037.5" cy="1062.4" r="7.5"/>
	<path class="st0" d="M137.5,51.7c-47.4,0-85.8,38.4-85.8,85.8s38.4,85.8,85.8,85.8s85.8-38.4,85.8-85.8S184.9,51.7,137.5,51.7z
		 M137.5,197.5c-33.1,0-60-26.9-60-60s26.9-60,60-60s60,26.9,60,60S170.6,197.5,137.5,197.5z"/>
	<path class="st0" d="M987.5,51.7c-47.4,0-85.8,38.4-85.8,85.8s38.4,85.8,85.8,85.8c47.4,0,85.8-38.4,85.8-85.8
		S1034.9,51.7,987.5,51.7z M987.5,197.5c-33.1,0-60-26.9-60-60s26.9-60,60-60s60,26.9,60,60S1020.6,197.5,987.5,197.5z"/>
	<path class="st0" d="M137.5,901.7c-47.4,0-85.8,38.4-85.8,85.8c0,47.4,38.4,85.8,85.8,85.8s85.8-38.4,85.8-85.8
		C223.3,940.1,184.9,901.7,137.5,901.7z M137.5,1047.5c-33.1,0-60-26.9-60-60s26.9-60,60-60s60,26.9,60,60
		S170.6,1047.5,137.5,1047.5z"/>
	<circle class="st0" cx="136.8" cy="136.7" r="36.8"/>
	<circle class="st0" cx="986.8" cy="136.7" r="36.8"/>
	<circle class="st0" cx="136.8" cy="986.7" r="36.8"/>
</g>
<g id="ESMS_logo">
	<path class="st0" d="M488.5,548.2h35.4c-8-7.8-13.2-18-14.8-29.1H480C480.9,529.2,483.8,539.1,488.5,548.2z"/>
	<path class="st0" d="M640.6,519.1h-29.1c-1.6,11.1-6.8,21.3-14.8,29.1h35.4C636.8,539.1,639.6,529.2,640.6,519.1z"/>
	<path class="st0" d="M498.5,563.2c28.8,34.1,79.9,38.4,114,9.5c3.4-2.9,6.6-6.1,9.5-9.5H498.5z"/>
	<path class="st0" d="M509.1,504.1c3.7-24.9,25.2-44,51.2-44s47.5,19.1,51.2,44h29.1c-3.8-40.8-38.3-72.8-80.3-72.8
		s-76.5,32-80.3,72.8L509.1,504.1L509.1,504.1z"/>
	<ellipse class="st0" cx="560.3" cy="511.6" rx="36.7" ry="36.5"/>
	<path class="st0" d="M471.1,664.4h-27v18.3h31.7V694h-45.7v-68.2h45.6v11.4h-31.6v16.3h27V664.4z"/>
	<path class="st0" d="M527.3,676c0-2.7-0.9-4.7-2.8-6.1s-5.2-2.9-10.1-4.5c-4.9-1.6-8.7-3.1-11.6-4.7c-7.7-4.2-11.6-9.8-11.6-16.9
		c0-3.5,1-7,3.1-9.9s5.1-5.1,8.9-6.8c3.9-1.6,8.3-2.4,13.1-2.4c4.9,0,9.2,0.9,13,2.6c3.8,1.8,6.8,4.3,8.9,7.5s3.2,6.9,3.2,11h-14.1
		c0-3.1-1-5.5-3-7.3c-2-1.7-4.7-2.6-8.3-2.6c-3.4,0-6.1,0.7-8,2.2c-1.8,1.3-2.9,3.5-2.9,5.7s1.1,4.1,3.3,5.6
		c2.2,1.5,5.5,2.9,9.9,4.2c8,2.4,13.8,5.4,17.5,8.9c3.7,3.6,5.5,8,5.5,13.3c0,5.9-2.2,10.5-6.7,13.9s-10.5,5-18,5
		c-5.2,0-10-1-14.3-2.9s-7.6-4.6-9.9-7.9s-3.4-7.2-3.4-11.6h14.1c0,7.5,4.5,11.3,13.5,11.3c3.3,0,5.9-0.7,7.8-2
		S527.3,678.5,527.3,676z"/>
	<path class="st0" d="M575.7,625.7l17.5,49.5l17.4-49.5h18.5v68.2H615v-18.6l1.4-32.2L598,693.9h-9.6L570,643.1l1.4,32.1v18.6h-14.1
		v-68.2L575.7,625.7z"/>
	<path class="st0" d="M691.6,666.1h-27V694h-14.1v-68.2h44.4v11.4h-30.3v17.6h27L691.6,666.1L691.6,666.1z"/>
</g>
</svg>
