<?xml version="1.0" encoding="utf-8"?>
<!-- Generator: Adobe Illustrator 24.2.3, SVG Export Plug-In . SVG Version: 6.00 Build 0)  -->
<svg version="1.1" id="Layer_1" xmlns="http://www.w3.org/2000/svg" xmlns:xlink="http://www.w3.org/1999/xlink" x="0px" y="0px"
	 viewBox="0 0 1125 1125" style="enable-background:new 0 0 1125 1125;" xml:space="preserve">
<style type="text/css">
	.st0{fill:none;}
</style>
<g id="QR_code">
	<circle cx="262.5" cy="62.5" r="7.5"/>
	<circle cx="312.5" cy="62.5" r="7.5"/>
	<circle cx="337.5" cy="62.5" r="7.5"/>
	<circle cx="362.5" cy="62.5" r="7.5"/>
	<circle cx="412.5" cy="62.5" r="7.5"/>
	<circle cx="462.5" cy="62.5" r="7.5"/>
	<circle cx="487.5" cy="62.5" r="7.5"/>
	<circle cx="512.5" cy="62.5" r="7.5"/>
	<circle cx="537.5" cy="62.5" r="7.5"/>
	<circle cx="612.5" cy="62.5" r="7.5"/>
	<circle cx="687.5" cy="62.5" r="7.5"/>
	<circle cx="712.5" cy="62.5" r="7.5"/>
	<circle cx="737.5" cy="62.5" r="7.5"/>
	<circle cx="812.5" cy="62.5" r="7.5"/>
	<circle cx="837.5" cy="62.5" r="7.5"/>
	<circle cx="262.5" cy="87.5" r="7.5"/>
	<circle cx="362.5" cy="87.5" r="7.5"/>
	<circle cx="387.5" cy="87.5" r="7.5"/>
	<circle cx="412.5" cy="87.5" r="7.5"/>
	<circle cx="512.5" cy="87.5" r="7.5"/>
	<circle cx="562.5" cy="87.5" r="7.5"/>
	<circle cx="587.5" cy="87.5" r="7.5"/>
	<circle cx="637.5" cy="87.5" r="7.5"/>
	<circle cx="662.5" cy="87.5" r="7.5"/>
	<circle cx="687.5" cy="87.5" r="7.5"/>
	<circle cx="712.5" cy="87.5" r="7.5"/>
	<circle cx="737.5" cy="87.5" r="7.5"/>
	<circle cx="787.5" cy="87.5" r="7.5"/>
	<circle cx="862.5" cy="87.5" r="7.5"/>
	<circle cx="387.5" cy="112.5" r="7.5"/>
	<circle cx="412.5" cy="112.5" r="7.5"/>
	<circle cx="562.5" cy="112.5" r="7.5"/>
	<circle cx="587.5" cy="112.5" r="7.5"/>
	<circle cx="687.5" cy="112.5" r="7.5"/>
	<circle cx="737.5" cy="112.5" r="7.5"/>
	<circle cx="762.5" cy="112.5" r="7.5"/>
	<circle cx="787.5" cy="112.5" r="7.5"/>
	<circle cx="837.5" cy="112.5" r="7.5"/>
	<circle cx="862.5" cy="112.5" r="7.5"/>
	<circle cx="262.5" cy="137.5" r="7.5"/>
	<circle cx="337.5" cy="137.5" r="7.5"/>
	<circle cx="412.5" cy="137.5" r="7.5"/>
	<circle cx="462.5" cy="137.5" r="7.5"/>
	<circle cx="512.5" cy="137.5" r="7.5"/>
	<circle cx="587.5" cy="137.5" r="7.5"/>
	<circle cx="612.5" cy="137.5" r="7.5"/>
	<circle cx="662.5" cy="137.5" r="7.5"/>
	<circle cx="687.5" cy="137.5" r="7.5"/>
	<circle cx="712.5" cy="137.5" r="7.5"/>
	<circle cx="737.5" cy="137.5" r="7.5"/>
	<circle cx="787.5" cy="137.5" r="7.5"/>
	<circle cx="262.5" cy="162.5" r="7.5"/>
	<circle cx="312.5" cy="162.5" r="7.5"/>
	<circle cx="337.5" cy="162.5" r="7.5"/>
	<circle cx="412.5" cy="162.5" r="7.5"/>
	<circle cx="437.5" cy="162.5" r="7.5"/>
	<circle cx="462.5" cy="162.5" r="7.5"/>
	<circle cx="537.5" cy="162.5" r="7.5"/>
	<circle cx="637.5" cy="162.5" r="7.5"/>
	<circle cx="662.5" cy="162.5" r="7.5"/>
	<circle cx="712.5" cy="162.5" r="7.5"/>
	<circle cx="737.5" cy="162.5" r="7.5"/>
	<circle cx="262.5" cy="187.5" r="7.5"/>
	<circle cx="287.5" cy="187.5" r="7.5"/>
	<circle cx="312.5" cy="187.5" r="7.5"/>
	<circle cx="337.5" cy="187.5" r="7.5"/>
	<circle cx="387.5" cy="187.5" r="7.5"/>
	<circle cx="412.5" cy="187.5" r="7.5"/>
	<circle cx="437.5" cy="187.5" r="7.5"/>
	<circle cx="462.5" cy="187.5" r="7.5"/>
	<circle cx="487.5" cy="187.5" r="7.5"/>
	<circle cx="562.5" cy="187.5" r="7.5"/>
	<circle cx="587.5" cy="187.5" r="7.5"/>
	<circle cx="612.5" cy="187.5" r="7.5"/>
	<circle cx="637.5" cy="187.5" r="7.5"/>
	<circle cx="737.5" cy="187.5" r="7.5"/>
	<circle cx="762.5" cy="187.5" r="7.5"/>
	<circle cx="837.5" cy="187.5" r="7.5"/>
	<circle cx="262.5" cy="212.5" r="7.5"/>
	<circle cx="312.5" cy="212.5" r="7.5"/>
	<circle cx="362.5" cy="212.5" r="7.5"/>
	<circle cx="412.5" cy="212.5" r="7.5"/>
	<circle cx="462.5" cy="212.5" r="7.5"/>
	<circle cx="512.5" cy="212.5" r="7.5"/>
	<circle cx="562.5" cy="212.5" r="7.5"/>
	<circle cx="612.5" cy="212.5" r="7.5"/>
	<circle cx="662.5" cy="212.5" r="7.5"/>
	<circle cx="712.5" cy="212.5" r="7.5"/>
	<circle cx="762.5" cy="212.5" r="7.5"/>
	<circle cx="812.5" cy="212.5" r="7.5"/>
	<circle cx="862.5" cy="212.5" r="7.5"/>
	<circle cx="337.5" cy="237.5" r="7.5"/>
	<circle cx="387.5" cy="237.5" r="7.5"/>
	<circle cx="437.5" cy="237.5" r="7.5"/>
	<circle cx="462.5" cy="237.5" r="7.5"/>
	<circle cx="587.5" cy="237.5" r="7.5"/>
	<circle cx="662.5" cy="237.5" r="7.5"/>
	<circle cx="712.5" cy="237.5" r="7.5"/>
	<circle cx="787.5" cy="237.5" r="7.5"/>
	<circle cx="837.5" cy="237.5" r="7.5"/>
	<circle cx="137.5" cy="262.5" r="7.5"/>
	<circle cx="212.5" cy="262.5" r="7.5"/>
	<circle cx="287.5" cy="262.5" r="7.5"/>
	<circle cx="337.5" cy="262.5" r="7.5"/>
	<circle cx="362.5" cy="262.5" r="7.5"/>
	<circle cx="437.5" cy="262.5" r="7.5"/>
	<circle cx="462.5" cy="262.5" r="7.5"/>
	<circle cx="512.5" cy="262.5" r="7.5"/>
	<circle cx="537.5" cy="262.5" r="7.5"/>
	<circle cx="562.5" cy="262.5" r="7.5"/>
	<circle cx="587.5" cy="262.5" r="7.5"/>
	<circle cx="712.5" cy="262.5" r="7.5"/>
	<circle cx="762.5" cy="262.5" r="7.5"/>
	<circle cx="862.5" cy="262.5" r="7.5"/>
	<circle cx="937.5" cy="262.5" r="7.5"/>
	<circle cx="962.5" cy="262.5" r="7.5"/>
	<circle cx="987.5" cy="262.5" r="7.5"/>
	<circle cx="1037.5" cy="262.5" r="7.5"/>
	<circle cx="1062.5" cy="262.5" r="7.5"/>
	<circle cx="112.5" cy="287.5" r="7.5"/>
	<circle cx="137.5" cy="287.5" r="7.5"/>
	<circle cx="162.5" cy="287.5" r="7.5"/>
	<circle cx="262.5" cy="287.5" r="7.5"/>
	<circle cx="337.5" cy="287.5" r="7.5"/>
	<circle cx="362.5" cy="287.5" r="7.5"/>
	<circle cx="437.5" cy="287.5" r="7.5"/>
	<circle cx="487.5" cy="287.5" r="7.5"/>
	<circle cx="512.5" cy="287.5" r="7.5"/>
	<circle cx="562.5" cy="287.5" r="7.5"/>
	<circle cx="587.5" cy="287.5" r="7.5"/>
	<circle cx="637.5" cy="287.5" r="7.5"/>
	<circle cx="712.5" cy="287.5" r="7.5"/>
	<circle cx="762.5" cy="287.5" r="7.5"/>
	<circle cx="787.5" cy="287.5" r="7.5"/>
	<circle cx="812.5" cy="287.5" r="7.5"/>
	<circle cx="862.5" cy="287.5" r="7.5"/>
	<circle cx="887.5" cy="287.5" r="7.5"/>
	<circle cx="912.5" cy="287.5" r="7.5"/>
	<circle cx="987.5" cy="287.5" r="7.5"/>
	<circle cx="1012.5" cy="287.5" r="7.5"/>
	<circle cx="1037.5" cy="287.5" r="7.5"/>
	<circle cx="162.5" cy="312.5" r="7.5"/>
	<circle cx="212.5" cy="312.5" r="7.5"/>
	<circle cx="262.5" cy="312.5" r="7.5"/>
	<circle cx="287.5" cy="312.5" r="7.5"/>
	<circle cx="337.5" cy="312.5" r="7.5"/>
	<circle cx="362.5" cy="312.5" r="7.5"/>
	<circle cx="462.5" cy="312.5" r="7.5"/>
	<circle cx="512.5" cy="312.5" r="7.5"/>
	<circle cx="537.5" cy="312.5" r="7.5"/>
	<circle cx="562.5" cy="312.5" r="7.5"/>
	<circle cx="612.5" cy="312.5" r="7.5"/>
	<circle cx="687.5" cy="312.5" r="7.5"/>
	<circle cx="712.5" cy="312.5" r="7.5"/>
	<circle cx="762.5" cy="312.5" r="7.5"/>
	<circle cx="837.5" cy="312.5" r="7.5"/>
	<circle cx="937.5" cy="312.5" r="7.5"/>
	<circle cx="962.5" cy="312.5" r="7.5"/>
	<circle cx="987.5" cy="312.5" r="7.5"/>
	<circle cx="1012.5" cy="312.5" r="7.5"/>
	<circle cx="62.5" cy="337.5" r="7.5"/>
	<circle cx="137.5" cy="337.5" r="7.5"/>
	<circle cx="162.5" cy="337.5" r="7.5"/>
	<circle cx="187.5" cy="337.5" r="7.5"/>
	<circle cx="237.5" cy="337.5" r="7.5"/>
	<circle cx="287.5" cy="337.5" r="7.5"/>
	<circle cx="312.5" cy="337.5" r="7.5"/>
	<circle cx="412.5" cy="337.5" r="7.5"/>
	<circle cx="487.5" cy="337.5" r="7.5"/>
	<circle cx="537.5" cy="337.5" r="7.5"/>
	<circle cx="562.5" cy="337.5" r="7.5"/>
	<circle cx="587.5" cy="337.5" r="7.5"/>
	<circle cx="612.5" cy="337.5" r="7.5"/>
	<circle cx="687.5" cy="337.5" r="7.5"/>
	<circle cx="737.5" cy="337.5" r="7.5"/>
	<circle cx="762.5" cy="337.5" r="7.5"/>
	<circle cx="812.5" cy="337.5" r="7.5"/>
	<circle cx="937.5" cy="337.5" r="7.5"/>
	<circle cx="1012.5" cy="337.5" r="7.5"/>
	<circle cx="1037.5" cy="337.5" r="7.5"/>
	<circle cx="1062.5" cy="337.5" r="7.5"/>
	<circle cx="62.5" cy="362.5" r="7.5"/>
	<circle cx="87.5" cy="362.5" r="7.5"/>
	<circle cx="137.5" cy="362.5" r="7.5"/>
	<circle cx="187.5" cy="362.5" r="7.5"/>
	<circle cx="212.5" cy="362.5" r="7.5"/>
	<circle cx="237.5" cy="362.5" r="7.5"/>
	<circle cx="387.5" cy="362.5" r="7.5"/>
	<circle cx="412.5" cy="362.5" r="7.5"/>
	<circle cx="462.5" cy="362.5" r="7.5"/>
	<circle cx="487.5" cy="362.5" r="7.5"/>
	<circle cx="512.5" cy="362.5" r="7.5"/>
	<circle cx="537.5" cy="362.5" r="7.5"/>
	<circle cx="562.5" cy="362.5" r="7.5"/>
	<circle cx="612.5" cy="362.5" r="7.5"/>
	<circle cx="637.5" cy="362.5" r="7.5"/>
	<circle cx="687.5" cy="362.5" r="7.5"/>
	<circle cx="712.5" cy="362.5" r="7.5"/>
	<circle cx="787.5" cy="362.5" r="7.5"/>
	<circle cx="812.5" cy="362.5" r="7.5"/>
	<circle cx="837.5" cy="362.5" r="7.5"/>
	<circle cx="862.5" cy="362.5" r="7.5"/>
	<circle cx="912.5" cy="362.5" r="7.5"/>
	<circle cx="987.5" cy="362.5" r="7.5"/>
	<circle cx="1037.5" cy="362.5" r="7.5"/>
	<circle cx="1062.5" cy="362.5" r="7.5"/>
	<circle cx="137.5" cy="387.5" r="7.5"/>
	<circle cx="187.5" cy="387.5" r="7.5"/>
	<circle cx="237.5" cy="387.5" r="7.5"/>
	<circle cx="262.5" cy="387.5" r="7.5"/>
	<circle cx="362.5" cy="387.5" r="7.5"/>
	<circle cx="412.5" cy="387.5" r="7.5"/>
	<circle cx="437.5" cy="387.5" r="7.5"/>
	<circle cx="512.5" cy="387.5" r="7.5"/>
	<circle cx="562.5" cy="387.5" r="7.5"/>
	<circle cx="587.5" cy="387.5" r="7.5"/>
	<circle cx="687.5" cy="387.5" r="7.5"/>
	<circle cx="712.5" cy="387.5" r="7.5"/>
	<circle cx="737.5" cy="387.5" r="7.5"/>
	<circle cx="762.5" cy="387.5" r="7.5"/>
	<circle cx="787.5" cy="387.5" r="7.5"/>
	<circle cx="862.5" cy="387.5" r="7.5"/>
	<circle cx="912.5" cy="387.5" r="7.5"/>
	<circle cx="62.5" cy="412.5" r="7.5"/>
	<circle cx="87.5" cy="412.5" r="7.5"/>
	<circle cx="112.5" cy="412.5" r="7.5"/>
	<circle cx="162.5" cy="412.5" r="7.5"/>
	<circle cx="187.5" cy="412.5" r="7.5"/>
	<circle cx="212.5" cy="412.5" r="7.5"/>
	<circle cx="287.5" cy="412.5" r="7.5"/>
	<circle cx="787.5" cy="412.5" r="7.5"/>
	<circle cx="837.5" cy="412.5" r="7.5"/>
	<circle cx="912.5" cy="412.5" r="7.5"/>
	<circle cx="987.5" cy="412.5" r="7.5"/>
	<circle cx="1012.5" cy="412.5" r="7.5"/>
	<circle cx="1037.5" cy="412.5" r="7.5"/>
	<circle cx="1062.5" cy="412.5" r="7.5"/>
	<circle cx="62.5" cy="437.5" r="7.5"/>
	<circle cx="87.5" cy="437.5" r="7.5"/>
	<circle cx="112.5" cy="437.5" r="7.5"/>
	<circle cx="162.5" cy="437.5" r="7.5"/>
	<circle cx="262.5" cy="437.5" r="7.5"/>
	<circle cx="287.5" cy="437.5" r="7.5"/>
	<circle cx="337.5" cy="437.5" r="7.5"/>
	<circle cx="387.5" cy="437.5" r="7.5"/>
	<circle cx="737.5" cy="437.5" r="7.5"/>
	<circle cx="787.5" cy="437.5" r="7.5"/>
	<circle cx="862.5" cy="437.5" r="7.5"/>
	<circle cx="912.5" cy="437.5" r="7.5"/>
	<circle cx="937.5" cy="437.5" r="7.5"/>
	<circle cx="987.5" cy="437.5" r="7.5"/>
	<circle cx="1037.5" cy="437.5" r="7.5"/>
	<circle cx="87.5" cy="462.5" r="7.5"/>
	<circle cx="137.5" cy="462.5" r="7.5"/>
	<circle cx="162.5" cy="462.5" r="7.5"/>
	<circle cx="212.5" cy="462.5" r="7.5"/>
	<circle cx="237.5" cy="462.5" r="7.5"/>
	<circle cx="312.5" cy="462.5" r="7.5"/>
	<circle cx="337.5" cy="462.5" r="7.5"/>
	<circle cx="387.5" cy="462.5" r="7.5"/>
	<circle cx="762.5" cy="462.5" r="7.5"/>
	<circle cx="787.5" cy="462.5" r="7.5"/>
	<circle cx="862.5" cy="462.5" r="7.5"/>
	<circle cx="937.5" cy="462.5" r="7.5"/>
	<circle cx="987.5" cy="462.5" r="7.5"/>
	<circle cx="137.5" cy="487.5" r="7.5"/>
	<circle cx="237.5" cy="487.5" r="7.5"/>
	<circle cx="262.5" cy="487.5" r="7.5"/>
	<circle cx="287.5" cy="487.5" r="7.5"/>
	<circle cx="337.5" cy="487.5" r="7.5"/>
	<circle cx="762.5" cy="487.5" r="7.5"/>
	<circle cx="787.5" cy="487.5" r="7.5"/>
	<circle cx="812.5" cy="487.5" r="7.5"/>
	<circle cx="862.5" cy="487.5" r="7.5"/>
	<circle cx="912.5" cy="487.5" r="7.5"/>
	<circle cx="937.5" cy="487.5" r="7.5"/>
	<circle cx="987.5" cy="487.5" r="7.5"/>
	<circle cx="1012.5" cy="487.5" r="7.5"/>
	<circle cx="1062.5" cy="487.5" r="7.5"/>
	<circle cx="62.5" cy="512.5" r="7.5"/>
	<circle cx="87.5" cy="512.5" r="7.5"/>
	<circle cx="162.5" cy="512.5" r="7.5"/>
	<circle cx="212.5" cy="512.5" r="7.5"/>
	<circle cx="337.5" cy="512.5" r="7.5"/>
	<circle cx="362.5" cy="512.5" r="7.5"/>
	<circle cx="387.5" cy="512.5" r="7.5"/>
	<circle cx="787.5" cy="512.5" r="7.5"/>
	<circle cx="887.5" cy="512.5" r="7.5"/>
	<circle cx="962.5" cy="512.5" r="7.5"/>
	<circle cx="1037.5" cy="512.5" r="7.5"/>
	<circle cx="1062.5" cy="512.5" r="7.5"/>
	<circle cx="87.5" cy="537.5" r="7.5"/>
	<circle cx="112.5" cy="537.5" r="7.5"/>
	<circle cx="162.5" cy="537.5" r="7.5"/>
	<circle cx="187.5" cy="537.5" r="7.5"/>
	<circle cx="262.5" cy="537.5" r="7.5"/>
	<circle cx="312.5" cy="537.5" r="7.5"/>
	<circle cx="337.5" cy="537.5" r="7.5"/>
	<circle cx="387.5" cy="537.5" r="7.5"/>
	<circle cx="737.5" cy="537.5" r="7.5"/>
	<circle cx="837.5" cy="537.5" r="7.5"/>
	<circle cx="887.5" cy="537.5" r="7.5"/>
	<circle cx="912.5" cy="537.5" r="7.5"/>
	<circle cx="937.5" cy="537.5" r="7.5"/>
	<circle cx="987.5" cy="537.5" r="7.5"/>
	<circle cx="1037.5" cy="537.5" r="7.5"/>
	<circle cx="1062.5" cy="537.5" r="7.5"/>
	<circle cx="62.5" cy="562.5" r="7.5"/>
	<circle cx="137.5" cy="562.5" r="7.5"/>
	<circle cx="162.5" cy="562.5" r="7.5"/>
	<circle cx="212.5" cy="562.5" r="7.5"/>
	<circle cx="237.5" cy="562.5" r="7.5"/>
	<circle cx="262.5" cy="562.5" r="7.5"/>
	<circle cx="312.5" cy="562.5" r="7.5"/>
	<circle cx="362.5" cy="562.5" r="7.5"/>
	<circle cx="762.5" cy="562.5" r="7.5"/>
	<circle cx="787.5" cy="562.5" r="7.5"/>
	<circle cx="862.5" cy="562.5" r="7.5"/>
	<circle cx="887.5" cy="562.5" r="7.5"/>
	<circle cx="912.5" cy="562.5" r="7.5"/>
	<circle cx="937.5" cy="562.5" r="7.5"/>
	<circle cx="962.5" cy="562.5" r="7.5"/>
	<circle cx="1012.5" cy="562.5" r="7.5"/>
	<circle cx="1037.5" cy="562.5" r="7.5"/>
	<circle cx="1062.5" cy="562.5" r="7.5"/>
	<circle cx="62.5" cy="587.5" r="7.5"/>
	<circle cx="87.5" cy="587.5" r="7.5"/>
	<circle cx="112.5" cy="587.5" r="7.5"/>
	<circle cx="162.5" cy="587.5" r="7.5"/>
	<circle cx="187.5" cy="587.5" r="7.5"/>
	<circle cx="287.5" cy="587.5" r="7.5"/>
	<circle cx="337.5" cy="587.5" r="7.5"/>
	<circle cx="387.5" cy="587.5" r="7.5"/>
	<circle cx="762.5" cy="587.5" r="7.5"/>
	<circle cx="787.5" cy="587.5" r="7.5"/>
	<circle cx="862.5" cy="587.5" r="7.5"/>
	<circle cx="887.5" cy="587.5" r="7.5"/>
	<circle cx="912.5" cy="587.5" r="7.5"/>
	<circle cx="962.5" cy="587.5" r="7.5"/>
	<circle cx="1012.5" cy="587.5" r="7.5"/>
	<circle cx="1037.5" cy="587.5" r="7.5"/>
	<circle cx="1062.5" cy="587.5" r="7.5"/>
	<circle cx="87.5" cy="612.5" r="7.5"/>
	<circle cx="112.5" cy="612.5" r="7.5"/>
	<circle cx="162.5" cy="612.5" r="7.5"/>
	<circle cx="212.5" cy="612.5" r="7.5"/>
	<circle cx="237.5" cy="612.5" r="7.5"/>
	<circle cx="262.5" cy="612.5" r="7.5"/>
	<circle cx="287.5" cy="612.5" r="7.5"/>
	<circle cx="337.5" cy="612.5" r="7.5"/>
	<circle cx="787.5" cy="612.5" r="7.5"/>
	<circle cx="812.5" cy="612.5" r="7.5"/>
	<circle cx="837.5" cy="612.5" r="7.5"/>
	<circle cx="862.5" cy="612.5" r="7.5"/>
	<circle cx="987.5" cy="612.5" r="7.5"/>
	<circle cx="1037.5" cy="612.5" r="7.5"/>
	<circle cx="62.5" cy="637.5" r="7.5"/>
	<circle cx="112.5" cy="637.5" r="7.5"/>
	<circle cx="262.5" cy="637.5" r="7.5"/>
	<circle cx="287.5" cy="637.5" r="7.5"/>
	<circle cx="337.5" cy="637.5" r="7.5"/>
	<circle cx="362.5" cy="637.5" r="7.5"/>
	<circle cx="837.5" cy="637.5" r="7.5"/>
	<circle cx="862.5" cy="637.5" r="7.5"/>
	<circle cx="912.5" cy="637.5" r="7.5"/>
	<circle cx="937.5" cy="637.5" r="7.5"/>
	<circle cx="962.5" cy="637.5" r="7.5"/>
	<circle cx="212.5" cy="662.5" r="7.5"/>
	<circle cx="262.5" cy="662.5" r="7.5"/>
	<circle cx="287.5" cy="662.5" r="7.5"/>
	<circle cx="337.5" cy="662.5" r="7.5"/>
	<circle cx="362.5" cy="662.5" r="7.5"/>
	<circle cx="387.5" cy="662.5" r="7.5"/>
	<circle cx="762.5" cy="662.5" r="7.5"/>
	<circle cx="787.5" cy="662.5" r="7.5"/>
	<circle cx="862.5" cy="662.5" r="7.5"/>
	<circle cx="887.5" cy="662.5" r="7.5"/>
	<circle cx="912.5" cy="662.5" r="7.5"/>
	<circle cx="1012.5" cy="662.5" r="7.5"/>
	<circle cx="1037.5" cy="662.5" r="7.5"/>
	<circle cx="62.5" cy="687.5" r="7.5"/>
	<circle cx="87.5" cy="687.5" r="7.5"/>
	<circle cx="112.5" cy="687.5" r="7.5"/>
	<circle cx="162.5" cy="687.5" r="7.5"/>
	<circle cx="237.5" cy="687.5" r="7.5"/>
	<circle cx="262.5" cy="687.5" r="7.5"/>
	<circle cx="287.5" cy="687.5" r="7.5"/>
	<circle cx="312.5" cy="687.5" r="7.5"/>
	<circle cx="337.5" cy="687.5" r="7.5"/>
	<circle cx="837.5" cy="687.5" r="7.5"/>
	<circle cx="987.5" cy="687.5" r="7.5"/>
	<circle cx="1037.5" cy="687.5" r="7.5"/>
	<circle cx="62.5" cy="712.5" r="7.5"/>
	<circle cx="87.5" cy="712.5" r="7.5"/>
	<circle cx="212.5" cy="712.5" r="7.5"/>
	<circle cx="237.5" cy="712.5" r="7.5"/>
	<circle cx="287.5" cy="712.5" r="7.5"/>
	<circle cx="762.5" cy="712.5" r="7.5"/>
	<circle cx="862.5" cy="712.5" r="7.5"/>
	<circle cx="887.5" cy="712.5" r="7.5"/>
	<circle cx="937.5" cy="712.5" r="7.5"/>
	<circle cx="1037.5" cy="712.5" r="7.5"/>
	<circle cx="1062.5" cy="712.5" r="7.5"/>
	<circle cx="62.5" cy="737.5" r="7.5"/>
	<circle cx="112.5" cy="737.5" r="7.5"/>
	<circle cx="162.5" cy="737.5" r="7.5"/>
	<circle cx="187.5" cy="737.5" r="7.5"/>
	<circle cx="262.5" cy="737.5" r="7.5"/>
	<circle cx="287.5" cy="737.5" r="7.5"/>
	<circle cx="337.5" cy="737.5" r="7.5"/>
	<circle cx="362.5" cy="737.5" r="7.5"/>
	<circle cx="412.5" cy="737.5" r="7.5"/>
	<circle cx="537.5" cy="737.5" r="7.5"/>
	<circle cx="587.5" cy="737.5" r="7.5"/>
	<circle cx="662.5" cy="737.5" r="7.5"/>
	<circle cx="712.5" cy="737.5" r="7.5"/>
	<circle cx="787.5" cy="737.5" r="7.5"/>
	<circle cx="862.5" cy="737.5" r="7.5"/>
	<circle cx="887.5" cy="737.5" r="7.5"/>
	<circle cx="912.5" cy="737.5" r="7.5"/>
	<circle cx="937.5" cy="737.5" r="7.5"/>
	<circle cx="962.5" cy="737.5" r="7.5"/>
	<circle cx="112.5" cy="762.5" r="7.5"/>
	<circle cx="162.5" cy="762.5" r="7.5"/>
	<circle cx="187.5" cy="762.5" r="7.5"/>
	<circle cx="212.5" cy="762.5" r="7.5"/>
	<circle cx="287.5" cy="762.5" r="7.5"/>
	<circle cx="312.5" cy="762.5" r="7.5"/>
	<circle cx="337.5" cy="762.5" r="7.5"/>
	<circle cx="412.5" cy="762.5" r="7.5"/>
	<circle cx="437.5" cy="762.5" r="7.5"/>
	<circle cx="487.5" cy="762.5" r="7.5"/>
	<circle cx="587.5" cy="762.5" r="7.5"/>
	<circle cx="637.5" cy="762.5" r="7.5"/>
	<circle cx="662.5" cy="762.5" r="7.5"/>
	<circle cx="687.5" cy="762.5" r="7.5"/>
	<circle cx="737.5" cy="762.5" r="7.5"/>
	<circle cx="787.5" cy="762.5" r="7.5"/>
	<circle cx="887.5" cy="762.5" r="7.5"/>
	<circle cx="912.5" cy="762.5" r="7.5"/>
	<circle cx="1037.5" cy="762.5" r="7.5"/>
	<circle cx="1062.5" cy="762.5" r="7.5"/>
	<circle cx="87.5" cy="787.5" r="7.5"/>
	<circle cx="162.5" cy="787.5" r="7.5"/>
	<circle cx="187.5" cy="787.5" r="7.5"/>
	<circle cx="237.5" cy="787.5" r="7.5"/>
	<circle cx="337.5" cy="787.5" r="7.5"/>
	<circle cx="362.5" cy="787.5" r="7.5"/>
	<circle cx="387.5" cy="787.5" r="7.5"/>
	<circle cx="437.5" cy="787.5" r="7.5"/>
	<circle cx="487.5" cy="787.5" r="7.5"/>
	<circle cx="512.5" cy="787.5" r="7.5"/>
	<circle cx="537.5" cy="787.5" r="7.5"/>
	<circle cx="562.5" cy="787.5" r="7.5"/>
	<circle cx="587.5" cy="787.5" r="7.5"/>
	<circle cx="612.5" cy="787.5" r="7.5"/>
	<circle cx="662.5" cy="787.5" r="7.5"/>
	<circle cx="712.5" cy="787.5" r="7.5"/>
	<circle cx="737.5" cy="787.5" r="7.5"/>
	<circle cx="762.5" cy="787.5" r="7.5"/>
	<circle cx="837.5" cy="787.5" r="7.5"/>
	<circle cx="862.5" cy="787.5" r="7.5"/>
	<circle cx="887.5" cy="787.5" r="7.5"/>
	<circle cx="937.5" cy="787.5" r="7.5"/>
	<circle cx="1062.5" cy="787.5" r="7.5"/>
	<circle cx="62.5" cy="812.5" r="7.5"/>
	<circle cx="112.5" cy="812.5" r="7.5"/>
	<circle cx="137.5" cy="812.5" r="7.5"/>
	<circle cx="187.5" cy="812.5" r="7.5"/>
	<circle cx="212.5" cy="812.5" r="7.5"/>
	<circle cx="237.5" cy="812.5" r="7.5"/>
	<circle cx="262.5" cy="812.5" r="7.5"/>
	<circle cx="287.5" cy="812.5" r="7.5"/>
	<circle cx="312.5" cy="812.5" r="7.5"/>
	<circle cx="387.5" cy="812.5" r="7.5"/>
	<circle cx="437.5" cy="812.5" r="7.5"/>
	<circle cx="462.5" cy="812.5" r="7.5"/>
	<circle cx="562.5" cy="812.5" r="7.5"/>
	<circle cx="637.5" cy="812.5" r="7.5"/>
	<circle cx="687.5" cy="812.5" r="7.5"/>
	<circle cx="737.5" cy="812.5" r="7.5"/>
	<circle cx="762.5" cy="812.5" r="7.5"/>
	<circle cx="937.5" cy="812.5" r="7.5"/>
	<circle cx="962.5" cy="812.5" r="7.5"/>
	<circle cx="1037.5" cy="812.5" r="7.5"/>
	<circle cx="1062.5" cy="812.5" r="7.5"/>
	<circle cx="137.5" cy="837.5" r="7.5"/>
	<circle cx="162.5" cy="837.5" r="7.5"/>
	<circle cx="262.5" cy="837.5" r="7.5"/>
	<circle cx="337.5" cy="837.5" r="7.5"/>
	<circle cx="537.5" cy="837.5" r="7.5"/>
	<circle cx="637.5" cy="837.5" r="7.5"/>
	<circle cx="687.5" cy="837.5" r="7.5"/>
	<circle cx="787.5" cy="837.5" r="7.5"/>
	<circle cx="887.5" cy="837.5" r="7.5"/>
	<circle cx="987.5" cy="837.5" r="7.5"/>
	<circle cx="62.5" cy="862.5" r="7.5"/>
	<circle cx="137.5" cy="862.5" r="7.5"/>
	<circle cx="187.5" cy="862.5" r="7.5"/>
	<circle cx="212.5" cy="862.5" r="7.5"/>
	<circle cx="237.5" cy="862.5" r="7.5"/>
	<circle cx="362.5" cy="862.5" r="7.5"/>
	<circle cx="387.5" cy="862.5" r="7.5"/>
	<circle cx="437.5" cy="862.5" r="7.5"/>
	<circle cx="462.5" cy="862.5" r="7.5"/>
	<circle cx="487.5" cy="862.5" r="7.5"/>
	<circle cx="512.5" cy="862.5" r="7.5"/>
	<circle cx="537.5" cy="862.5" r="7.5"/>
	<circle cx="612.5" cy="862.5" r="7.5"/>
	<circle cx="662.5" cy="862.5" r="7.5"/>
	<circle cx="737.5" cy="862.5" r="7.5"/>
	<circle cx="762.5" cy="862.5" r="7.5"/>
	<circle cx="812.5" cy="862.5" r="7.5"/>
	<circle cx="862.5" cy="862.5" r="7.5"/>
	<circle cx="887.5" cy="862.5" r="7.5"/>
	<circle cx="912.5" cy="862.5" r="7.5"/>
	<circle cx="937.5" cy="862.5" r="7.5"/>
	<circle cx="962.5" cy="862.5" r="7.5"/>
	<circle cx="1012.5" cy="862.5" r="7.5"/>
	<circle cx="1037.5" cy="862.5" r="7.5"/>
	<circle cx="262.5" cy="887.5" r="7.5"/>
	<circle cx="337.5" cy="887.5" r="7.5"/>
	<circle cx="387.5" cy="887.5" r="7.5"/>
	<circle cx="412.5" cy="887.5" r="7.5"/>
	<circle cx="437.5" cy="887.5" r="7.5"/>
	<circle cx="462.5" cy="887.5" r="7.5"/>
	<circle cx="512.5" cy="887.5" r="7.5"/>
	<circle cx="562.5" cy="887.5" r="7.5"/>
	<circle cx="587.5" cy="887.5" r="7.5"/>
	<circle cx="612.5" cy="887.5" r="7.5"/>
	<circle cx="762.5" cy="887.5" r="7.5"/>
	<circle cx="787.5" cy="887.5" r="7.5"/>
	<circle cx="862.5" cy="887.5" r="7.5"/>
	<circle cx="962.5" cy="887.5" r="7.5"/>
	<circle cx="1012.5" cy="887.5" r="7.5"/>
	<circle cx="1062.5" cy="887.5" r="7.5"/>
	<circle cx="287.5" cy="912.5" r="7.5"/>
	<circle cx="312.5" cy="912.5" r="7.5"/>
	<circle cx="387.5" cy="912.5" r="7.5"/>
	<circle cx="412.5" cy="912.5" r="7.5"/>
	<circle cx="437.5" cy="912.5" r="7.5"/>
	<circle cx="512.5" cy="912.5" r="7.5"/>
	<circle cx="587.5" cy="912.5" r="7.5"/>
	<circle cx="612.5" cy="912.5" r="7.5"/>
	<circle cx="712.5" cy="912.5" r="7.5"/>
	<circle cx="812.5" cy="912.5" r="7.5"/>
	<circle cx="862.5" cy="912.5" r="7.5"/>
	<circle cx="912.5" cy="912.5" r="7.5"/>
	<circle cx="962.5" cy="912.5" r="7.5"/>
	<circle cx="1037.5" cy="912.5" r="7.5"/>
	<circle cx="287.5" cy="937.5" r="7.5"/>
	<circle cx="337.5" cy="937.5" r="7.5"/>
	<circle cx="387.5" cy="937.5" r="7.5"/>
	<circle cx="412.5" cy="937.5" r="7.5"/>
	<circle cx="437.5" cy="937.5" r="7.5"/>
	<circle cx="487.5" cy="937.5" r="7.5"/>
	<circle cx="537.5" cy="937.5" r="7.5"/>
	<circle cx="562.5" cy="937.5" r="7.5"/>
	<circle cx="587.5" cy="937.5" r="7.5"/>
	<circle cx="612.5" cy="937.5" r="7.5"/>
	<circle cx="662.5" cy="937.5" r="7.5"/>
	<circle cx="762.5" cy="937.5" r="7.5"/>
	<circle cx="812.5" cy="937.5" r="7.5"/>
	<circle cx="862.5" cy="937.5" r="7.5"/>
	<circle cx="962.5" cy="937.5" r="7.5"/>
	<circle cx="1012.5" cy="937.5" r="7.5"/>
	<circle cx="1062.5" cy="937.5" r="7.5"/>
	<circle cx="287.5" cy="962.5" r="7.5"/>
	<circle cx="412.5" cy="962.5" r="7.5"/>
	<circle cx="462.5" cy="962.5" r="7.5"/>
	<circle cx="512.5" cy="962.5" r="7.5"/>
	<circle cx="612.5" cy="962.5" r="7.5"/>
	<circle cx="637.5" cy="962.5" r="7.5"/>
	<circle cx="687.5" cy="962.5" r="7.5"/>
	<circle cx="712.5" cy="962.5" r="7.5"/>
	<circle cx="737.5" cy="962.5" r="7.5"/>
	<circle cx="812.5" cy="962.5" r="7.5"/>
	<circle cx="862.5" cy="962.5" r="7.5"/>
	<circle cx="887.5" cy="962.5" r="7.5"/>
	<circle cx="912.5" cy="962.5" r="7.5"/>
	<circle cx="937.5" cy="962.5" r="7.5"/>
	<circle cx="962.5" cy="962.5" r="7.5"/>
	<circle cx="1062.5" cy="962.5" r="7.5"/>
	<circle cx="262.5" cy="987.5" r="7.5"/>
	<circle cx="287.5" cy="987.5" r="7.5"/>
	<circle cx="312.5" cy="987.5" r="7.5"/>
	<circle cx="362.5" cy="987.5" r="7.5"/>
	<circle cx="387.5" cy="987.5" r="7.5"/>
	<circle cx="537.5" cy="987.5" r="7.5"/>
	<circle cx="562.5" cy="987.5" r="7.5"/>
	<circle cx="587.5" cy="987.5" r="7.5"/>
	<circle cx="612.5" cy="987.5" r="7.5"/>
	<circle cx="637.5" cy="987.5" r="7.5"/>
	<circle cx="662.5" cy="987.5" r="7.5"/>
	<circle cx="687.5" cy="987.5" r="7.5"/>
	<circle cx="812.5" cy="987.5" r="7.5"/>
	<circle cx="887.5" cy="987.5" r="7.5"/>
	<circle cx="912.5" cy="987.5" r="7.5"/>
	<circle cx="962.5" cy="987.5" r="7.5"/>
	<circle cx="1037.5" cy="987.5" r="7.5"/>
	<circle cx="312.5" cy="1012.5" r="7.5"/>
	<circle cx="337.5" cy="1012.5" r="7.5"/>
	<circle cx="387.5" cy="1012.5" r="7.5"/>
	<circle cx="437.5" cy="1012.5" r="7.5"/>
	<circle cx="512.5" cy="1012.5" r="7.5"/>
	<circle cx="537.5" cy="1012.5" r="7.5"/>
	<circle cx="562.5" cy="1012.5" r="7.5"/>
	<circle cx="587.5" cy="1012.5" r="7.5"/>
	<circle cx="837.5" cy="1012.5" r="7.5"/>
	<circle cx="962.5" cy="1012.5" r="7.5"/>
	<circle cx="987.5" cy="1012.5" r="7.5"/>
	<circle cx="1062.5" cy="1012.5" r="7.5"/>
	<circle cx="287.5" cy="1037.5" r="7.5"/>
	<circle cx="362.5" cy="1037.5" r="7.5"/>
	<circle cx="412.5" cy="1037.5" r="7.5"/>
	<circle cx="437.5" cy="1037.5" r="7.5"/>
	<circle cx="462.5" cy="1037.5" r="7.5"/>
	<circle cx="487.5" cy="1037.5" r="7.5"/>
	<circle cx="512.5" cy="1037.5" r="7.5"/>
	<circle cx="562.5" cy="1037.5" r="7.5"/>
	<circle cx="612.5" cy="1037.5" r="7.5"/>
	<circle cx="662.5" cy="1037.5" r="7.5"/>
	<circle cx="712.5" cy="1037.5" r="7.5"/>
	<circle cx="762.5" cy="1037.5" r="7.5"/>
	<circle cx="787.5" cy="1037.5" r="7.5"/>
	<circle cx="812.5" cy="1037.5" r="7.5"/>
	<circle cx="862.5" cy="1037.5" r="7.5"/>
	<circle cx="887.5" cy="1037.5" r="7.5"/>
	<circle cx="912.5" cy="1037.5" r="7.5"/>
	<circle cx="937.5" cy="1037.5" r="7.5"/>
	<circle cx="987.5" cy="1037.5" r="7.5"/>
	<circle cx="1037.5" cy="1037.5" r="7.5"/>
	<circle cx="362.5" cy="1062.5" r="7.5"/>
	<circle cx="387.5" cy="1062.5" r="7.5"/>
	<circle cx="412.5" cy="1062.5" r="7.5"/>
	<circle cx="437.5" cy="1062.5" r="7.5"/>
	<circle cx="487.5" cy="1062.5" r="7.5"/>
	<circle cx="512.5" cy="1062.5" r="7.5"/>
	<circle cx="562.5" cy="1062.5" r="7.5"/>
	<circle cx="587.5" cy="1062.5" r="7.5"/>
	<circle cx="612.5" cy="1062.5" r="7.5"/>
	<circle cx="662.5" cy="1062.5" r="7.5"/>
	<circle cx="737.5" cy="1062.5" r="7.5"/>
	<circle cx="787.5" cy="1062.5" r="7.5"/>
	<circle cx="862.5" cy="1062.5" r="7.5"/>
	<circle cx="887.5" cy="1062.5" r="7.5"/>
	<circle cx="937.5" cy="1062.5" r="7.5"/>
	<circle cx="962.5" cy="1062.5" r="7.5"/>
	<circle cx="1012.5" cy="1062.5" r="7.5"/>
	<circle cx="1037.5" cy="1062.5" r="7.5"/>
	<path class="st0" d="M137.5,77.5c-33.1,0-60,26.9-60,60s26.9,60,60,60s60-26.9,60-60S170.6,77.5,137.5,77.5z"/>
	<path d="M137.5,51.7c-47.4,0-85.8,38.4-85.8,85.8s38.4,85.8,85.8,85.8s85.8-38.4,85.8-85.8S184.9,51.7,137.5,51.7z M137.5,197.5
		c-33.1,0-60-26.9-60-60s26.9-60,60-60s60,26.9,60,60S170.6,197.5,137.5,197.5z"/>
	<path class="st0" d="M987.5,77.5c-33.1,0-60,26.9-60,60s26.9,60,60,60s60-26.9,60-60S1020.6,77.5,987.5,77.5z"/>
	<path d="M987.5,51.7c-47.4,0-85.8,38.4-85.8,85.8s38.4,85.8,85.8,85.8c47.4,0,85.8-38.4,85.8-85.8S1034.9,51.7,987.5,51.7z
		 M987.5,197.5c-33.1,0-60-26.9-60-60s26.9-60,60-60s60,26.9,60,60S1020.6,197.5,987.5,197.5z"/>
	<path class="st0" d="M137.5,927.5c-33.1,0-60,26.9-60,60s26.9,60,60,60s60-26.9,60-60S170.6,927.5,137.5,927.5z"/>
	<path d="M137.5,901.7c-47.4,0-85.8,38.4-85.8,85.8c0,47.4,38.4,85.8,85.8,85.8s85.8-38.4,85.8-85.8
		C223.3,940.1,184.9,901.7,137.5,901.7z M137.5,1047.5c-33.1,0-60-26.9-60-60s26.9-60,60-60s60,26.9,60,60
		S170.6,1047.5,137.5,1047.5z"/>
	<circle cx="136.8" cy="136.8" r="36.8"/>
	<circle cx="986.8" cy="136.8" r="36.8"/>
	<circle cx="136.8" cy="986.8" r="36.8"/>
</g>
<g id="ESMF_icon">
	<path d="M444.1,622.9h58.4c-13.2-12.9-21.7-29.8-24.5-48h-48C431.6,591.7,436.4,607.9,444.1,622.9z"/>
	<path d="M695,574.9h-48c-2.7,18.2-11.3,35.1-24.5,48h58.4C688.7,607.9,693.5,591.7,695,574.9z"/>
	<path d="M460.7,647.7c47.6,56.3,131.7,63.3,188,15.8c5.7-4.8,11-10.1,15.8-15.8H460.7z"/>
	<path d="M478.1,550.1c6-41,41.6-72.6,84.5-72.6c42.8,0,78.4,31.6,84.5,72.6h48C688.8,482.8,631.9,430,562.6,430
		s-126.2,52.7-132.5,120.1H478.1z"/>
	<ellipse cx="562.5" cy="562.5" rx="60.5" ry="60.2"/>
</g>
</svg>
